<?xml version="1.0" encoding="UTF-8" standalone="no"?>
<!-- Created with Inkscape (http://www.inkscape.org/) -->
<svg id="svg4153" xmlns:rdf="http://www.w3.org/1999/02/22-rdf-syntax-ns#" xmlns="http://www.w3.org/2000/svg" height="20" width="20" version="1.1" xmlns:cc="http://creativecommons.org/ns#" xmlns:dc="http://purl.org/dc/elements/1.1/" viewBox="0 0 20.00000007511998 20.00000007462857">
 <metadata id="metadata4158">
  <rdf:RDF>
   <cc:Work rdf:about="">
    <dc:format>image/svg+xml</dc:format>
    <dc:type rdf:resource="http://purl.org/dc/dcmitype/StillImage"/>
    <dc:title/>
   </cc:Work>
  </rdf:RDF>
 </metadata>
 <g id="layer1" transform="translate(536.702 -885.999)">
  <g id="g4841">
   <path id="path7253-8" d="m-526.702 885.999a10.0001 10.0001 0 0 0 -10.0002 10.0002 10.0001 10.0001 0 0 0 10.0002 9.99979 10.0001 10.0001 0 0 0 9.99979 -9.99979 10.0001 10.0001 0 0 0 -9.99979 -10.0002zm0 2.36737a7.63274 7.63274 0 0 1 7.63274 7.63284 7.63274 7.63274 0 0 1 -7.63274 7.63243 7.63274 7.63274 0 0 1 -7.63284 -7.63243 7.63274 7.63274 0 0 1 7.63284 -7.63284z"/>
   <g id="text7258-5">
    <path id="path4839" d="m-528.286 891.59q0-0.60945 0.421348-1.02327 0.421348-0.421348 1.0308-0.421348 0.594402 0 1.00823 0.421348 0.421348 0.413824 0.421348 1.02327 0 0.594402-0.421348 1.01575-0.413824 0.413824-1.00823 0.413824-0.60945 0-1.0308-0.413824-0.421348-0.413824-0.421348-1.01575zm2.91182 9.35242h1.14366v0.910413h-4.94332v-0.910413h1.13614v-6.17727h-1.13614v-0.910413h3.79966v7.08768z"/>
   </g>
  </g>
 </g>
</svg>
