<?xml version="1.0" encoding="UTF-8" standalone="no"?>
<svg
   xmlns:dc="http://purl.org/dc/elements/1.1/"
   xmlns:cc="http://creativecommons.org/ns#"
   xmlns:rdf="http://www.w3.org/1999/02/22-rdf-syntax-ns#"
   xmlns:svg="http://www.w3.org/2000/svg"
   xmlns="http://www.w3.org/2000/svg"
   version="1.1"
   width="77.611107mm"
   viewBox="0 0 275.0002 100.00102"
   height="28.222233mm"
   id="svg5121">
  <defs
     id="defs25" />
  <metadata
     id="metadata5126">
    <rdf:RDF>
      <cc:Work
         rdf:about="">
        <dc:format>image/svg+xml</dc:format>
        <dc:type
           rdf:resource="http://purl.org/dc/dcmitype/StillImage" />
        <dc:title></dc:title>
      </cc:Work>
    </rdf:RDF>
  </metadata>
  <g
     id="g4163">
    <path
       style="opacity:1;fill:#000000;fill-opacity:1;fill-rule:nonzero;stroke:none;stroke-width:0.7020000219;stroke-miterlimit:4;stroke-dasharray:none;stroke-opacity:1"
       d="M 210.14534,0.00121711 C 204.34326,0.02982569 200.47577,0.5368369299999998 200.16087,1.3586523 c -0.0682,0.1779752 0.21166,0.6825971 0.6211,1.1191516 0.61245,0.6532233 0.91066,0.774562099999998 1.67384,0.6855535 0.51026,-0.059525 1.2834100000001,-0.1437176 1.72072,-0.1875018 0.4374200000001,-0.043815 1.1155500000001,-0.1702797 1.50587,-0.2792995 0.39038,-0.1090435 0.91004,-0.086175 1.15431,0.050782 0.2864,0.1606349 0.7867,0.137937700000001 1.41018,-0.062501 1.02301,-0.3284715 2.96596,-0.3275532 3.4980700000001,0.00195 0.3848199999999,0.2382744 0.1598899999999,2.649387400000002 -0.2988300000001,3.2031563 -0.4467899999999,0.539476900000002 -0.8262499999999,0.165703500000002 -0.65626,-0.6464907 0.0812,-0.3877919 0.0359,-0.8784713 -0.0996,-1.089854499999999 C 210.4993,3.855695899999999 210.40519,3.945522799999999 210.27621,4.5520396 c -0.36947,1.7368204 -1.01183,2.0310362 -1.14454,0.5234427 -0.10851,-1.2330446 -0.42231,-1.1843382 -0.81446,0.1269544 -0.27926,0.9339394 -0.42196,1.0678348 -1.16993,1.111339 -0.46796,0.027237 -1.38693,0.08144 -2.04299,0.1210949 -0.65599,0.039854 -1.51095,0.076246 -1.90237,0.080079 -0.39131,0.00445 -0.78581,0.1296914 -0.87696,0.277346400000002 -0.091,0.147629599999998 -0.44353,0.269533799999998 -0.78321,0.2695339 -0.33972,0 -0.89999,0.2284999 -1.2441499999999,0.507817399999999 l -0.6250100000001,0.5060597 0,23.592029000000003 0,23.59222300000001 -3.05472,0.07617 -3.05277,0.07422 L 193.10807,54.629091 c -0.25264,-0.428542 -0.46094,-0.96638899999999 -0.46093,-1.19727799999999 0,-0.35392199999999 -0.25938,-0.39698300000001 -1.65627,-0.26953300000001 -2.26042,0.20619400000001 -2.22438,0.18506200000001 -2.3926,1.44142000000001 -0.1500399999999,1.121032 -1.36105,2.775953 -1.82229,2.49025799999999 -0.12343,-0.07664 -0.22461,-5.829605 -0.22461,-12.78723400000001 l 0,-12.65071 0.72852,-1.054698 c 0.71069,-1.027631 0.72881,-1.136992 0.66798,-4.375042 -0.0564,-2.991051 -0.12216,-3.380849 -0.63868,-3.93168 -0.62927,-0.67118 -0.49607,-0.80265 0.94922,-0.947275 l 0.7754,-0.07813 0.0898,-2.44728900000001 0.0898,-2.44729 -0.78907,-0.40820699999999 c -1.05662,-0.547421 -1.51733,-0.511847 -1.6836,0.125001 -0.16115,0.61722999999999 -0.71876,0.720264 -0.71876,0.13281399999999 0,-0.21910099999999 0.1029,-0.39844099999999 0.23046,-0.39844099999999 0.1983799999999,0 0.60427,-1.18268 0.6758,-1.974629 0.0124,-0.136762 -0.366,-0.349671 -0.83986,-0.472661 l -0.86329,-0.222659 -0.043,-2.050801 c -0.0238,-1.127731700000007 -0.0541,-2.957705700000007 -0.0664,-4.066641900000006 -0.0144,-1.2449448 -0.15358,-2.180627300000001 -0.36914,-2.441430099999999 -0.29046,-0.351615100000001 -0.28341,-0.524767 0.0527,-1.039072700000002 0.47674,-0.7288913 0.19509,-1.3765816 -0.53321,-1.2265745 -0.32429,0.066867 -0.46612,0.2859628 -0.41016,0.625006100000001 0.0452,0.2865334 0.067,0.7607017 0.0447,1.052744700000001 -0.0227,0.2920292 -0.0641,2.3805572 -0.0936,4.6445767 -0.0293,2.263879700000004 -0.14629,4.266964700000005 -0.25976,4.449458700000005 -0.11337,0.182576 -0.49262,0.332034 -0.83986,0.332034 -0.74681,0 -1.10741,0.456232 -0.69141,0.873056 0.16226,0.162549 0.29296,0.472454 0.29297,0.689459 0,0.483456 -1.0305,1.625016 -1.46877,1.625016 -0.60102,0 -1.00118,0.821146 -1.10938,2.285179 -0.12375,1.675852 0.18272,2.228538 1.23438,2.228538 0.82952,0 1.36152,0.440404 1.16212,0.960946 -0.0945,0.24661 0.0674,0.36823 0.4883,0.371098 0.99987,0.0065 1.47463,0.423246 1.12305,0.98438399999999 -0.20828,0.33240400000001 -0.63281,0.470708 -1.42775,0.470708 l -1.12696,0 -0.34571,1.328138 c -0.50012,1.92658499999999 -0.055,4.84499999999999 0.84962,5.57622699999999 0.25085,0.203104 0.34511,3.18694500000001 0.4043,12.61360000000002 l 0.0781,12.34973 -1.32032,0 -5.31255,0 -0.13281,-7.22272700000001 -0.13281,-5.306693 -1.06057,-0.185548 c -0.58303,-0.103423 -1.62044,-0.196451 -2.30276,-0.20508 -1.07923,-0.01333 -1.25023,-0.09157 -1.32422,-0.611334 -0.069,-0.486633 -0.27703,-0.61385 -1.13087,-0.68360100000001 -1.65057,-0.134863 -2.79886,0.16303400000001 -2.79886,0.72852300000001 0,0.814613 -0.54617,1.01073499999999 -3.40042,1.20704300000001 -2.55002,0.17545799999998 -2.78223,0.14865499999998 -3.32621,-0.363285 -0.52413,-0.49330500000001 -0.94312,-0.554439 -4.03128,-0.591802 -3.6331,-0.04397 -4.61334,0.18359499999999 -4.61334,1.076182 0,0.630961 -0.50243,0.816414 -2.22072,0.816414 -0.76072,0 -1.52822,0.145055 -1.70314,0.320316 -0.22272,0.22322800000002 -0.31836,1.68582600000002 -0.31836,4.88286 -3e-5,5.191724 0.14771,0.88672800000002 -4.37504,0.88672800000002 -1.12463,0 -3.57611,2.10954699999999 -3.68754,2.40041299999999 -0.0839,0.219103 -0.43967,0.398442 -0.78908,0.398442 -0.34928,0 -0.95146,0.24821 -1.3379,0.55274 -0.38641,0.304531 -1.1489,0.675379 -1.69338,0.824227 -1.55098,0.424053 -1.65234,0.602166 -1.65235,2.894559 0,1.810795 -0.0684,2.120114 -0.52931,2.367211 -0.74899,1.296547 -1.00342,1.191665 -2.2383000000001,1.251966 -1.77518,0.11940100000001 -1.69763,-3.081166 -1.7851699999999,-3.992227 L 128.86891,56.375197 l -1.9883,0 -1.9883,0 -0.082,1.007823 c -0.0639,0.77659 -0.22983,1.063246 -0.71486,1.24805899999999 -0.50652,0.192856 -0.64495,0.463226 -0.71093,1.38087300000001 l -0.082,1.142589 -2.10549,0.13281400000001 -2.1055,0.132813 -0.22266,4.86157199999997 C 118.36186,67.621188 117.40597,67.393079 117.40597,67.393079 117.15178,67.13841399999998 116.82241,66.68293599999998 116.67159,66.37939699999998 116.48385,66.00175899999999 116.05054,65.78115199999999 115.30048,65.680171 c -1.59462,-0.21480900000002 -1.93752,-0.60850600000001 -1.93752,-2.224631 0,-1.341434 -0.0251,-1.388405 -1.01563,-1.826385 C 111.23308,61.136609 109.61422,61.016654 107.89806,61.41626200000001 106.70641,61.693706 106.42162,61.531786 106.30625,60.51391 106.22125,59.76302 106.14163,59.713263 104.9078,59.63499500000001 c -2.20937,-0.140079 -2.53713,0.04215 -2.53713,1.404311 0,0.80173499999998 -0.13538,1.25240599999998 -0.42383,1.41427199999999 -0.3012,0.168897 -0.41978,0.615085 -0.41212,1.54884299999998 0.0106,1.37594700000001 -4.25240500000004,2.12911200000002 -4.66606100000003,1.87306500000001 -0.13462100000001,-0.08335 -0.273229,-1.61910300000001 -0.30859700000002,-3.41409599999999 -0.0473,-2.40106500000001 -0.16732599999999,-3.375749 -0.449224,-3.687731 -0.210712,-0.233298 -0.38281499999998,-0.567521 -0.38281499999998,-0.742196 0,-0.17468800000001 -0.29959700000002,-0.431484 -0.66407000000001,-0.57031700000001 -0.50200799999999,-0.19300899999999 -0.65625599999998,-0.441495 -0.65625599999998,-1.062511 0,-0.969894 -0.19031400000001,-1.061616 -2.710964,-1.287121 l -1.9258,-0.17187799999999 -0.132814,-1.46095100000001 -0.132813,-1.460952 -1.38673300000002,-0.08008 C 86.07435299999997,51.819514 85.70415499999997,52.11742 85.60878199999996,53.939625 c -0.06882,1.31534100000001 -0.170023,1.561845 -0.744147,1.84572200000001 -0.48340800000001,0.239043 -0.698227,0.599569 -0.79492999999999,1.333997 -0.128325,0.97467600000001 -0.16644600000001,1.00782300000001 -1.18946400000002,1.007822 -0.89366699999998,0 -1.110033,-0.112929 -1.40821699999998,-0.736335 -0.33583200000001,-0.70194399999999 -0.41821299999999,-0.73143799999999 -1.72658000000001,-0.57813099999999 -1.88102499999998,0.220432 -1.985135,0.266281 -2.08400399999999,0.953135 -0.10939500000001,0.75943400000001 1.18480999999998,0.96580400000001 -1.45900000000002,1.00000900000001 -2.66302499999999,0.0345 -2.67314999999999,-1.945262 -2.85158999999999,3.187728 L 73.21217699999995,65.920408 c -3.37034999999999,1.58033899999998 -2.521045,-1.69585699999999 -5.240285,0.21093900000001 -0.46226499999999,0.57299799999997 -1.40845499999999,0.0094 -2.13088099999999,-0.04492 0,0 -0.574834,-2.543006 -0.488286,-4.486372 0.09142,-2.053419 -0.0462,-4.293312 -1.33595100000001,-4.306878 -1.34893599999999,-0.01428 -1.51153499999999,-0.557455 -1.94728399999998,-0.99415 -0.17546000000001,-0.17582099999999 -0.808564,-0.32031599999999 -1.406264,-0.32031599999999 -1.392945,0 -1.72462700000002,-0.35537800000001 -1.72462700000002,-1.85353400000001 0,-0.887064 -0.140528,-1.338109 -0.527348,-1.66993699999999 -0.398243,-0.341659 -0.53125499999999,-0.783046 -0.53125499999999,-1.77540900000001 0,-1.578102 -0.36804900000001,-1.87306499999999 -2.35549200000001,-1.87306499999999 l -1.33009100000001,0 -0.162112,0.996104 c -0.0892,0.54772700000001 -0.188118,1.17348999999999 -0.21679799999999,1.39259100000001 -0.03699,0.281878 -0.552946,0.460893 -1.769549,0.611334 -0.945644,0.11692 -1.807241,0.30318399999999 -1.914081,0.41015999999999 -0.17541700000001,0.17533300000001 -0.38450000000001,11.39693999999999 -0.445318,17.12340999999999 l -0.01797,1.68419699999997 C 47.717558,58.913061 37.266713,50.006742 24.998994,50.000731 11.191784,50.000746 -0.0011663800000008,61.193624 -0.0012359699999998,75.000781 c 0.03903185,8.08452200000001 -5.26e-6,16.754537 0,25.00023899999999 L 275.00144,100.00102 275.00145,60.00063100000001 c -9.24701,0.246615 -15.20285,1.17802300000002 -26.13662,2.079125 -0.19845,-2.99532099999999 0.0879,-15.96365 -2.34221,-15.94488299999999 -2.58359,0.01951 -2.02023,-0.05799 -2.27151,-0.36133199999999 -0.24222,-0.29239400000001 -0.65099,-0.345234 -1.6758,-0.21484600000001 -0.74563,0.09486 -1.49903,0.28593099999999 -1.67579,0.42578499999999 -0.17929,0.14189900000001 -1.05836,0.18323500000001 -1.9883,0.09375 -4.8053,-1.052832 -0.0228,2.080113 -4.2227,0.875009 -1.06934,-0.338149 -1.89571,-0.0908 -2.16799,0.646491 -0.14954,0.405203 -0.5781100000001,0.64724 -1.5078300000001,0.849617 -1.0737300000001,0.233731 -1.2829900000001,0.372378 -1.20899,0.804696 0.34481,2.006015 0.31984,16.278204 -0.0527,16.771844 C 229.39435,66.497735 229.30645,66.51258700000001 228.95608,66.15870099999999 228.73922,65.939597 228.45381,61.34158400000001 228.32327,60.83032900000002 l -0.23829,-0.93165 c -2.14924,-0.0145 -2.3295200000001,0.0218 -4.4590300000001,-0.189455 -0.2187099999999,-0.08532 -0.6043,-0.22220200000001 -0.8593799999999,-0.30469100000002 -0.43677,-0.141786 -0.4648500000001,0.61427100000001 -0.4648500000001,-19.15643799999999 0,-13.70144200000003 0.0921,-21.179592 0.26758,-21.50821900000002 0.1825000000001,-0.34213199999998 0.17916,-1.085 -0.0117,-2.318382 -0.17713,-1.13993799999998 -0.1928,-2.36891499999998 -0.0469,-3.30081299999998 0.14564,-0.931087 0.12501,-2.31146900000001 -0.0547,-3.70316170000001 C 222.21224,7.5303704 222.08863,7.18424 221.63763,7.100895000000002 221.34605,7.046974 220.96055,6.8823222 220.7802,6.7356571 c -0.1803,-0.1466506 -0.62099,-0.191525699999998 -0.97853,-0.1015635 -0.46547,0.117014400000002 -0.85948,-0.016169 -1.38477,-0.468754599999998 L 217.68447,5.5325203 216.94031,6.085260100000001 c -0.73926,0.547727700000001 -0.74961,0.547475399999999 -1.25586,0.033203 C 215.38412,5.8134008 215.0995,5.026486100000001 214.99303,4.2063349 c -0.16614,-1.278842100000001 -0.1382,-1.3945449 0.34962,-1.394544800000001 0.29251,0 0.68178,0.1813062 0.86329,0.4003945 0.41327,0.498923399999999 0.72759,0.5019025 1.2129,0.015625 0.39778,-0.3985458 1.90727,-0.3115758 2.83401,0.1640641 0.60005,0.3081248 0.74241,0.207626 1.37501,-0.982431600000001 0.50264,-0.945714 0.50404,-0.9939704 0.0371,-1.3359506 -0.92632,-0.6786744999999997 -3.24216,-0.9516771999999997 -8.90438,-1.05469778999999985 -0.90645,-0.0165026 -1.78137,-0.02136938 -2.6133,-0.0175783 z M 206.04765,3.8762551 c -0.40179,0 -0.75204,0.719682300000001 -0.52736,1.083994900000002 0.23845,0.3864216 0.84149,0.280330399999999 1.01759,-0.1796891 C 206.73513,4.265709400000002 206.52338,3.8762551 206.04765,3.8762551 Z m 16.23473,0.1144542 c -0.0179,-2.7000000001e-5 -0.0349,0.00604 -0.051,0.01836 -0.0968,0.0739 -0.15821,0.3574333 -0.15821,0.7793044 0,0.519843599999998 0.1198,0.9453218 0.26563,0.945321899999998 0.14578,0 0.26367,-0.351709399999999 0.26367,-0.7812576 0,-0.4295625 -0.11789,-0.8531296 -0.26367,-0.943368699999998 -0.0197,-0.012207 -0.0385,-0.018333 -0.0564,-0.01836 z M 203.93845,4.146765600000001 C 203.71424,4.1663276 203.52027,4.3385149 203.52027,4.6282156 c 0,0.2677949 0.0828,0.5690753 0.1836,0.6699284 0.27052,0.271025200000001 0.96956,-0.5270896 0.75977,-0.867196 -0.1086,-0.1761013 -0.27039,-0.2662154 -0.42773,-0.283205899999998 -0.0328,-0.00354 -0.0654,-0.00377 -0.0975,-9.80000000001e-4 z M 183.27554,15.828326 c 0.17875,-0.0016 0.36644,0.07165 0.46525,0.231838 0.18034,0.292421 -0.49475,0.888594 -0.73439,0.648443 -0.0963,-0.0961 -0.17383,-0.334544 -0.17383,-0.529301 0,-0.197806 0.16813,-0.319724 0.36719,-0.345707 0.0249,-0.0032 0.0503,-0.005 0.0758,-0.0053 z"
       id="rect4169" />
    <path
       d="m 58.80994,64.88765399999998 c -1.811464,0.29270500000001 -3.62292799999999,0.58498900000001 -5.434252,0.877527 l 0,19.17289600000001 c 3.277388,0.88626599999999 6.989812,1.633004 10.184696,0.07265 1.983464,-1.07286299999997 3.24983899999999,-3.206018 3.538605,-5.409971 0.288011,2.52012200000003 1.892151,4.98710700000001 4.38518599999999,5.774243 C 74.18710700000001,86.33792299999998 77.275433,86.031473 79.860763,84.891027 c 0.85628399999999,-0.80778999999998 -0.01925,-1.95154999999998 0.07893,-2.90844599999998 -0.01431,-0.46585000000002 -0.42765199999999,-1.06392700000004 -0.24035400000001,-1.439331 C 80.32101799999999,80.830809 80.94713000000001,80.26784299999998 80.894523,79.628849 c 0.300106,-2.75071200000001 -0.190083,-5.98931000000002 -2.559738,-7.742014 -2.630077,-1.89421700000001 -6.62301800000002,-1.719002 -8.95510000000002,0.59347799999999 C 68.12559,73.65841700000001 67.27344400000001,75.28500099999999 67.120181,77.00722 66.894874,74.39005199999998 65.30564099999999,71.66464999999999 62.634731,70.96043699999998 61.503524,70.622258 60.289644,70.59004 59.134441,70.82169299999999 l 0,-5.98623300000001 c -0.108156,0.01748 -0.21631599999999,0.03496 -0.32446699999999,0.05244 z m 124.67694000000001,0 c -1.8109,0.29266300000002 -3.62181,0.58501700000001 -5.43271,0.877527 C 178.04917,72.012207 178.06437,78.48716799999999 178.04617,84.591284 c -0.28343,-1.56434400000001 -0.56666,-3.128688 -0.85022,-4.69303200000002 -1.20687,0.30087000000002 -2.5905,1.24358800000002 -3.77969,0.498165 -0.4792,-1.409126 -0.0371,-2.90089499999999 -0.20812,-4.34581999999999 0.69617,0.25426499999999 1.45712,-0.07405 2.18931,0.05271 0.66796,-0.20183900000001 2.23881,0.49914499999998 2.05002,-0.559343 l 0,-4.607732 -4.22842,0 0,-3.857792 c -1.92277,0.31086899999998 -3.84555,0.621011 -5.76833,0.93187999999999 C 167.61744,72.666994 167.16316,77.353734 167.71238,81.990971 c 0.54604,2.260587 2.76725,3.904357 5.07626,3.87527099999998 1.80895,0.148269 3.63831,-0.25887699999998 5.26519,-1.04713199999999 -0.35873,1.22542399999999 1.07313,0.660263 1.81789,0.782214 l 3.9384,0 c 0.0215,-3.232726 -0.0367,-6.46573200000002 0.0262,-9.698178 0.62012,-0.15830800000002 1.47502,0.135599 1.323,0.91357599999999 0.29074,2.53130900000001 -0.0141,5.09114500000001 0.0768,7.62049600000002 0.088,0.81896299999998 0.90886,1.35081499999998 1.70351,1.16403599999998 l 4.10886,0 c -0.287,-3.79039199999998 0.48252,-7.74033499999999 -0.5345,-11.47912699999999 -0.8172900000001,-2.19654300000001 -3.15364,-3.54819600000002 -5.4528500000001,-3.466392 -0.41753,-0.01054 -0.8358499999999,0.01077 -1.25009,0.06418 l 0,-5.885412 c -0.10815,0.01748 -0.2162999999999,0.03496 -0.3244699999999,0.05244 z m 37.40252,0.13382800000001 c -2.8197,-0.10430100000001 -5.75546,1.952527 -6.04339,4.87243999999998 -0.42029,2.76944900000001 0.0219,5.57791300000001 -0.1553999999999,8.353516 l 0,5.02640000000001 c -1.93829,-5.524356 -4.03713,-11.00214700000001 -6.5746300000001,-16.282489 l -4.93014,0 c -2.95604,5.99658199999999 -5.1958199999999,12.30835399999998 -7.3977199999999,18.61075700000001 l 6.2370699999999,0 c 0.3410900000001,-1.19591900000002 0.74687,-2.37203700000001 1.16485,-3.54288300000002 l 4.7854000000001,0 c 0.40608,1.17666300000002 0.8315499999999,2.347425 1.18072,3.54288300000002 l 11.2936,0 0,-9.49793300000002 4.20801,0 0,9.49793300000002 5.75741,0 c 0.0152,-3.22419600000001 -0.0215,-6.448392 0.0158,-9.67244800000002 1.26977,-0.07439 2.48409,0.321371 3.7002600000001,0.61150200000002 0.16441,-0.81043300000002 0.32883,-1.62083800000001 0.4932599999999,-2.431326 l 0,11.492272 5.75909,0 0,-14.61424800000002 c -0.14068,-0.158924 -0.97711,0.08253 -0.60551,-0.186262 1.5762499999999,-1.484358 1.08399,-4.486773 -0.96603,-5.28397699999998 -1.46579,-0.62970900000001 -3.35668,-0.109852 -4.11208,1.34755699999999 -0.80135,1.283692 -0.5560299999999,3.12896600000001 0.67297,4.06125199999998 -0.44357,-0.08541 -0.6408,0.56499200000002 -0.99526,0.34139500000002 -3.12678,-1.084063 -6.55156,-0.525419 -9.58214,0.60167199999999 0.1674199999999,-1.01360000000001 -0.67649,-0.950352 -0.1091600000001,-2.023565 0.30694,-1.25853700000002 0.61398,-2.517045 0.9208700000001,-3.775567 -1.47417,-0.68198 -3.08847,-1.077324 -4.71758,-1.04849 z m -88.97625,1.58378 c -2.80934,-0.04695 -5.96619,1.544906 -6.67839,4.451815 -0.829,2.750991 0.78504,5.937431 3.49596,6.898663 1.39282,0.66212299999999 3.17222,0.779808 4.16927,2.03573099999998 -0.21237,0.762035 -1.23712,0.490083 -1.82447,0.56808200000002 -1.70211,-0.0047 -3.37402,-0.597756 -4.75449,-1.581822 -0.60216,1.69774699999999 -1.20404,3.395634 -1.80616,5.09338099999999 3.42086,2.12285 7.90883,2.501385 11.60657,0.89555199999999 1.63556,-0.893552 2.70797,-2.676179 2.83396,-4.52397100000002 0.58548,2.54123800000002 2.57863,4.763649 5.17835,5.30299600000001 3.24663,0.809944 7.15986,-0.75846900000001 8.36051,-4.018604 1.41306,-3.364311 0.64251,-7.84003800000001 -2.5136,-9.95128 -2.72824,-1.797031 -6.69698,-1.56266599999999 -9.03046,0.79695299999999 -1.50075,1.38527000000002 -2.26259,3.41703000000001 -2.26371,5.43863600000002 -0.5679,-1.964974 -2.27236,-3.354662 -4.15641,-3.992733 -1.16164,-0.495019 -2.58029,-0.732446 -3.46351,-1.643072 0.32979,-0.617375 1.27401,-0.316924 1.85118,-0.370341 1.33657,0.117829 2.53037,0.677728 3.65495,1.375691 0.61328,-1.676073 1.22598,-3.352425 1.83887,-5.028638 -1.9297599999999,-1.218081 -4.22242,-1.807377 -6.4987,-1.74710900000001 z m 89.55237,3.61196099999998 c 0.87135,0.04761 1.71708,0.30979200000002 2.48955,0.71365200000001 -1.15036,-0.01743 -2.39949,0.06925 -3.48253,-0.03851 0.12627,-0.419004 0.55825,-0.70797500000002 0.99307,-0.67514100000001 z m 26.35531,0.38537300000002 c -3.67453,0.1117 -6.91332,3.405703 -6.94087,7.08814099999999 -0.30489,2.997102 1.09032,6.420564 4.04272,7.567498 2.4738900000001,1.03243599999999 5.4005600000001,0.88216899999999 7.8129000000001,-0.22039500000001 0.25283,-0.19572799999999 0.34352,-0.59233099999999 0.3944,-0.833016 1.84182,1.78570400000001 4.639,1.76388900000002 7.03023,1.59049300000001 1.56437,-0.137151 3.10776,-0.440455 4.64305,-0.76053900000001 -0.25698,-3.67209099999998 0.4384800000001,-7.45521099999999 -0.44846,-11.07681999999998 -0.85653,-2.250938 -3.3632500000001,-3.46219700000002 -5.68288,-3.340819 -1.97271,-0.05135 -3.93883,0.30543 -5.81448,0.90101799999998 -0.0914,0.20279100000002 -0.7004,-0.25161999999999 -1.03131,-0.30370899999998 -1.28125,-0.47184900000001 -2.64448,-0.65522900000001 -4.00525,-0.61206199999999 z m -201.91235599999995,0.0057 c -3.66739599999999,-0.04878 -6.816831,3.30026599999998 -6.897658,6.902159 -0.34181999999999,2.995704 0.98465600000001,6.441119 3.90973600000001,7.660628 2.763622,1.19323399999999 6.024509,0.93046899999999 8.74618000000001,-0.220409 0.97352599999999,-0.80360900000001 0.20012299999999,-2.16382 0.14175400000001,-3.157494 0.03766,-0.45862 -0.572498,-1.42227100000001 0.24744399999999,-1.230892 0.673278,3e-4 0.891007,-0.722797 0.80051799999999,-1.27654699999999 0.28419199999999,-2.772946 -0.39385500000001,-6.044685 -2.911991,-7.628467 -1.18809300000001,-0.77220200000001 -2.632034,-1.08017599999999 -4.035871,-1.049048 z m 66.30567599999996,0 c -1.77006,0.04932 -3.53049,0.36165699999998 -5.2133,0.911659 0.26862,1.700684 0.53687,3.40150800000001 0.80515,5.102332 0.29347,-0.07504 1.44719,-0.50682100000002 0.64048,-0.137925 -1.47459,0.73707499999999 -2.44423,2.30659300000001 -2.48073,3.95036399999998 -1.27484,-9e-5 -2.54966,-9.999999999e-5 -3.82457,-2.9999999998e-4 1.49711,-1.93742600000002 3.14286,-3.763683 4.79295,-5.58490500000001 l 0,-3.912609 -12.11236499999994,0 0,5.16707599999999 4.05418800000001,0 c -1.59443500000003,1.95658400000001 -3.19837800000003,3.93414300000001 -4.38658400000001,6.172496 0.24927500000001,1.02986299999999 -0.40936199999999,2.414406 0.651674,3.150363 1.91256700000001,0.28376799999999 3.93672500000001,0.15035 5.89291699999994,0.18634400000001 2.00333,-0.013 4.00679,-0.04258 6.01012,-0.0063 0.0397,-0.535501 -0.009,-1.16240000000001 0.0131,-1.64335200000001 1.63065,1.87995400000001 4.36365,1.99587800000002 6.67098,1.87436000000001 1.75916,-0.107309 3.49428,-0.441125 5.21583,-0.80379000000001 -0.25674,-3.67125100000001 0.43732,-7.453253 -0.44737,-11.07458200000001 -0.85489,-2.25429400000002 -3.36563,-3.462616 -5.68583,-3.34599300000001 -0.19882,-0.0051 -0.39763,-0.0073 -0.59649,-0.0052 z m -24.57655899999996,0.04335 c -2.102187,0.02593 -4.193049,0.37926300000001 -6.20699900000001,0.97503300000001 l 0,13.97268100000001 5.75909700000001,0 c 0.02415,-3.22909 -0.04823,-6.54571799999999 0.03605,-9.72027199999999 0.610547,-0.10123600000001 1.45557600000001,0.156085 1.312354,0.931055 0.29086299999999,2.52515699999996 -0.01475,5.07967899999998 0.07838,7.60245699999997 0.0957,0.821173 0.909942,1.39096300000003 1.71707399999998,1.18670400000002 l 4.09166500000002,0 c -0.28882100000001,-3.79654399999998 0.48553299999999,-7.72551200000001 -0.53586,-11.457313 -0.83447000000001,-2.205072 -3.18425499999999,-3.53379200000002 -5.49032699999999,-3.47757799999998 -0.25361000000001,-0.01219 -0.50758500000002,-0.01534 -0.761461,-0.01284 z M 158.07969,70.914663 c -1.52479,0.0478 -3.05071,0.0021 -4.57593,0.02294 0.27046,3.78256100000003 -0.48348,7.69321100000002 0.53069,11.41060800000003 0.79205,2.11585700000001 2.98526,3.51001999999998 5.22212,3.490163 2.26621,0.16223799999999 4.60865,-0.13913600000002 6.72887,-0.91083400000002 1.00617,-0.92999299999998 0.27863,-2.370498 0.50526,-3.52945799999999 l 0,-10.463639 -5.75882,0 c -0.0273,3.23300499999999 0.0544,6.566553 -0.0407,9.736912 -0.64645,0.102313 -1.45655,-0.245552 -1.30552,-1.020914 -0.30983,-2.535224 0.0391,-5.123587 -0.0964,-7.66804000000001 -0.10877,-0.580808 -0.58099,-1.10459200000001 -1.20966,-1.06761899999999 z m 95.53605,5.383122 c -0.27414,0.760959 1.54367,-0.31156799999999 0.78494,0.134919 -1.45978,0.69090199999999 -2.46689,2.20297499999999 -2.57331,3.790111 -0.98389,-0.163971 -1.85747,0.565078 -2.85298,0.47057599999999 -1.00398,0.104176 -2.17559,-0.465667 -2.21643,-1.577209 -0.26582,-1.18488499999999 0.004,-2.96535900000002 1.42467,-3.20881300000002 1.28339,-0.23832299999998 2.5115,0.362944 3.66124,0.80952400000001 0.3813,-1.462264 0.76236,-2.92452800000001 1.14356,-4.386792 0.20949,1.32261 0.41897,2.645275 0.62846,3.967843 z M 205.64286,75.11055 c 0.20341,0.574697 0.50408,1.218447 0.64238,1.75773699999999 -0.48069,0.0011 -0.96409,0.08881 -1.44313,0.02076 0.25585,-0.54180700000002 0.52142,-1.702082 0.78802,-1.81171300000003 l 0.0127,0.03313 z M 46.213318,75.73055899999998 C 47.204701,75.919758 46.153278,75.923939 45.73371500000001,75.9059 45.05413,75.93276 46.05194500000001,75.678121 46.213318,75.73055899999998 Z m 28.059932,0.0016 c 0.98640499999999,0.19023399999999 -0.07715,0.18964599999998 -0.486706,0.17425 -0.66929500000001,0.02318 0.319851,-0.226716 0.486706,-0.17425 z M 145.90116,75.85233199999997 c 1.24974,0.0359 1.50886,1.63496100000002 1.43335,2.62332100000002 0.21648,1.20212699999999 -1.08435,2.988992 -2.23713,1.83101099999999 -0.80225,-1.128755 -0.77613,-2.75294899999999 -0.11908,-3.946028 C 145.17836,76.048479 145.52387,75.829385 145.90116,75.85236 Z m -85.75156699999999,0.03113 c 1.185017,0.19507099999998 1.244224,1.69788699999998 1.202553,2.64947099999999 -0.0056,1.028451 -0.732277,2.33987400000001 -1.912148,2.12075000000002 -0.567408,0.21081799999999 -0.183076,-0.59845500000002 -0.293605,-0.90128300000001 -0.0065,-1.257684 -0.119712,-2.524877 0.06446,-3.775569 0.306637,-0.07381 0.62456,-0.09047 0.93872,-0.09341 z M 112.80985,80.23935 c 0.27291,0.03469 0.55382,-0.07584 0.47251,0.317357 0.26372,0.543347 -0.51909,0.27837199999999 -0.83712,0.355058 -0.35129,0.14486999999998 -1.08863,-0.36827200000002 -0.49462,-0.57246000000001 0.27618,-0.09188 0.57212,-0.08799 0.85923,-0.09996 z m 145.86523,7.9999999998e-4 c 0.2727,0.0382 0.52696,-0.05706 0.46594,0.31572100000001 0.27252,0.57924300000001 -0.63274,0.271114 -0.9616600000001,0.351506 -0.4655200000001,0.11818700000001 -0.8884,-0.534131 -0.2553700000001,-0.60086099999999 0.24626,-0.05595 0.5004099999999,-0.05396 0.75109,-0.06637 z M 46.51257300000001,80.545816 c 0.740597,0.0097 1.481306,-0.001 2.22188899999999,-0.0055 -0.835813,0.173913 -1.717772,0.23163799999999 -2.54855099999999,-6.0000000002e-4 0.108883,0.002 0.21777000000001,0.004 0.326648,0.006 z m 28.05573699999998,0 c 0.74132400000001,0.0098 1.482705,-4e-4 2.22398699999999,-0.0055 -0.83324000000002,0.171718 -1.7119,0.22755499999998 -2.54002200000001,-3.0000000001e-4 0.105333,0.0019 0.210667,0.0038 0.31600700000001,0.0057 z"
       id="path4177-0" />
    <g
       id="g5176-2-7-1"
       transform="matrix(0.49999147,0,0,0.49998958,270.5528,40.31713100000001)">
      <path
         id="rect4933-5-8-1-8-5-6-8-3-1-2-2-9"
         d="m -516.1599999999998,56.848 a 25.042,25.042 0 0 0 25.042,25.042 l 25.042,0 a 25.042,25.042 0 0 0 -25.042,-25.042 l -25.042,0 z"
         style="fill:#c83737" />
      <path
         id="rect4933-31-1-8-4-7-6-6-0-9-2-8-0-8-9"
         d="m -491.12,81.89 -25.042,0 a 25.042,25.042 0 0 0 25.042,25.042 25.042,25.042 0 0 0 25.042,-25.042 l -25.042,0 z"
         style="fill:#ffcc00" />
      <path
         id="rect4933-3-6-4-2-6-9-2-7-6-0-6-1-5"
         d="m -491.12,56.848 0,25.042 0,25.042 a 25.042,25.042 0 0 0 25.04,-25.04 A 25.042,25.042 0 0 0 -491.12,56.85 Z"
         style="fill:#c83737" />
      <path
         id="rect4933-8-7-4-1-21-4-3-0-1-31-5-8-02"
         d="m -491.12,31.806 a 25.042,25.042 0 0 0 -25.042,25.042 l 25.042,0 0,-25.042 z m -25.042,25.042 a 25.042,25.042 0 0 0 25.042,25.042 l 0,-25.042 -25.042,0 z"
         style="fill:#00aa44" />
      <path
         id="rect4933-31-1-8-4-6-8-5-5-8-2-2-8-9"
         d="m -491.12,31.806 a 25.042,25.042 0 0 0 -25.042,25.042 l 25.042,0 25.042,0 a 25.042,25.042 0 0 0 -25.04,-25.042 l 0,-2.45e-4 z"
         style="fill:#ffcc00" />
      <path
         id="rect4933-31-1-8-4-75-4-3-7-6-8-3-2"
         d="m -466.07,56.848 a 25.042,25.042 0 0 0 -25.042,-25.042 l 0,25.042 25.0420000000001,0 z"
         style="fill:#ffcc00" />
      <path
         id="rect4933-8-7-4-1-18-1-96-4-1-8-7-2"
         d="m -491.12,31.806 a 25.042,25.042 0 0 0 -25.042,25.042 l 25.042,0 0,-25.042 z"
         style="fill:#00aa44" />
      <path
         id="rect4933-5-8-1-4-6-33-4-0-1-9-9"
         d="m -516.1599999999998,56.848 a 25.042,25.042 0 0 0 25.042,25.042 l 0,-25.042 -25.042,0 z"
         style="fill:#0066ff" />
      <path
         id="rect4933-3-6-4-2-9-4-8-0-5-6-0-2"
         d="m -466.07,81.89 a 25.042,25.042 0 0 0 -25.042,-25.042 l 0,25.042 25.0420000000001,0 z"
         style="fill:#c83737" />
      <path
         id="rect4933-8-7-4-1-1-3-8-8-5-1-1-8-2"
         d="m -491.12,106.93 a 25.042,25.042 0 0 0 25.042,-25.042 l -25.042,0 0,25.042 z"
         style="fill:#00aa44" />
    </g>
    <path
       style="fill:#ffffff"
       d="M 58.02265100000001,66.063674 54.501106,66.632023 l 0,17.36341999999999 c 0.314999,0.0945 0.678397,0.18869500000001 1.087899,0.28319600000002 0.40950200000001,0.07875 0.834401,0.14989 1.275394,0.21288599999998 0.456753,0.063 0.914346,0.11108000000002 1.3711,0.14257700000002 0.472513,0.04725 0.920456,0.07032 1.34571800000001,0.07032 1.023757,0 1.937039,-0.14995999999998 2.74027,-0.449208 C 63.124746,83.940205 63.801534,83.49996000000001 64.352777,82.93295300000001 c 0.55125599999998,-0.56700600000001 0.97040699999998,-1.25142 1.25391499999999,-2.054608 0.29925400000002,-0.803259 0.447272,-1.70110400000002 0.447272,-2.69337900000001 0,-0.976517 -0.11726799999998,-1.85897800000001 -0.35352499999999,-2.646534 -0.236256,-0.803259 -0.582313,-1.48967100000002 -1.039067,-2.05656700000002 -0.456754,-0.56700599999999 -1.023937,-0.99955999999999 -1.701132,-1.29880899999999 -0.677265,-0.315009 -1.457813,-0.472645 -2.339912,-0.472645 -0.488259,0 -0.943908,0.04808 -1.369157,0.142577 -0.425248,0.0945 -0.834764,0.227135 -1.22852,0.400391 l 0,-6.189414 z m 124.67693899999999,0 -3.51958,0.568349 0,17.76614699999999 3.51958,0 0,-9.45108699999999 c 0.2205,-0.063 0.46467,-0.11680699999999 0.73243,-0.164055 0.28349,-0.063 0.58344,-0.0957 0.89845,-0.0957 0.7875,0 1.32393,0.23647600000001 1.60744,0.70898200000002 0.29927,0.47250500000001 0.44727,1.27611400000002 0.44727,2.41007100000002 l 0,6.59172299999997 3.52155,0 0,-7.01752299999997 c 0,-0.85051 -0.0865,-1.62139700000003 -0.25978,-2.31442400000003 -0.1575,-0.69301199999997 -0.44207,-1.290909 -0.85156,-1.794933 -0.39376,-0.50401099999998 -0.92824,-0.89044699999998 -1.60549,-1.15819099999999 -0.66149,-0.28350300000001 -1.49584,-0.42577199999998 -2.50394,-0.42577199999998 -0.3465,0 -0.7099,0.04041 -1.0879,0.11913799999998 -0.36227,0.063 -0.66219,0.13218900000001 -0.89844,0.21094200000003 l 0,-5.953092 z m 38.50443,0 c -1.77971,0 -3.12551,0.472939 -4.03906,1.417936 -0.89775,0.94500999999998 -1.34767,2.221571 -1.34767,3.82814599999999 l 0,13.08779900000002 3.52154,0 0,-9.49793300000002 4.34575,0 0,-2.92970099999998 -4.34575,0 0,-0.61327800000001 c 0,-0.33075399999998 0.0307,-0.63836399999998 0.0937,-0.92186799999999 0.0788,-0.283503 0.19799,-0.527657 0.35549,-0.73241899999999 0.17324,-0.204747 0.40009,-0.362398 0.68358,-0.472645 0.29926,-0.126003 0.66266,-0.189449 1.0879,-0.189449 0.31502,0 0.65339,0.04041 1.01564,0.11914299999999 0.37801,0.063 0.72409,0.16487999999998 1.03907,0.30663199999999 l 0.68556,-2.81056099999999 c -0.29925,-0.126003 -0.72415,-0.25290700000001 -1.2754,-0.37889900000002 -0.55125,-0.141751 -1.15884,-0.212886 -1.82041,-0.212886 z m 16.29675,0.23632199999999 c -0.567,0 -1.065,0.19034600000002 -1.49025,0.568364 C 235.60102,67.23060500000001 235.39722,67.734306 235.39722,68.380125 c 0,0.64576099999998 0.2038,1.15714199999998 0.6133,1.535118 0.42524,0.36225899999998 0.92323,0.542968 1.49025,0.542968 0.567,0 1.05341,-0.18070899999999 1.46285,-0.542968 0.42525,-0.37800400000002 0.63869,-0.88938500000002 0.63869,-1.535118 0,-0.645763 -0.21344,-1.14945 -0.63869,-1.51176500000001 -0.4095,-0.37800399999999 -0.8959,-0.568364 -1.46285,-0.568364 z M 132.19702,67.647636 c -0.92926,0 -1.76364,0.117262 -2.50394,0.35351900000001 -0.74026,0.220493 -1.36894,0.543486 -1.88865,0.96874099999999 -0.51976,0.42525500000001 -0.9216,0.94432599999999 -1.20511,1.558611 -0.28348,0.598511 -0.42577,1.27717699999998 -0.42577,2.033214 0,0.75600900000001 0.13461,1.40199399999999 0.40234,1.93742599999999 0.26775,0.51975500000002 0.6138,0.967692 1.03907,1.34569600000002 0.42525,0.36225899999999 0.90591,0.66987 1.44145,0.921869 0.53552,0.23625199999999 1.06998,0.447711 1.60548,0.636714 1.22851,0.40950999999998 2.09562,0.795946 2.5996,1.158191 0.50401,0.34649899999999 0.75587,0.788702 0.75587,1.32420299999998 0,0.251999 -0.0404,0.47884100000002 -0.11914,0.683588 -0.0788,0.20476200000002 -0.21909,0.38741500000002 -0.42384,0.54491300000001 -0.20475,0.141752 -0.48163,0.259017 -0.82814,0.35351899999999 -0.33074,0.07875 -0.75564,0.117182 -1.27541,0.117182 -1.0395,0 -1.92193,-0.101883 -2.64643,-0.30663099999998 C 128.01564,81.057883 127.41772,80.81373 126.92943,80.54597200000002 l -1.03907,2.92970099999999 c 0.22049,0.126003 0.48774,0.260598 0.80274,0.40235 0.33076,0.141751 0.71721,0.27438600000001 1.15822,0.400378 0.45675,0.126003 0.97585,0.229834 1.55864,0.30859 0.58276,0.0945 1.23644,0.140618 1.96094,0.140618 2.15771,0 3.77284,-0.417185 4.84386,-1.251936 1.07102,-0.85051 1.60549,-2.038667 1.60549,-3.56637400000001 0,-0.78751399999999 -0.10189,-1.45848799999999 -0.30664,-2.009721 -0.20475,-0.55126099999998 -0.52006,-1.02993399999998 -0.94532,-1.43947099999998 -0.40951,-0.40951 -0.92862,-0.76519600000002 -1.55864,-1.06444500000001 -0.63,-0.31500800000002 -1.3702,-0.630296 -2.22077,-0.94530399999999 -0.4095,-0.141752 -0.78827,-0.27438600000001 -1.13478,-0.400392 -0.33077,-0.14175200000001 -0.62874,-0.291712 -0.8965,-0.44920900000001 -0.25199,-0.17325699999999 -0.45003,-0.361643 -0.59179,-0.566406 -0.14175,-0.20476099999999 -0.2129,-0.45660499999998 -0.2129,-0.755854 0,-0.503996 0.19036,-0.87506499999999 0.56835,-1.11131799999998 0.39376,-0.251998 1.0301200000001,-0.37889900000002 1.91215,-0.37889900000002 0.78752,0 1.45656,0.09615 2.00779,0.28515400000002 0.5670100000001,0.17325599999998 1.08037,0.37702499999999 1.5371100000001,0.61327799999998 l 1.06252,-2.90620899999999 c -0.5197699999999,-0.28350399999999 -1.18115,-0.54303899999999 -1.98445,-0.779292 -0.80326,-0.236253 -1.7569200000001,-0.35351900000001 -2.85941,-0.35351900000001 z m 71.69785,0.37695600000001 c -0.55126,1.13401299999998 -1.0877,2.299042 -1.60745,3.496036 -0.50399,1.181264 -1.0231,2.43482299999999 -1.55863,3.75781000000001 -0.51977,1.323015 -1.0561899999999,2.732253 -1.60744,4.228497 -0.55125,1.496244 -1.1338,3.126591 -1.74812,4.89062 l 3.82822,0 C 201.37471,83.830549 201.56311,83.248034 201.76786,82.64946700000001 c 0.22051,-0.59849699999998 0.43195,-1.19639399999998 0.63672,-1.794933 l 6.379,0 0.61525,1.794933 c 0.2205,0.59851100000002 0.41659,1.18102600000002 0.58983,1.74808800000001 l 3.9454,0 c -0.61425,-1.76402899999999 -1.1968,-3.39437599999999 -1.74812,-4.89062 -0.55125,-1.496244 -1.09341,-2.90551000000001 -1.62897,-4.228497 -0.51976,-1.323015 -1.0408,-2.576476 -1.56059,-3.75781000000001 -0.51974,-1.197022 -1.04654,-2.36210699999999 -1.582,-3.496036 l -3.51958,0 z M 172.10684,68.307787 l -3.5195799999999,0.56834900000001 0,10.441266 c 0,0.803259 0.0711,1.53567799999999 0.2128899999999,2.19724100000001 0.15751,0.661507 0.4247400000001,1.22865400000001 0.80274,1.701103 0.37801,0.45676 0.88174,0.820137 1.51165,1.08788199999998 0.63002,0.25201200000001 1.42593,0.37695500000001 2.38676,0.37695500000001 0.7560200000001,0 1.39434,-0.06345 1.91411,-0.18945000000001 0.5197400000001,-0.12599899999998 0.99077,-0.275965 1.41599,-0.44920899999998 l -0.49609,-2.740223 C 176.00455,81.427704 175.63543,81.531535 175.22593,81.610291 c -0.39375,0.063 -0.78019,0.09375 -1.15822,0.09375 -0.7875,0 -1.31428,-0.22110799999999 -1.5819899999999,-0.66210799999999 -0.25202,-0.441001 -0.37892,-1.031206 -0.37892,-1.77144100000001 l 0,-4.37099099999999 4.2285699999999,0 0,-2.92970099999999 -4.2285699999999,0 0,-3.662021 z M 46.066483,71.639796 c -0.756007,0 -1.496269,0.14227 -2.22076999999999,0.42577300000001 C 43.136957,72.349072 42.508286,72.76625799999999 41.95705800000001,73.31750599999999 41.405801,73.86876599999999 40.955901,74.56084199999999 40.609395,75.39560600000001 c -0.330746,0.81900499999999 -0.496104,1.78025100000001 -0.496104,2.882857 0,0.913506 0.12691,1.76319100000001 0.378906,2.55074699999999 0.267748,0.78751300000002 0.669587,1.47387000000002 1.205084,2.05656500000002 0.551255,0.56700699999999 1.235693,1.014944 2.054642,1.345697 0.834764,0.330754 1.811464,0.49608099999999 2.92975000000001,0.49608099999999 0.441008,0 0.881274,-0.02305 1.32228199999999,-0.07031 0.441008,-0.04725 0.850524,-0.11069899999998 1.228521,-0.18944999999999 0.393757,-0.063 0.749449,-0.141822 1.064462,-0.23632299999998 0.315,-0.0945 0.566862,-0.188695 0.755868,-0.283196 l -0.472668,-2.85936400000003 c -0.393756,0.17325800000002 -0.90711599999999,0.323217 -1.537101,0.44920900000001 C 48.428784,81.648375 47.80009900000001,81.704132 47.154382,81.704132 c -1.008009,0 -1.811604,-0.21341700000001 -2.410111,-0.63865800000001 -0.598508,-0.42525500000002 -0.936888,-1.00009200000001 -1.015631,-1.72459600000002 l 7.984481,0 c 0.01573,-0.189002 0.03113,-0.40046199999999 0.04686,-0.63671499999998 0.01573,-0.251998 0.02542,-0.480783 0.02542,-0.685531 0,-2.09474100000001 -0.513361,-3.676984 -1.53710199999999,-4.747987 -1.02375500000001,-1.086763 -2.417663,-1.630906 -4.18172200000001,-1.630906 z m 28.054339,0 c -0.75600700000001,0 -1.496269,0.14227 -2.220771,0.42577300000001 -0.70875500000001,0.283503 -1.337441,0.70068899999998 -1.888654,1.25193699999998 -0.55125700000001,0.55126 -1.00115700000001,1.243336 -1.347662,2.07810000000002 -0.33076,0.81900499999999 -0.496104,1.78025100000001 -0.496104,2.882857 0,0.913506 0.12691,1.76319100000001 0.378906,2.55074699999999 0.267762,0.78751300000002 0.66958699999999,1.47387000000002 1.205082,2.05656500000002 0.551256,0.56700699999999 1.235694,1.014944 2.054643,1.345697 0.83475,0.330754 1.811464,0.49608099999999 2.92975,0.49608099999999 0.44100799999998,0 0.88127399999999,-0.02305 1.322282,-0.07031 0.441007,-0.04725 0.85052299999998,-0.11069899999998 1.22852,-0.18944999999999 0.393756,-0.063 0.74946300000001,-0.141822 1.064463,-0.23632299999998 0.31499999999998,-0.0945 0.566862,-0.188695 0.75586800000001,-0.283196 l -0.47265400000002,-2.85936400000004 c -0.393756,0.173258 -0.90711700000001,0.32321699999999 -1.53710100000001,0.44920900000001 C 76.48313699999998,81.648375 75.85445199999999,81.704132 75.20873499999999,81.704132 c -1.00800900000002,0 -1.81160400000002,-0.21341700000001 -2.410112,-0.63865800000001 -0.598507,-0.42525500000002 -0.93687300000001,-1.00009200000001 -1.01563,-1.72459600000002 l 7.984481,0 c 0.01573,-0.189002 0.03113,-0.40046199999999 0.04686,-0.63671499999998 0.01573,-0.251998 0.02542,-0.480783 0.02542,-0.685531 0,-2.09474100000001 -0.51336000000002,-3.676984 -1.537102,-4.747987 -1.02375600000001,-1.086763 -2.417663,-1.630906 -4.181721,-1.630906 z m 38.277908,0 c -0.4095,0 -0.81902,0.02305 -1.22851,0.07032 -0.39376,0.03152 -0.77058,0.07957 -1.13284,0.14257700000003 -0.36226,0.04725 -0.70063,0.11069999999999 -1.01563,0.18944899999997 -0.29927,0.06301 -0.55112,0.124499 -0.75587,0.18749200000002 l 0.44726,2.83587199999998 c 0.42525,-0.15749799999999 0.92898,-0.27672099999998 1.5118,-0.355463 C 110.8077,74.615543 111.39989,74.569423 111.99836,74.569423 c 0.89776,0 1.52648,0.180711 1.88866,0.542956 0.36225,0.362258 0.54492,0.842889 0.54492,1.441428 l 0,0.330068 c -0.2205,-0.063 -0.51276,-0.10912500000002 -0.87501,-0.14061800000002 -0.34651,-0.04725 -0.74835,-0.07227 -1.20509,-0.07227 -0.67726,0 -1.33094,0.07114 -1.96094,0.21288599999998 -0.63002,0.12600100000002 -1.1895,0.33941000000002 -1.67779,0.63867300000001 -0.48826,0.299249 -0.88044,0.70105299999999 -1.17969,1.205063 -0.2835,0.50401099999999 -0.42578,1.11727499999999 -0.42578,1.84177799999999 0,0.75600899999999 0.12496,1.39429 0.37694,1.91407400000001 0.252,0.51975599999999 0.6154,0.94461999999999 1.0879,1.27537299999999 0.4725,0.31500800000001 1.03201,0.54379400000001 1.67778,0.68553199999998 0.66152,0.14176600000002 1.39207,0.21288600000003 2.19532,0.21288600000003 1.27576,0 2.36397,-0.07882 3.26172,-0.236323 0.89778,-0.14175100000003 1.59766,-0.26865200000002 2.10163,-0.37889900000002 l 0,-7.322226 c 0,-0.77175399999999 -0.0865,-1.47345 -0.25977,-2.10355199999999 -0.17326,-0.63001599999998 -0.47125,-1.164441 -0.8965,-1.60545599999999 -0.4095,-0.441013 -0.9613,-0.781318 -1.65428,-1.017571 -0.69301,-0.23625200000002 -1.56017,-0.35350500000001 -2.59959,-0.35350500000001 z m 33.54858,0 c -0.88201,0 -1.70099,0.157652 -2.45709,0.47265999999999 -0.74027,0.314994 -1.38625,0.75524 -1.93746,1.32224600000002 C 141.01727,74.001709 140.5923700000001,74.68806499999999 140.27735,75.491268 c -0.29925,0.80326000000001 -0.4492199999999,1.69341200000001 -0.4492199999999,2.66988700000002 0,0.97651499999999 0.1499699999999,1.87435999999998 0.4492199999999,2.69337899999999 0.2992700000001,0.80325900000001 0.71647,1.49540500000002 1.2519800000001,2.07810000000002 0.5355,0.56700699999999 1.17186,1.00725300000001 1.9121399999999,1.322261 0.75601,0.314994 1.5923400000001,0.472645 2.5059,0.472645 0.92925,0 1.7636400000001,-0.157651 2.50395,-0.472645 0.7560200000001,-0.31500800000002 1.40201,-0.75525400000001 1.93759,-1.322261 0.5355000000001,-0.582751 0.9450400000001,-1.274841 1.22852,-2.07810000000002 0.2835100000001,-0.81901899999998 0.4238400000001,-1.71676599999999 0.4238400000001,-2.69337899999998 0,-0.976517 -0.14801,-1.866669 -0.44727,-2.669887 -0.29924,-0.803259 -0.71841,-1.489671 -1.25392,-2.05656600000002 -0.5355,-0.56700599999999 -1.17953,-1.00725199999998 -1.9354999999999,-1.32224599999999 -0.74026,-0.31500800000001 -1.55934,-0.47266000000002 -2.4571,-0.47266000000002 z m 102.44406,0 c -1.008,0 -1.90585,0.17301999999998 -2.69342,0.51953299999998 C 244.91043,72.50582799999999 244.23943,72.978768 243.68819,73.57726499999999 243.13694,74.16001599999998 242.71206,74.852107 242.41279,75.655365 c -0.2835,0.787514 -0.42383,1.631466 -0.42383,2.529352 0,0.92926499999999 0.11727,1.794374 0.35353,2.59759099999999 0.252,0.787514 0.63846,1.473871 1.1582,2.056566 0.5355,0.582753 1.21226,1.04605699999999 2.03128,1.39257000000001 0.81901,0.33075399999998 1.79567,0.496082 2.92975,0.496082 0.74027,0 1.41699,-0.0615 2.0313,-0.18749200000001 0.61425,-0.125998 1.12566,-0.275952 1.53513,-0.44920900000001 L 251.53205,81.207969 c -0.40949,0.17325599999999 -0.85745,0.29819999999998 -1.3457,0.376942 -0.48827,0.07876 -0.94587,0.11914299999998 -1.37112,0.11914299999998 -1.19701,0 -2.03911,-0.30761099999998 -2.52743,-0.92186699999999 -0.47251,-0.61425700000001 -0.70899,-1.47932400000002 -0.70899,-2.59759100000001 0,-1.05527199999999 0.25186,-1.906942 0.75587,-2.55270399999999 0.51976,-0.645763 1.30034,-0.96874200000002 2.3399,-0.96874200000002 0.48825,0 0.92852,0.04808 1.32228,0.14257700000002 0.39375,0.0945 0.75519,0.204076 1.08594,0.33006899999999 l 0.73244,-2.810562 c -0.51976,-0.220493 -1.05422,-0.385835 -1.60548,-0.496081 -0.55126,-0.12600399999999 -1.15687,-0.18944999999999 -1.81846,-0.18944999999999 z m 9.86531,0 c -0.4095,0 -0.81902,0.02305 -1.22852,0.07032 -0.39376,0.03152 -0.77253,0.07957 -1.13479,0.14257700000003 -0.36224,0.04725 -0.70062,0.11069999999999 -1.01561,0.18944899999997 -0.29926,0.06301 -0.55112,0.124499 -0.75587,0.18749200000002 l 0.44921,2.83587199999998 c 0.42524,-0.15749799999999 0.92897,-0.27672099999998 1.51179,-0.355463 C 256.66565,74.615543 257.2558800000001,74.569423 257.85436,74.569423 c 0.89777,0 1.5284300000001,0.180711 1.89061,0.542956 0.3622700000001,0.362258 0.5429700000001,0.842889 0.5429700000001,1.441428 l 0,0.330068 c -0.2205000000001,-0.063 -0.51079,-0.10912500000002 -0.87304,-0.14061800000002 -0.3465100000001,-0.04725 -0.74834,-0.07227 -1.20509,-0.07227 -0.67726,0 -1.33096,0.07114 -1.96096,0.21288599999998 -0.63001,0.12600100000002 -1.18949,0.33941000000002 -1.67777,0.63867300000001 -0.48826,0.299249 -0.8824,0.70105299999999 -1.18165,1.205063 -0.28351,0.50401099999999 -0.4258,1.11727499999999 -0.4258,1.84177799999999 0,0.75600899999999 0.12691,1.39429 0.37892,1.91407400000001 0.25201,0.51975599999999 0.61345,0.94461999999999 1.0859499999999,1.27537299999999 0.47251,0.31500800000001 1.0319800000001,0.54379400000001 1.6777700000001,0.68553199999998 0.66151,0.14176600000002 1.39404,0.21288600000003 2.1972799999999,0.21288600000003 1.27574,0 2.3620100000001,-0.07882 3.25977,-0.236323 0.89776,-0.14175100000003 1.5994600000001,-0.26865200000002 2.1035800000001,-0.37889900000002 l 0,-7.322226 c 0,-0.77175399999999 -0.0865,-1.47345 -0.25978,-2.10355199999999 -0.17324,-0.63001599999998 -0.4732,-1.164441 -0.89842,-1.60545599999999 -0.40952,-0.441013 -0.96132,-0.781318 -1.65429,-1.017571 -0.693,-0.23625200000002 -1.55822,-0.35350500000001 -2.59763,-0.35350500000001 z m -170.406823,0.04686 c -1.039501,0 -2.03156900000002,0.07883 -2.976596,0.23632200000003 -0.94501200000002,0.14175199999997 -1.717912,0.299404 -2.31642000000001,0.47265999999999 l 0,12.00183300000002 3.52154600000001,0 0,-9.59176100000002 c 0.22049699999999,-0.03152 0.47235999999999,-0.05457 0.75586699999999,-0.07031 0.283508,-0.03152 0.55074,-0.04882 0.80274199999999,-0.04882 0.81900399999999,0 1.37849599999998,0.23647599999997 1.677779,0.70898199999998 C 89.614028,75.86806799999999 89.76399,76.671677 89.76399,77.80563399999998 l 0,6.591723 3.519588,0 0,-7.01752399999998 c 0,-0.85051 -0.08651,-1.621397 -0.25976300000002,-2.31442300000002 -0.17326,-0.69301299999998 -0.465508,-1.29090999999998 -0.87500999999999,-1.794933 -0.409502,-0.50401099999999 -0.96703599999999,-0.89044799999999 -1.675821,-1.158191 -0.69301,-0.28350299999998 -1.56786500000001,-0.42577299999999 -2.623085,-0.42577299999999 z m 143.04048299999999,0.02345 c -1.05526,0 -2.01661,0.101885 -2.8829,0.30663199999998 -0.85051,0.189003 -1.59066,0.394729 -2.22078,0.615235 l 0,11.765512 3.52155,0 0,-9.49793299999999 c 0.1575,-0.04725 0.38632,-0.08569 0.68556,-0.11718900000001 0.315,-0.04725 0.58224,-0.07226 0.80274,-0.07226 0.48826,0 0.9439,0.04808 1.36916,0.14257700000002 0.42524,0.07875 0.79633,0.15757999999998 1.11133,0.236322 l 0.58985,-2.90620900000002 c -0.189,-0.07875 -0.41779,-0.14219899999999 -0.68556,-0.18944999999998 -0.26775,-0.063 -0.53499,-0.109121 -0.80274,-0.140618 -0.26774,-0.04725 -0.53497,-0.07994 -0.80273,-0.0957 -0.26775,-0.03151 -0.49654,-0.04686 -0.68556,-0.04686 z m -25.31629,0.02345 c 0.0945,0.23625199999999 0.22142,0.55924499999999 0.37891,0.96873999999998 0.1575,0.40951 0.33823,0.88244900000001 0.54298,1.41793700000001 0.22049,0.53551499999999 0.4493,1.12570700000001 0.68554,1.771441 0.23626,0.64576099999999 0.48045,1.324427 0.73245,2.033213 l -4.65438,0 c 0.252,-0.708758 0.49618,-1.38742400000001 0.73242,-2.033213 0.25202,-0.645762 0.48081,-1.23595400000001 0.68556,-1.771441 0.20476,-0.535516 0.38548,-1.008455 0.54298,-1.41793700000001 0.1575,-0.409509 0.27478,-0.73248799999999 0.35351,-0.96873999999998 z m -109.621964,0.236322 0,2.92970099999998 5.291054,0 c -0.42525,0.50399700000001 -0.88858,1.07114400000002 -1.39257499999999,1.701104 -0.50400500000001,0.61425700000001 -1.015422,1.252539 -1.535144,1.914074 -0.50400500000001,0.661507 -0.992362,1.32284700000001 -1.464805,1.98441100000001 -0.45675300000001,0.64576199999999 -0.85090100000001,1.251335 -1.181646,1.818286 l 0,2.08005799999998 10.2774,0 0,-2.92970099999998 -6.001988,0 c 0.45674799999999,-0.661507 0.96045799999999,-1.345906 1.511788,-2.054608 0.567,-0.708759 1.1265,-1.387424 1.67778,-2.033214 0.55126,-0.645762 1.06265,-1.235968 1.53514,-1.771441 0.48825,-0.53550199999999 0.8747,-0.960379 1.15821,-1.275373 l 0,-2.36322700000001 -9.87508800000002,0 z m 58.70407400000001,0 0,6.923834 c 0,0.85051 0.0865,1.62908899999999 0.25978,2.33791600000001 0.17324,0.708759 0.46549,1.32398000000001 0.87501,1.84373599999999 0.40949,0.50401000000001 0.95935,0.89618 1.65232,1.17968400000001 0.70877,0.28350299999998 1.59122,0.42577199999999 2.64658,0.42577199999999 1.0395,0 2.03157,-0.07882 2.9766,-0.23632300000001 0.94501,-0.141751 1.71791,-0.299402 2.31641,-0.472645 l 0,-12.00183399999999 -3.52154,0 0,9.591763 c -0.2205,0.03152 -0.47236,0.0642 -0.75587,0.0957 -0.28349,0.01573 -0.55073,0.02345 -0.80272,0.02345 -0.81901,0 -1.37849,-0.25184400000001 -1.67778,-0.755855 -0.29926,-0.503995 -0.44922,-1.32298600000001 -0.44922,-2.457055 l 0,-6.49803400000002 -3.51959,0 z m 81.09776,0 0,12.427634 3.52154,0 0,-12.427634 -3.52154,0 z m -189.620587,2.572985 c 0.40950200000001,0 0.74788199999999,0.07114 1.01563,0.21288699999999 0.28350799999999,0.141751 0.510354,0.322461 0.68359900000001,0.54295399999999 0.18900599999999,0.220508 0.323601,0.47235199999999 0.402343,0.755855 0.0945,0.28350399999999 0.150256,0.575733 0.166016,0.874995 l -4.65437500000001,0 c 0.04725,-0.299262 0.118392,-0.591491 0.21289000000001,-0.874995 0.110252,-0.299249 0.26022499999999,-0.558784 0.449216,-0.779292 C 44.597658,75.05477499999999 44.832194,74.88174099999999 45.11568900000001,74.75574999999999 c 0.283507,-0.141752 0.62383100000001,-0.21288699999999 1.017588,-0.21288699999999 z m 28.05433899999999,0 c 0.409502,0 0.747882,0.07114 1.01563,0.21288699999999 0.28349399999999,0.141751 0.51034,0.322461 0.683599,0.54295399999999 0.18900600000001,0.220508 0.323599,0.47235199999999 0.402343,0.755855 0.0945,0.28350399999999 0.15027000000001,0.575733 0.166016,0.874995 l -4.654375,0 c 0.04725,-0.299262 0.118392,-0.591491 0.21288899999999,-0.874995 0.11025000000001,-0.299249 0.26022600000002,-0.558784 0.44921700000002,-0.779292 0.18900499999999,-0.22049199999999 0.423528,-0.39352599999999 0.70703499999999,-0.51951699999999 0.283495,-0.141752 0.62383300000002,-0.21288699999999 1.01759000000001,-0.21288699999999 z M 145.96522,74.66005299999999 c 0.80325,0 1.41656,0.315288 1.84181,0.945305 0.44101,0.61425699999999 0.66211,1.46589899999998 0.66211,2.55270400000001 0,1.08676199999999 -0.2211,1.951829 -0.66211,2.59759099999999 -0.42526,0.63000199999999 -1.03856,0.94530399999998 -1.84181,0.94530399999998 -0.80325,0 -1.4262,-0.31530199999999 -1.86725,-0.94530399999998 -0.44101,-0.645762 -0.66213,-1.51092700000001 -0.66213,-2.59759099999999 0,-1.086763 0.22112,-1.93840500000002 0.66213,-2.55270400000001 0.441,-0.630003 1.06394,-0.945305 1.86725,-0.945305 z m -85.989304,0.02345 c 1.669528,0 2.503943,1.13429300000003 2.503943,3.40234700000002 0,1.08676200000001 -0.244172,1.961478 -0.73243000000001,2.623041 C 61.25916899999999,81.370398 60.53434599999999,81.701068 59.57364299999998,81.701068 c -0.314999,0 -0.607261,-0.0077 -0.87500899999999,-0.02345 -0.26774900000001,-0.03152 -0.486917,-0.0642 -0.660163,-0.0957 l 0,-6.40224600000001 c 0.22051200000001,-0.14175200000003 0.503111,-0.25901800000003 0.849616,-0.35351900000001 0.36225,-0.0945 0.725648,-0.14257700000003 1.087899,-0.14257700000003 z M 113.03053,79.03114099999999 c 0.23626,0 0.49581,0.01539 0.77931,0.04686 0.28351,0.03152 0.49694,0.06421 0.63867,0.0957 l 0,2.66988700000003 c -0.18901,0.03152 -0.44282,0.05456 -0.75782,0.07031 -0.31498,0.01573 -0.64569,0.02345 -0.99219,0.02345 -0.64576,0 -1.15717,-0.10189000000003 -1.53514,-0.30663199999999 C 110.80109,81.41020799999999 110.62038,81.023786 110.62038,80.472525 c 0,-0.28350399999999 0.0635,-0.51996600000001 0.18945,-0.708968 0.126,-0.18900200000003 0.29903,-0.33896300000002 0.51953,-0.44922300000003 C 111.54986,79.204085 111.80173,79.132939 112.08522,79.101448 c 0.29927,-0.04725 0.61456,-0.07032 0.94532,-0.07032 z m 145.85123,0 c 0.23624,0 0.49775,0.01539 0.78125,0.04686 0.28352,0.03152 0.49498,0.06421 0.63673,0.0957 l 0,2.66988700000003 c -0.189,0.03152 -0.44086,0.05456 -0.75587,0.07031 -0.3150000000001,0.01573 -0.64569,0.02345 -0.99218,0.02345 -0.64576,0 -1.1571700000002,-0.10189000000003 -1.5351400000002,-0.30663199999999 -0.3622599999998,-0.22050800000002 -0.54298,-0.60693000000001 -0.54298,-1.158191 0,-0.28350399999999 0.0615,-0.51996600000001 0.1875,-0.708968 0.12599,-0.18900200000003 0.3009700000002,-0.33896300000002 0.52148,-0.44922300000003 0.2205000000001,-0.11024899999997 0.47236,-0.18139499999998 0.75586,-0.21288599999997 0.29927,-0.04725 0.61262,-0.07032 0.94337,-0.07032 z"
       id="path4177" />
    <path
       style="font-weight:bold;font-size:medium;line-height:125%;font-family:Ubuntu;letter-spacing:0px;word-spacing:0px;fill:#ffffff"
       d="m 116.5507103411304,87.93641170906606 -1.4454542857878,0.23433527152926 0,7.28527477823701 1.4454542857878,0 0,-3.87697266064778 c 0.090428131486,-0.025836438475 0.1894939348268,-0.0479070560382 0.2992995230603,-0.0672843848945 0.1162647404822,-0.0258364384751 0.2397210183264,-0.0371224192521 0.368904063307,-0.0371224192521 0.3229576124511,7e-14 0.5426582405187,0.0962456118447 0.6589229810012,0.29001890040755 0.1227238927315,0.1937732885628 0.1832919559827,0.52332852003801 0.1832919559827,0.9883844125888 l 0,2.70297615179815 1.4431341344461,0 0,-2.87698749204263 c 0,-0.34879191941323 -0.035676286972,-0.66706117011114 -0.1067269617112,-0.9512619933367 -0.064591522491,-0.28420082322549 -0.1800847427582,-0.52879642363315 -0.3480227012329,-0.73548793143345 -0.1614788062256,-0.20669150780039 -0.3811794342932,-0.36582613314945 -0.6589229810013,-0.47563099666839 -0.271284394459,-0.11626397313772 -0.6144413003705,-0.17401134024452 -1.027827044308,-0.17401134024452 -0.1421013494788,9e-14 -0.2904494036017,0.0164276271747 -0.4454690575783,0.0487231752685 -0.1485605017279,0.0258364384751 -0.2696966282299,0.05587019763 -0.3665839119654,0.0881657457238 l 0,-2.4431192170329 z m 22.3848201433066,0 -1.4431341344463,0.23433527152926 0,7.12054404280552 c 0.1291830449802,0.0387546577125 0.277531099104,0.0772529024506 0.4454690575783,0.11600756016297 0.1679379584742,0.0322955480937 0.3434979402189,0.0623293072488 0.524354203191,0.0881657457238 0.1873154152216,0.0258364384751 0.3741612094343,0.045085560844 0.5614766246559,0.0580037800815 0.1937745674708,0.0193773288563 0.3777989085661,0.0278418144391 0.5521960192898,0.0278418144391 0.4198448961867,6e-14 0.7935364846115,-0.0605688623011 1.1229532493117,-0.18329194505753 0.3294167647002,-0.12918219237525 0.6068640029017,-0.31038743528747 0.8329343316176,-0.54291538156286 0.2260703287159,-0.23252794627538 0.3988088573423,-0.51280029622657 0.515073597825,-0.84221488678351 0.1227238927313,-0.32941459055688 0.1832919559825,-0.69746806676973 0.1832919559825,-1.1043919727518 0,-0.40046479636293 -0.049282250782,-0.76287528218789 -0.1461695345177,-1.08583076312578 -0.096887283735,-0.32941459055678 -0.2372722802825,-0.60968694050803 -0.4245876955043,-0.84221488678344 -0.1873154152216,-0.2325279462753 -0.4206220070996,-0.41091169399347 -0.6983655538077,-0.53363477674985 -0.2777435467081,-0.12918219237527 -0.5988301294576,-0.19489270107384 -0.960542655403,-0.19489270107384 -0.2002337197196,-4e-14 -0.3870795139322,0.019249122369 -0.561476624656,0.0580037800815 -0.1743971107238,0.0387546577126 -0.3419940348912,0.093680529625 -0.503472841117,0.16473073543146 l 0,-2.53824541636662 z m 53.0850626947405,0 -1.4431341344463,0.23433527152926 0,2.30391014483736 c -0.1614788062256,-0.0710502058065 -0.3234328241588,-0.12597607771886 -0.4849116303846,-0.16473073543149 -0.1550196539765,-0.0387546577125 -0.3334010888375,-0.0580037800815 -0.5336348085573,-0.0580037800815 -0.3617125259455,0 -0.6833004104707,0.0628890135044 -0.9675031094277,0.18561209626084 -0.2777435467081,0.12272308275641 -0.5138715917032,0.29878667927123 -0.7076461591738,0.5313146255466 -0.1937745674703,0.23252794627517 -0.3421226215939,0.51794194262429 -0.4454690575782,0.8538156427997 -0.1033464359843,0.32941459055701 -0.1554501398841,0.70028956196413 -0.1554501398841,1.1136725775649 0,0.4069239059821 0.057746610134,0.77497738219495 0.1740113506165,1.10439197275184 0.1227238927315,0.32295548093811 0.298283874475,0.60040633569503 0.524354203191,0.83293428197044 0.2260703287159,0.22606883665668 0.5035175669173,0.40163108918034 0.8329343316176,0.52435417193679 0.3294167647003,0.12272308275647 0.7031083531252,0.18329194505758 1.1229532493117,0.18329194505758 0.1743971107237,1e-14 0.3555999987021,-0.008464485583 0.5429154139235,-0.0278418144391 0.1937745674708,-0.0129182192375 0.3806203616833,-0.0321673416065 0.5614766246562,-0.0580037800815 0.1873154152216,-0.025836438475 0.3656968500826,-0.0558701976302 0.5336348085571,-0.0881657457238 0.1679379584743,-0.0387546577125 0.3162860125981,-0.0772529024506 0.4454690575782,-0.11600756016297 l 0,-7.35487931433478 z m -62.4979166874224,0.0974463505369 c -0.2325294809651,0 -0.4358026921049,0.0769964894758 -0.6101998028285,0.23201512032607 -0.1679379584747,0.14855952123142 -0.2505763448879,0.35697702810455 -0.2505763448879,0.62180052247372 0,0.26482349436905 0.082638386413,0.47374234523329 0.2505763448879,0.62876097608348 0.1743971107235,0.14855952123149 0.3776703218634,0.22273451551297 0.6101998028285,0.22273451551297 0.232529480965,-3e-14 0.4329812389878,-0.0741749942815 0.6009191974624,-0.22273451551297 0.1743971107237,-0.15501863085025 0.2621771015955,-0.36393748171426 0.2621771015955,-0.62876097608348 0,-0.26482349436917 -0.087779990871,-0.47324100124221 -0.2621771015955,-0.62180052247372 -0.1679379584747,-0.15501863085034 -0.3683897164974,-0.23201512032607 -0.6009191974624,-0.23201512032607 z m 49.2962555539839,0 c -0.2325294809652,0 -0.435802692105,0.0769964894758 -0.6101998028286,0.23201512032607 -0.1679379584747,0.14855952123136 -0.2528964962293,0.35697702810455 -0.2528964962293,0.62180052247372 0,0.26482349436905 0.084958537755,0.4737423452333 0.2528964962293,0.62876097608348 0.1743971107236,0.14855952123149 0.3776703218636,0.22273451551297 0.6101998028286,0.22273451551297 0.2325294809648,-3e-14 0.4329812389875,-0.0741749942815 0.6009191974623,-0.22273451551297 0.1743971107236,-0.15501863085035 0.259856950254,-0.36393748171423 0.259856950254,-0.62876097608348 0,-0.26482349436927 -0.08545983953,-0.47324100124213 -0.259856950254,-0.62180052247372 -0.1679379584748,-0.15501863085034 -0.3683897164974,-0.23201512032607 -0.6009191974623,-0.23201512032607 z m -83.91523372130141,0.55219598637595 c -0.46505896192983,-6e-14 -0.9044602180646,0.0769964894758 -1.3178459620022,0.23201512032601 -0.40692659168863,0.15501863085035 -0.7613693100689,0.38550675528647 -1.06494946577301,0.6890849073683 -0.30358015570418,0.29711904246288 -0.54252965381639,0.66235102348188 -0.71692676454002,1.09511136793878 -0.17439711072369,0.43276034445701 -0.26217710159547,0.92991468686408 -0.26217710159547,1.4918572236963 0,0.55548342721356 0.076995480179,1.04981627442615 0.23201513415529,1.48257661888329 0.16147880622562,0.43276034445698 0.38914249186898,0.79799232547576 0.67980434307509,1.09511136793878 0.29066185120593,0.2971190424629 0.63946166335201,0.52246552050177 1.04638825504063,0.67748415135199 0.41338574393748,0.15501863085021 0.87203587011727,0.23201512032597 1.37584974554107,0.23201512032597 0.5877828546613,0 1.07978911647153,-0.0413197399321 1.480256555911,-0.12528816497604 0.40046743943951,-0.0775093154251 0.69152064145163,-0.15168430970665 0.872376904424,-0.22273451551297 l 0,-3.32477667427183 -1.51041852335109,0 0,2.336392261683 c -0.090428131486,0.0193773288562 -0.19745699240282,0.0329834608365 -0.32018088513442,0.0394425704554 -0.11626474048218,0.006459109619 -0.25896988837117,0.009280604813 -0.42690784684588,0.009280604813 -0.31003930795302,3e-14 -0.5795234885788,-0.0521043767183 -0.8120529695436,-0.15545013061843 -0.232529480965,-0.10980486351889 -0.42733833275329,-0.2609763472761 -0.5823579867299,-0.45474963583901 -0.15501965397681,-0.19377328856281 -0.2705128742449,-0.4242614129991 -0.34802270123301,-0.68908490736827 -0.077509826989,-0.27128260398797 -0.116007567078,-0.57080407630812 -0.116007567078,-0.90021866686493 0,-0.67820650996981 0.15399096035739,-1.21103760192065 0.46403026831058,-1.59858417904627 0.31649846020231,-0.39400568674442 0.82725229028152,-0.59163855683134 1.5312998854253,-0.59163855683134 0.31649846020211,-3e-14 0.60755166221402,0.0413197399322 0.872376904424,0.12528816497604 0.2712843944592,0.0775093154252 0.51023389257088,0.1709334320755 0.71692676453999,0.28073829559446 l 0.43618845221201,-1.21111892810181 c -0.051673217993,-0.0322955480938 -0.1394532088639,-0.0764367832202 -0.26217710159548,-0.13456876978907 -0.11626474048219,-0.0581319865687 -0.2674342477227,-0.11305785848137 -0.45474966294449,-0.16473073543149 -0.1808562629728,-0.0581319865689 -0.40055689104001,-0.10741486809283 -0.65892298100111,-0.14616952580539 -0.25190693771188,-0.0452137673313 -0.53731723348949,-0.0672843848946 -0.8538156936917,-0.0672843848946 z m 115.66882498180034,0.15545013061843 0,1.73315294883534 c 0,0.52318787911965 0.019248870045,1.01187773594395 0.058003783538,1.46401540925716 0.045214065744,0.45213767331322 0.1001392227602,0.91079377098261 0.1647307452503,1.3758496635333 l 1.1043920385793,0 c 0.064591522491,-0.46505589255159 0.1166952263904,-0.92371199021926 0.1554501398841,-1.3758496635333 0.038754913495,-0.45213767331319 0.058003783538,-0.94082753013751 0.058003783538,-1.46401540925716 l 0,-1.73315294883534 -1.5405804907914,0 z m -104.9891683566304,0.11600756016307 -1.4454542857876,0.23201512032603 0,4.28299912121828 c 0,0.32941459055691 0.030033380737,0.62893606287689 0.088165750979,0.90021866686497 0.064591522491,0.27128260398783 0.1744418365238,0.50459222361846 0.3294614905005,0.69836551218127 0.1550196539767,0.18731417894412 0.3611143182337,0.33566416750705 0.6194804081948,0.44546903102598 0.2583660899611,0.10334575390023 0.5850955789449,0.15545013061846 0.9791038661356,0.15545013061846 0.310039307953,-9.9e-14 0.5710591292271,-0.0248921127574 0.784211153445,-0.0765649897076 0.2131520242178,-0.0516728769501 0.4079608760063,-0.11456189045458 0.5823579867299,-0.18561209626081 l -0.2041733180566,-1.12295318237794 c -0.1356421972295,0.0516728769501 -0.2868117044698,0.0929926168822 -0.4547496629445,0.12528816497607 -0.1614788062257,0.0258364384751 -0.3206113710415,0.0394425704554 -0.4756310250184,0.0394425704554 -0.3229576124512,0 -0.5398367874015,-0.0906026214561 -0.6496423756349,-0.27145769078146 -0.1033464359843,-0.18085506932529 -0.1531299885426,-0.42262917453867 -0.1531299885426,-0.7262073266204 l 0,-1.79347688012018 1.7331530521404,0 0,-1.20183832328874 -1.7331530521404,0 0,-1.50113782850933 z m 6.6217119287933,0 -1.4431341344461,0.23201512032603 0,4.28299912121828 c 0,0.32941459055691 0.030033380737,0.62893606287689 0.088165750979,0.90021866686497 0.064591522491,0.27128260398783 0.1744418365239,0.50459222361846 0.3294614905005,0.69836551218127 0.1550196539766,0.18731417894415 0.3611143182336,0.33566416750706 0.6194804081947,0.44546903102598 0.2583660899609,0.10334575390023 0.585095578945,0.15545013061846 0.9791038661356,0.15545013061846 0.3100393079532,-9.9e-14 0.571059129227,-0.0248921127574 0.784211153445,-0.0765649897076 0.2131520242177,-0.0516728769501 0.4056407246649,-0.11456189045458 0.5800378353883,-0.18561209626081 l -0.201853166715,-1.12295318237794 c -0.1356421972296,0.0516728769501 -0.2891318558114,0.0929926168822 -0.457069814286,0.12528816497607 -0.1614788062261,0.0258364384751 -0.3182912197001,0.0394425704554 -0.4733108736769,0.0394425704554 -0.322957612451,0 -0.5398367874014,-0.0906026214561 -0.649642375635,-0.27145769078146 -0.1033464359843,-0.18085506932536 -0.155450139884,-0.42262917453856 -0.155450139884,-0.7262073266204 l 0,-1.79347688012018 1.7354732034819,0 0,-1.20183832328874 -1.7354732034819,0 0,-1.50113782850933 z m 60.6696374302784,0 -1.4454542857876,0.23201512032603 0,4.28299912121828 c 0,0.32941459055638 0.030033380737,0.62893606287744 0.088165750979,0.90021866686497 0.064591522491,0.27128260398776 0.1744418365241,0.50459222361856 0.3294614905006,0.69836551218127 0.1550196539766,0.18731417894415 0.3611143182338,0.33566416750706 0.6194804081947,0.44546903102598 0.258366089961,0.10334575390023 0.5850955789452,0.15545013061846 0.9791038661355,0.15545013061846 0.3100393079534,-9.9e-14 0.5710591292272,-0.0248921127574 0.7842111534451,-0.0765649897076 0.2131520242177,-0.0516728769501 0.4079608760064,-0.11456189045458 0.58235798673,-0.18561209626081 l -0.2041733180566,-1.12295318237794 c -0.1356421972295,0.0516728769501 -0.2868117044701,0.0929926168822 -0.4547496629445,0.12528816497607 -0.161478806226,0.0258364384751 -0.3206113710418,0.0394425704554 -0.4756310250184,0.0394425704554 -0.3229576124513,0 -0.5398367874015,-0.0906026214561 -0.649642375635,-0.27145769078146 -0.1033464359843,-0.18085506932529 -0.1531299885426,-0.42262917453867 -0.1531299885426,-0.7262073266204 l 0,-1.79347688012018 1.7331530521405,0 0,-1.20183832328874 -1.7331530521405,0 0,-1.50113782850933 z m 9.4221345980482,0 -1.4431341344461,0.23201512032603 0,4.28299912121828 c 0,0.32941459055682 0.030033380737,0.628936062877 0.088165750979,0.90021866686497 0.064591522491,0.27128260398783 0.1744418365239,0.50459222361846 0.3294614905005,0.69836551218127 0.1550196539767,0.18731417894412 0.361114318234,0.33566416750706 0.6194804081948,0.44546903102598 0.2583660899611,0.10334575390023 0.585095578945,0.15545013061846 0.9791038661355,0.15545013061846 0.3100393079531,-9.9e-14 0.5710591292272,-0.0248921127574 0.7842111534451,-0.0765649897076 0.2131520242179,-0.0516728769501 0.4056407246647,-0.11456189045458 0.5800378353884,-0.18561209626081 l -0.2018531667151,-1.12295318237794 c -0.1356421972296,0.0516728769501 -0.2891318558113,0.0929926168822 -0.4570698142861,0.12528816497607 -0.1614788062256,0.0258364384751 -0.3182912197,0.0394425704554 -0.4733108736768,0.0394425704554 -0.3229576124513,0 -0.5398367874015,-0.0906026214561 -0.6496423756349,-0.27145769078146 -0.1033464359843,-0.18085506932529 -0.1554501398842,-0.42262917453867 -0.1554501398842,-0.7262073266204 l 0,-1.79347688012018 1.735473203482,0 0,-1.20183832328874 -1.735473203482,0 0,-1.50113782850933 z m -81.5672405636494,1.36656905872023 c -0.3100393079531,3e-14 -0.6146984737755,0.0577473671068 -0.91181947723045,0.17401134024452 -0.29066185120611,0.11626397313762 -0.54886021936288,0.28668457926385 -0.7749305480788,0.5127534159205 -0.22607032871592,0.22606883665658 -0.41009466981109,0.51148283300536 -0.55219601928971,0.85381564279973 -0.1356421972296,0.33587370017564 -0.20417331805669,0.72881928914616 -0.20417331805669,1.18095696245945 0,0.37462835788804 0.0521037039,0.7234327117324 0.15545013988401,1.04638819267032 0.1098055882332,0.32295548093799 0.27458105928409,0.60554798209263 0.4941922357509,0.84453503798673 0.22607032871578,0.23252794627534 0.50633902003469,0.41655468438201 0.84221493698388,0.55219598637592 0.34233506919827,0.135641301994 0.74323858524386,0.20185315468362 1.20183839492456,0.20185315468362 0.1808562629728,6e-14 0.3620591509508,-0.008464485583 0.5429154139235,-0.0278418144391 0.180856262973,-0.0193773288565 0.3484531871404,-0.0465895928171 0.503472841117,-0.0788851409109 0.1614788062261,-0.0258364384751 0.3070054072313,-0.056371541621 0.4361884522122,-0.0951261993337 0.1291830449805,-0.0387546577126 0.23339045278,-0.0772529024506 0.3109002797681,-0.11600756016306 l -0.1948927126905,-1.17399650884965 c -0.1614788062256,0.0710502058063 -0.3703949235999,0.13393921931062 -0.628761013561,0.18561209626084 -0.2519069377119,0.0452137673313 -0.5101053058689,0.0672843848945 -0.7749305480788,0.0672843848945 -0.4133857439376,-4e-14 -0.7429366860388,-0.0877811262618 -0.9883844715017,-0.26217708596843 -0.24544778546256,-0.17439595970653 -0.38533148023409,-0.41052707453136 -0.41762724147947,-0.70764611699434 l 3.27605369427326,0 c 0.00645915225,-0.0775093154252 0.012102058481,-0.16529044168688 0.018561210732,-0.26217708596839 0.00645915225,-0.10334575390061 0.00928060537,-0.19676987055027 0.00928060537,-0.28073829559453 0,-0.85906157929523 -0.2089161173743,-1.5073874054595 -0.628761013561,-1.94660685953528 -0.4198448961867,-0.44567856369446 -0.9911667895171,-0.66820354653892 -1.7145918414079,-0.66820354653892 z m 22.2896939383029,0 c -0.3100393079529,3e-14 -0.6123783224339,0.0577473671068 -0.9094993258889,0.17401134024452 -0.2906618512063,0.11626397313762 -0.548860219363,0.28668457926385 -0.7749305480787,0.5127534159205 -0.2260703287159,0.22606883665658 -0.4100946698112,0.51148283300542 -0.5521960192898,0.85381564279973 -0.1356421972296,0.33587370017564 -0.2041733180566,0.72881928914616 -0.2041733180566,1.18095696245945 0,0.37462835788804 0.0521037039,0.72343271173233 0.155450139884,1.04638819267032 0.1098055882332,0.32295548093792 0.2745810592841,0.6055479820927 0.4941922357509,0.84453503798673 0.2260703287158,0.23252794627534 0.5063390200347,0.41655468438201 0.8422149369838,0.55219598637592 0.3423350691983,0.135641301994 0.7432385852438,0.20185315468362 1.2018383949247,0.20185315468362 0.1808562629728,6e-14 0.3620591509508,-0.008464485583 0.5429154139235,-0.0278418144391 0.1808562629729,-0.0193773288565 0.34845318714,-0.046589592817 0.503472841117,-0.0788851409109 0.161478806226,-0.0258364384751 0.3070054072313,-0.056371541621 0.436188452212,-0.0951261993337 0.1291830449807,-0.0387546577126 0.2310703014386,-0.0772529024506 0.3085801284266,-0.11600756016306 l -0.1925725613489,-1.17399650884965 c -0.1614788062256,0.0710502058063 -0.3703949235998,0.13393921931062 -0.6287610135609,0.18561209626084 -0.2519069377117,0.0452137673313 -0.5124254572104,0.0672843848945 -0.7772506994203,0.0672843848945 -0.4133857439378,-4e-14 -0.7406165346972,-0.0877811262618 -0.9860643201603,-0.26217708596843 -0.2454477854623,-0.1743959597066 -0.385331480234,-0.41052707453136 -0.4176272414796,-0.70764611699434 l 3.2737335429318,0 c 0.00645915225,-0.0775093154252 0.014422209822,-0.16529044168688 0.020881362074,-0.26217708596839 0.00645915225,-0.10334575390023 0.00928060537,-0.19676987055061 0.00928060537,-0.28073829559453 0,-0.8590615792952 -0.211236268716,-1.50738740545957 -0.6310811649024,-1.94660685953528 -0.4198448961866,-0.44567856369446 -0.9911667895173,-0.66820354653892 -1.714591841408,-0.66820354653892 z m 10.8559881271282,0 c -0.3617125259455,6e-14 -0.6992265256225,0.0633903574954 -1.0092658335758,0.19257254987062 -0.3035801557041,0.12918219237514 -0.5674214300954,0.31038743528748 -0.793491758811,0.54291538156285 -0.2196111764672,0.23252794627541 -0.3951711582106,0.51512044742984 -0.5243542031912,0.84453503798673 -0.1227238927315,0.32941459055694 -0.1832919559827,0.69232642037231 -0.1832919559827,1.09279121673555 0,0.40046479636325 0.060568063251,0.76851827257613 0.1832919559827,1.10439197275184 0.1227238927316,0.32941459055661 0.2954624213582,0.61482858690573 0.5150735978249,0.85381564279973 0.2196111764667,0.23252794627534 0.480630997741,0.41373318918771 0.784211153445,0.54291538156288 0.3100393079533,0.12918219237524 0.6531962138646,0.19257254987059 1.0278270443082,0.19257254987059 0.3810899826923,-3e-14 0.7219267372624,-0.0633903574954 1.0255068929666,-0.19257254987059 0.3100393079532,-0.12918219237507 0.5762007336858,-0.31038743528751 0.7958119101527,-0.54291538156288 0.2196111764669,-0.2389870558941 0.3872081006346,-0.52440105224302 0.5034728411171,-0.85381564279973 0.1162647404822,-0.33587370017541 0.1740113506166,-0.70392717638883 0.1740113506166,-1.10439197275184 0,-0.40046479636304 -0.060568063251,-0.76337662617887 -0.1832919559829,-1.09279121673555 -0.1227238927313,-0.32941459055671 -0.295462421358,-0.61200709171143 -0.5150735978248,-0.84453503798673 -0.2196111764669,-0.23252794627541 -0.4834524508578,-0.41373318918761 -0.7934917588112,-0.54291538156285 -0.3035801557041,-0.12918219237524 -0.6387740040397,-0.19257254987062 -1.0069456822341,-0.19257254987062 z m 16.159854093919,0 c -0.3617125259455,6e-14 -0.696906374281,0.0633903574954 -1.0069456822341,0.19257254987062 -0.3035801557044,0.12918219237524 -0.569741581437,0.31038743528741 -0.7958119101528,0.54291538156285 -0.2196111764668,0.23252794627537 -0.3928510068691,0.51512044742988 -0.5220340518494,0.84453503798673 -0.1227238927317,0.32941459055671 -0.1856121073243,0.69232642037254 -0.1856121073243,1.09279121673555 0,0.40046479636301 0.062888214592,0.7685182725764 0.1856121073243,1.10439197275184 0.1227238927313,0.32941459055664 0.2931422700164,0.61482858690563 0.5127534464832,0.85381564279973 0.2196111764668,0.23252794627544 0.4806309977408,0.41373318918771 0.784211153445,0.54291538156288 0.3100393079532,0.12918219237524 0.6531962138647,0.19257254987059 1.0278270443082,0.19257254987059 0.3810899826922,-3e-14 0.7219267372623,-0.0633903574954 1.0255068929666,-0.19257254987059 0.3100393079531,-0.12918219237507 0.576200733686,-0.31038743528754 0.7958119101528,-0.54291538156288 0.2196111764668,-0.2389870558941 0.3872081006346,-0.52440105224302 0.503472841117,-0.85381564279973 0.1162647404821,-0.33587370017571 0.1740113506166,-0.70392717638859 0.1740113506166,-1.10439197275184 0,-0.40046479636318 -0.060568063251,-0.76337662617877 -0.1832919559829,-1.09279121673555 -0.1227238927316,-0.32941459055698 -0.2931422700162,-0.61200709171119 -0.5127534464832,-0.84453503798673 -0.2196111764668,-0.23252794627538 -0.4857726021994,-0.41373318918764 -0.7958119101528,-0.54291538156285 -0.303580155704,-0.12918219237524 -0.6387740040397,-0.19257254987062 -1.0069456822341,-0.19257254987062 z m 17.9834930483799,0 c -0.310039307953,3e-14 -0.6123783224338,0.0577473671068 -0.9094993258889,0.17401134024452 -0.2906618512059,0.11626397313762 -0.5488602193629,0.28668457926385 -0.7749305480787,0.5127534159205 -0.226070328716,0.22606883665658 -0.4100946698112,0.51148283300536 -0.5521960192898,0.85381564279973 -0.1356421972296,0.3358737001756 -0.2041733180566,0.72881928914619 -0.2041733180566,1.18095696245945 0,0.37462835788804 0.0521037039,0.72343271173233 0.1554501398841,1.04638819267032 0.1098055882332,0.32295548093809 0.274581059284,0.60554798209262 0.4941922357508,0.84453503798673 0.2260703287157,0.23252794627534 0.5063390200344,0.41655468438201 0.8422149369838,0.55219598637592 0.3423350691985,0.135641301994 0.7432385852438,0.20185315468362 1.2018383949247,0.20185315468362 0.1808562629727,6e-14 0.3620591509507,-0.008464485583 0.5429154139235,-0.0278418144391 0.1808562629728,-0.0193773288565 0.3484531871403,-0.0465895928171 0.503472841117,-0.0788851409109 0.1614788062259,-0.0258364384751 0.3070054072312,-0.056371541621 0.436188452212,-0.0951261993337 0.1291830449807,-0.0387546577126 0.2333904527801,-0.0772529024506 0.3109002797683,-0.11600756016306 l -0.1948927126904,-1.17399650884965 c -0.1614788062259,0.0710502058063 -0.3703949235999,0.13393921931062 -0.628761013561,0.18561209626084 -0.2519069377119,0.0452137673313 -0.5101053058688,0.0672843848945 -0.7749305480788,0.0672843848945 -0.4133857439378,-4e-14 -0.7429366860388,-0.0877811262618 -0.9883844715018,-0.26217708596843 -0.2454477854625,-0.1743959597066 -0.3853314802341,-0.41052707453136 -0.4176272414796,-0.70764611699434 l 3.2760536942732,0 c 0.00645915225,-0.0775093154306 0.012102058481,-0.16529044168146 0.018561210732,-0.26217708596839 0.00645915225,-0.10334575389953 0.00928060537,-0.19676987055135 0.00928060537,-0.28073829559453 0,-0.85906157929516 -0.2089161173743,-1.50738740545964 -0.6287610135611,-1.94660685953528 -0.4198448961864,-0.44567856369446 -0.9934869408586,-0.66820354653892 -1.7169119927493,-0.66820354653892 z m 27.6214017211926,0 c -0.3617125259455,6e-14 -0.6969063742809,0.0633903574954 -1.0069456822341,0.19257254987062 -0.3035801557042,0.12918219237521 -0.5697415814369,0.31038743528744 -0.7958119101528,0.54291538156285 -0.2196111764667,0.23252794627537 -0.3928510068689,0.51512044742988 -0.5220340518496,0.84453503798673 -0.1227238927311,0.32941459055671 -0.1856121073242,0.69232642037254 -0.1856121073242,1.09279121673555 0,0.40046479636301 0.062888214593,0.7685182725764 0.1856121073242,1.10439197275184 0.1227238927315,0.32941459055661 0.2931422700166,0.61482858690573 0.5127534464833,0.85381564279973 0.2196111764669,0.23252794627544 0.4806309977409,0.41373318918771 0.7842111534451,0.54291538156288 0.3100393079532,0.12918219237524 0.6531962138647,0.19257254987059 1.0278270443082,0.19257254987059 0.3810899826927,-3e-14 0.7242468886038,-0.0633903574954 1.0278270443081,-0.19257254987059 0.3100393079532,-0.12918219237521 0.5738805823443,-0.31038743528744 0.7934917588112,-0.54291538156288 0.2196111764668,-0.2389870558941 0.3872081006347,-0.52440105224302 0.5034728411171,-0.85381564279973 0.1162647404821,-0.33587370017571 0.1740113506164,-0.70392717638859 0.1740113506164,-1.10439197275184 0,-0.40046479636338 -0.060568063251,-0.7633766261785 -0.1832919559826,-1.09279121673555 -0.1227238927316,-0.32941459055678 -0.2931422700166,-0.61200709171132 -0.5127534464834,-0.84453503798673 -0.2196111764668,-0.23252794627537 -0.4857726021996,-0.41373318918765 -0.7958119101528,-0.54291538156285 -0.303580155704,-0.12918219237524 -0.6387740040397,-0.19257254987062 -1.006945682234,-0.19257254987062 z m 11.5311521675201,0 c -0.3100393079531,3e-14 -0.6123783224339,0.0577473671068 -0.909499325889,0.17401134024452 -0.290661851206,0.11626397313762 -0.5488602193628,0.28668457926388 -0.7749305480786,0.5127534159205 -0.2260703287159,0.22606883665658 -0.4100946698111,0.51148283300536 -0.5521960192898,0.85381564279973 -0.1356421972293,0.33587370017537 -0.2041733180566,0.72881928914643 -0.2041733180566,1.18095696245945 -1e-13,0.37462835788821 0.0521037039,0.72343271173217 0.1554501398841,1.04638819267032 0.1098055882332,0.32295548093792 0.274581059284,0.6055479820927 0.4941922357508,0.84453503798673 0.2260703287157,0.2325279462754 0.5063390200345,0.41655468438195 0.8422149369838,0.55219598637592 0.3423350691985,0.135641301994 0.7432385852438,0.20185315468362 1.2018383949246,0.20185315468362 0.1808562629727,6e-14 0.3620591509509,-0.008464485583 0.5429154139236,-0.0278418144391 0.1808562629728,-0.0193773288565 0.3484531871403,-0.0465895928171 0.503472841117,-0.0788851409109 0.161478806226,-0.0258364384751 0.3070054072312,-0.056371541621 0.436188452212,-0.0951261993337 0.1291830449806,-0.0387546577126 0.2310703014385,-0.0772529024506 0.3085801284267,-0.11600756016306 l -0.1925725613489,-1.17399650884965 c -0.1614788062258,0.0710502058063 -0.3703949235999,0.13393921931062 -0.628761013561,0.18561209626084 -0.2519069377119,0.0452137673313 -0.5124254572104,0.0672843848945 -0.7772506994205,0.0672843848945 -0.4133857439378,-4e-14 -0.7406165346971,-0.0877811262618 -0.9860643201602,-0.26217708596843 -0.2454477854626,-0.1743959597066 -0.3853314802342,-0.41052707453136 -0.4176272414796,-0.70764611699434 l 3.2737335429318,0 c 0.00645915225,-0.0775093154306 0.014422209822,-0.16529044168146 0.020881362074,-0.26217708596839 0.00645915225,-0.10334575389953 0.00928060537,-0.19676987055135 0.00928060537,-0.28073829559453 0,-0.85906157929516 -0.2112362687157,-1.50738740545964 -0.6310811649025,-1.94660685953528 -0.4198448961864,-0.44567856369446 -0.9911667895172,-0.66820354653892 -1.7145918414079,-0.66820354653892 z m -44.7487589245393,0.018561209626 c -0.4069265916887,-3e-14 -0.7721538207618,0.0628890135044 -1.0951114332132,0.18561209626084 -0.322957612451,0.11626397313769 -0.5975833975355,0.28386308406965 -0.8236537262515,0.50347281110744 -0.2196111764668,0.21960972703789 -0.3872081006345,0.4834544498145 -0.503472841117,0.79349171151499 -0.1162647404822,0.30357815208184 -0.1740113506165,0.64391802034298 -0.1740113506165,1.01854637823122 0,0.7492567157763 0.1868457942124,1.33187203324198 0.5614766246559,1.75171415846144 0.3746308304435,0.4133830156007 0.9130978899189,0.62180052247372 1.6171454850626,0.62180052247372 0.1937745674708,4e-14 0.3721560023316,-0.0164276271746 0.5336348085574,-0.0487231752685 0.1679379584747,-0.0387546577126 0.329891976408,-0.0936805296252 0.4849116303847,-0.16473073543142 l 0,0.18329194505752 c 0,0.28420082322539 -0.087779990871,0.51751044285591 -0.2621771015956,0.69836551218127 -0.1679379584746,0.18085506932543 -0.4589911604866,0.27145769078146 -0.8723769044241,0.27145769078146 -0.3164984602022,0 -0.5995886046381,-0.0272122639606 -0.85149554235,-0.0788851409109 -0.2454477854627,-0.0516728769501 -0.4815758304579,-0.12302637603726 -0.7076461591739,-0.2134539106999 l -0.2528964962292,1.21111892810181 c 0.2648252422099,0.0904275346626 0.5530569911047,0.16178103374975 0.8630962990578,0.21345391069994 0.3100393079533,0.0581319865689 0.6203413800097,0.0881657457239 0.9303806879629,0.0881657457239 0.8849038581163,-3e-14 1.536042684743,-0.20327586047556 1.9558875809295,-0.61019976645743 0.4263040484358,-0.40046479636318 0.6403617702687,-1.01825551938154 0.6403617702687,-1.85148066020166 l 0,-4.28299912121831 c -0.1291830449804,-0.0387546577125 -0.2775310991037,-0.0721112560529 -0.4454690575783,-0.10440680414673 -0.1614788062257,-0.0387546577126 -0.3318971835104,-0.0716099120618 -0.5127534464832,-0.0974463505369 -0.1808562629728,-0.0258364384751 -0.3648806040683,-0.0450855608441 -0.5521960192897,-0.0580037800815 -0.1808562629725,-0.0193773288563 -0.3592376978337,-0.0301619656423 -0.5336348085572,-0.0301619656423 z m 39.0063843541948,0 c -0.4263040484354,0 -0.8328504707157,0.0328552543494 -1.2203996056571,0.0974463505369 -0.3875491349417,0.0581319865689 -0.7058142645736,0.12152234406419 -0.9512620500368,0.19257254987062 l 0,4.92336085331809 1.4454542857877,0 0,-3.93497644072929 c 0.090428131486,-0.0129182192374 0.1923153879441,-0.0213827048202 0.3085801284266,-0.0278418144391 0.1162647404822,-0.0129182192374 0.2261150545161,-0.018561209626 0.3294614905006,-0.018561209626 0.3358759169494,0 0.5663610557098,0.0962456118447 0.6890849484414,0.29001890040753 0.1227238927313,0.19377328856281 0.1832919559826,0.52332852003812 0.1832919559826,0.9883844125888 l 0,2.70297615179814 1.4431341344463,0 0,-2.87698749204263 c 0,-0.34879191941303 -0.035676286973,-0.66706117011138 -0.1067269617112,-0.95126199333667 -0.07105067474,-0.28420082322545 -0.1893653481248,-0.52879642363321 -0.3573033065993,-0.73548793143347 -0.1679379584747,-0.2066915078004 -0.3984230972351,-0.36582613314941 -0.6890849484412,-0.47563099666834 -0.2842026989571,-0.11626397313772 -0.6414668704549,-0.17401134024455 -1.0742300711393,-0.17401134024455 z m -45.6837799151854,0.009280604813 c -0.4327632006849,0 -0.825703659154,0.0436398911355 -1.1809570328506,0.12760831617929 -0.3487942214472,0.0775093154251 -0.6534533872697,0.16014879528953 -0.9118194772304,0.25057632995214 l 0,4.82591450278117 1.4431341344461,0 0,-3.89553387027382 c 0.064591522491,-0.0193773288563 0.1603345709381,-0.035804956031 0.2830584636695,-0.0487231752685 0.1291830449805,-0.0193773288563 0.2367132076727,-0.0278418144391 0.327141339159,-0.0278418144391 0.2002337197197,-7e-14 0.3893996652738,0.019249122369 0.5637967759974,0.0580037800815 0.1743971107232,0.0322955480937 0.3255666179647,0.0651508024432 0.4547496629445,0.0974463505369 l 0.2412957395216,-1.19255771847577 c -0.077509826989,-0.0322955480939 -0.1709327240946,-0.0571876608513 -0.280738312328,-0.0765649897076 -0.1098055882332,-0.0258364384751 -0.2196559022669,-0.0474057120472 -0.3294614905005,-0.0603239312847 -0.1098055882334,-0.0193773288561 -0.219655902267,-0.0306633096331 -0.3294614905006,-0.0371224192522 -0.1098055882332,-0.0129182192375 -0.2032284853401,-0.0208813608294 -0.280738312328,-0.0208813608294 z m -26.9392772267758,0.10672695534998 0,4.87463767804964 c 0,0.25836438475028 -0.044140646324,0.4559972548375 -0.1345687778101,0.59163855683134 -0.090428131486,0.13564130199403 -0.2495606963027,0.20185315468365 -0.4756310250184,0.20185315468365 -0.1227238927319,-3e-14 -0.2217896960722,-0.005642990388 -0.2992995230604,-0.018561209626 -0.083968979238,-0.0129182192375 -0.1745704232264,-0.0349888368008 -0.2714577069617,-0.0672843848946 l -0.1948927126905,1.17167635764639 c 0.1550196539766,0.05167287695 0.3226165781445,0.0873496264937 0.503472841117,0.10672695535 0.1743971107236,0.0193773288563 0.3086378992611,0.0278418144391 0.3990660307471,0.0278418144391 0.6200786159065,-4e-14 1.0951561590136,-0.15963596934013 1.4245729237139,-0.48259145027808 0.3294167647002,-0.32295548093802 0.4918720844092,-0.82010982334529 0.4918720844092,-1.49185722369633 l 0,-4.91408024850504 -1.4431341344461,0 z m 49.2962555539838,0 0,5.09737219356261 1.4431341344463,0 0,-5.09737219356261 -1.4431341344463,0 z m -15.6703021608511,1.04638819267058 c 0.1291830449804,0 0.2418548121317,0.007963141592 0.3387420958668,0.0208813608294 0.096887283735,0.006459109619 0.1818458214901,0.0149235952016 0.2528964962293,0.0278418144391 l 0,2.30623029604068 c -0.090428131486,0.0516728769501 -0.20027844552,0.0981342632798 -0.3294614905006,0.13688892099236 -0.1291830449804,0.0387546577125 -0.269066739752,0.0580037800815 -0.4176272414796,0.0580037800815 -0.6523743771514,-6e-14 -0.9791038661356,-0.40373022575673 -0.9791038661356,-1.21111892810181 0,-0.38754657712562 0.095743048448,-0.70863732301804 0.2830584636696,-0.96054259814973 0.1873154152216,-0.25190527513166 0.4704055596576,-0.3781846461314 0.8514955423501,-0.3781846461314 z m -61.6835435665372,0.0116007560168 c 0.1679379584746,0 0.3055015019046,0.0277136079518 0.4153070901381,0.0858455945206 0.1162647404821,0.0581319865688 0.2120077889302,0.13230698085037 0.2830584636694,0.22273451551298 0.077509826987,0.0904275346626 0.1324349840048,0.19463628809932 0.1647307452504,0.31090026123687 0.038754913491,0.11626397313783 0.060825236654,0.2345802025454 0.067284388905,0.35730328530208 l -1.90948455409844,0 c 0.019377456748,-0.12272308275631 0.049410837485,-0.24103931216469 0.088165750979,-0.35730328530208 0.045214065744,-0.12272308275638 0.1057821289946,-0.22975333138726 0.18329195598274,-0.32018086604994 0.077509826988,-0.0904275346626 0.1737541772118,-0.16178103374972 0.2900189176941,-0.21345391069991 0.1162647404822,-0.0581319865688 0.2561484352541,-0.0858455945206 0.4176272414797,-0.0858455945206 z m 22.2920140896445,0 c 0.1679379584747,0 0.3055015019048,0.0277136079518 0.415307090138,0.0858455945206 0.1162647404822,0.0581319865688 0.2096876375887,0.13230698085037 0.280738312328,0.22273451551298 0.077509826988,0.0904275346627 0.1324349840047,0.19463628809919 0.1647307452502,0.31090026123687 0.038754913491,0.11626397313772 0.063145387995,0.23458020254563 0.069604540247,0.35730328530208 l -1.9094845540984,0 c 0.019377456747,-0.12272308275668 0.049410837484,-0.24103931216425 0.088165750979,-0.35730328530208 0.045214065744,-0.12272308275648 0.1057821289946,-0.22975333138716 0.1832919559827,-0.32018086604994 0.077509826989,-0.0904275346626 0.1737541772118,-0.16178103374975 0.2900189176942,-0.21345391069991 0.1162647404821,-0.0581319865688 0.2561484352539,-0.0858455945206 0.4176272414796,-0.0858455945206 z m 44.9993352694271,0 c 0.1679379584746,0 0.3055015019047,0.0277136079518 0.4153070901379,0.0858455945206 0.1162647404822,0.0581319865689 0.2096876375889,0.13230698085033 0.2807383123278,0.22273451551298 0.077509826987,0.0904275346626 0.132434984005,0.19463628809922 0.1647307452504,0.31090026123687 0.038754913491,0.11626397313783 0.063145387995,0.2345802025454 0.069604540247,0.35730328530208 l -1.9094845540984,0 c 0.019377456747,-0.12272308275675 0.049410837484,-0.24103931216415 0.088165750979,-0.35730328530208 0.045214065744,-0.12272308275648 0.1057821289947,-0.22975333138713 0.1832919559828,-0.32018086604994 0.077509826989,-0.0904275346625 0.1737541772119,-0.16178103374982 0.2900189176941,-0.21345391069991 0.1162647404822,-0.0581319865688 0.2561484352541,-0.0858455945206 0.4176272414797,-0.0858455945206 z m 39.1525538887126,0 c 0.1679379584747,0 0.3055015019047,0.0277136079518 0.4153070901379,0.0858455945206 0.1162647404822,0.0581319865689 0.2096876375888,0.13230698085033 0.2807383123279,0.22273451551298 0.077509826987,0.0904275346626 0.1324349840049,0.19463628809922 0.1647307452503,0.31090026123687 0.038754913491,0.11626397313783 0.063145387995,0.2345802025454 0.069604540247,0.35730328530208 l -1.9094845540984,0 c 0.019377456748,-0.12272308275651 0.049410837485,-0.24103931216435 0.088165750979,-0.35730328530208 0.045214065744,-0.12272308275648 0.1057821289946,-0.22975333138713 0.1832919559827,-0.32018086604994 0.077509826989,-0.0904275346625 0.1737541772118,-0.16178103374982 0.2900189176942,-0.21345391069991 0.1162647404822,-0.0581319865688 0.256148435254,-0.0858455945206 0.4176272414797,-0.0858455945206 z m -73.3167823930856,0.0464030240651 c 0.3294167647003,-4e-14 0.5796520752811,0.12910086619401 0.7540491860049,0.38746525094446 0.1808562629727,0.25190527513155 0.2714577069618,0.60070962897588 0.2714577069618,1.04638819267032 0,0.44567856369436 -0.090601443989,0.80244605913059 -0.2714577069618,1.06726955349973 -0.1743971107237,0.25836438475038 -0.4246324213045,0.38746525094443 -0.7540491860049,0.38746525094443 -0.3294167647003,-3e-14 -0.5847936797398,-0.12910086619405 -0.7656499427126,-0.38746525094443 -0.1808562629728,-0.26482349436927 -0.2714577069617,-0.6215909898051 -0.2714577069617,-1.06726955349973 0,-0.44567856369464 0.090601443989,-0.79448291753853 0.2714577069617,-1.04638819267032 0.1808562629726,-0.25836438475052 0.4362331780123,-0.38746525094446 0.7656499427126,-0.38746525094446 z m 16.1598540939191,0 c 0.3294167647004,-4e-14 0.5819722266226,0.12910086619401 0.7563693373464,0.38746525094446 0.1808562629727,0.25190527513155 0.2691375556202,0.60070962897588 0.2691375556202,1.04638819267032 0,0.44567856369436 -0.088281292648,0.80244605913059 -0.2691375556202,1.06726955349973 -0.1743971107238,0.25836438475038 -0.426952572646,0.38746525094443 -0.7563693373464,0.38746525094443 -0.3294167647003,-3e-14 -0.5847936797399,-0.12910086619405 -0.7656499427128,-0.38746525094443 -0.1808562629727,-0.26482349436927 -0.2714577069616,-0.6215909898051 -0.2714577069616,-1.06726955349973 0,-0.44567856369464 0.090601443989,-0.79448291753853 0.2714577069616,-1.04638819267032 0.1808562629728,-0.25836438475052 0.4362331780124,-0.38746525094446 0.7656499427128,-0.38746525094446 z m 45.6048947695725,0 c 0.3294167647002,-4e-14 0.5819722266226,0.12910086619401 0.7563693373464,0.38746525094446 0.1808562629727,0.25190527513172 0.2714577069618,0.60070962897578 0.2714577069618,1.04638819267032 -3e-13,0.44567856369453 -0.090601443989,0.80244605913049 -0.2714577069618,1.06726955349973 -0.1743971107236,0.25836438475038 -0.4269525726461,0.38746525094443 -0.7563693373464,0.38746525094443 -0.3294167647003,-3e-14 -0.5847936797399,-0.12910086619405 -0.7656499427126,-0.38746525094443 -0.1808562629729,-0.26482349436927 -0.2714577069618,-0.6215909898051 -0.2714577069618,-1.06726955349973 0,-0.44567856369464 0.090601443989,-0.79448291753853 0.2714577069618,-1.04638819267032 0.1808562629727,-0.25836438475052 0.4362331780123,-0.38746525094446 0.7656499427126,-0.38746525094446 z m -55.9086868774109,0.0116007560168 c 0.6846701383966,0 1.0255068929665,0.46429908805783 1.0255068929665,1.39441087315939 0,0.44567856369436 -0.09906580334,0.80294740312158 -0.2992995230604,1.07423000710946 -0.2002337197197,0.27128260398797 -0.496929827966,0.40834661177384 -0.8909381151565,0.40834661177384 -0.1291830449803,0 -0.2498178697073,-0.002821495195 -0.3596234579408,-0.009280604813 -0.1098055882332,-0.0129182192376 -0.2004070322229,-0.0265243512181 -0.2714577069616,-0.0394425704554 l 0,-2.62641116209056 c 0.090428131486,-0.0581319865688 0.2059213517545,-0.10509471688955 0.348022701233,-0.1438493746021 0.1485605017277,-0.0387546577125 0.2992287071922,-0.0580037800815 0.4477892089198,-0.0580037800815 z m 50.0526248913302,0 c 0.1485605017276,0 0.291766951392,0.019249122369 0.4338683008705,0.0580037800815 0.1485605017275,0.0387546577126 0.2691953264542,0.0857173880331 0.3596234579407,0.1438493746021 l 0,2.62641116209056 c -0.071050674738,0.0129182192376 -0.1616521187287,0.0265243512179 -0.2714577069617,0.0394425704554 -0.1098055882332,0.006459109619 -0.2281202616187,0.009280604813 -0.3573033065991,0.009280604813 -0.3940082871907,-3e-14 -0.6930245467784,-0.13706400778587 -0.8932582664981,-0.40834661177381 -0.2002337197198,-0.27128260398804 -0.2992995230603,-0.62855144341495 -0.2992995230603,-1.07423000710949 0,-0.93011178510152 0.3431569059114,-1.39441087315933 1.0278270443081,-1.39441087315933 z m 21.5542059630306,2.32479150566674 c -0.2325294809649,-4e-14 -0.4437657496808,0.0769964894758 -0.6310811649025,0.232015120326 -0.1808562629727,0.15501863085025 -0.2691375556202,0.3747221185004 -0.2691375556202,0.65892294172589 0,0.28420082322549 0.088281292648,0.50390431087571 0.2691375556202,0.6589229417259 0.1873154152217,0.15501863085024 0.3985516839375,0.23201512032604 0.6310811649025,0.23201512032604 0.2325294809648,3e-14 0.4386241452221,-0.0769964894758 0.6194804081948,-0.23201512032604 0.1873154152216,-0.15501863085029 0.2807383123278,-0.37472211850042 0.2807383123278,-0.6589229417259 0,-0.28420082322552 -0.093422897106,-0.50390431087564 -0.2807383123278,-0.65892294172589 -0.1808562629728,-0.15501863085026 -0.3869509272298,-0.232015120326 -0.6194804081948,-0.232015120326 z m -68.4282235164328,0.18329194505756 0,0.11600756016296 c 0.00645915225,0.0581319865684 0.00928060537,0.12102100007364 0.00928060537,0.18561209626084 0.00645915225,0.064591096188 0.011600756713,0.12798145368252 0.011600756713,0.19257254987059 0.00645915225,0.0581319865689 0.00928060537,0.10741486809283 0.00928060537,0.14616952580539 0,0.24544616551296 -0.030033380737,0.55575227461921 -0.088165750979,0.93038063250735 -0.058132370242,0.37462835788813 -0.1623397780406,0.77321693724731 -0.3109002797684,1.19951817208552 l 1.1345540060197,0.28305844679771 c 0.1227238927314,-0.20023239818127 0.2325742067652,-0.41147140024923 0.3294614905005,-0.63108112728678 0.096887283735,-0.21960972703786 0.1767042170316,-0.43931321468804 0.2412957395217,-0.65892294172589 0.064591522489,-0.21960972703789 0.1138737732726,-0.43649171949363 0.1461695345178,-0.64964233691282 0.038754913495,-0.21960972703792 0.058003783538,-0.42570708270766 0.058003783538,-0.61948037127048 0,-0.0452137673308 -0.00282145311,-0.10013963924432 -0.00928060537,-0.16473073543148 0,-0.0645910961877 -0.00564290624,-0.1744428400127 -0.018561210732,-0.32946147086295 l -1.5127386746928,0 z"
       id="path4149" />
  </g>
</svg>
