<?xml version="1.0" encoding="UTF-8" standalone="no"?>
<!-- Created with Inkscape (http://www.inkscape.org/) -->
<svg id="svg5121" xmlns:rdf="http://www.w3.org/1999/02/22-rdf-syntax-ns#" xmlns="http://www.w3.org/2000/svg" height="28.259mm" width="77.759mm" version="1.1" xmlns:cc="http://creativecommons.org/ns#" xmlns:dc="http://purl.org/dc/elements/1.1/" viewBox="0 0 275.52303 100.12893">
 <metadata id="metadata5126">
  <rdf:RDF>
   <cc:Work rdf:about="">
    <dc:format>image/svg+xml</dc:format>
    <dc:type rdf:resource="http://purl.org/dc/dcmitype/StillImage"/>
    <dc:title/>
   </cc:Work>
  </rdf:RDF>
 </metadata>
 <g id="layer1" transform="translate(309.05 -580.19)">
  <g id="g5732">
   <path id="path9175-4" d="m-282.78 661.85c0.60516 0 5.9442-0.42732 6.0116-2.2174 0.0258-0.68604 0.13377-1.333 0.23995-1.4377 0.10618-0.10472 0.75327-0.22945 1.438-0.27719 0.98931-0.0689 1.2655-0.20061 1.3452-0.64114 0.0551-0.3049 0.30055-0.78004 0.5453-1.0559 0.39923-0.44992 0.75985-0.48227 3.5054-0.3144 2.8896 0.17668 3.0899 0.15438 3.5884-0.39931 0.76282-0.84718 2.4995-0.81113 3.0728 0.0638 0.23432 0.35764 0.73612 0.79152 1.1151 0.96419l0.68906 0.31396 0.0242-2.2808c0.0636-5.9782 0.28208-11.429 0.46552-11.612 0.11175-0.11165 1.0122-0.30287 2.0011-0.42491 1.2722-0.15702 1.8138-0.34346 1.8525-0.63766 0.03-0.22868 0.13094-0.88351 0.22423-1.4552l0.1696-1.0394h1.3916c2.0784 0 2.4638 0.30545 2.4638 1.9527 0 1.0358 0.13789 1.4969 0.55435 1.8535 0.40451 0.34633 0.55436 0.81765 0.55436 1.7435 0 1.5637 0.34499 1.9341 1.8017 1.9341 0.62504 0 1.2866 0.15016 1.4701 0.33367 0.45579 0.4558 2.7134 1.0251 4.1241 1.04 1.3488 0.0142 1.4945 0.26507 1.3989 2.4084-0.0905 2.0285 0.47475 2.5931 2.5962 2.5931 0.92629 0 1.6885 0.1371 1.8043 0.32456 0.13294 0.21507 0.27571 0.12155 0.42321-0.27718 0.19442-0.52556 0.43226-0.60174 1.8789-0.60174 1.4035 0 1.7229 0.0952 2.0928 0.62366 0.37369 0.53387 0.76494 0.64622 2.7182 0.78039 1.6015 0.11003 2.4056 0.055 2.6975-0.18426 0.22868-0.18757 0.85233-0.45278 1.3859-0.58936l0.97012-0.24833 0.14422-4.1409c0.18657-5.3575 0.19889-5.3798 2.9838-5.4158 2.7648-0.0357 3.5007-0.24746 3.6151-1.0401 0.10344-0.71691 0.21029-0.76578 2.1774-0.99586 1.3682-0.16001 1.4542-0.13134 1.8054 0.6013 0.31187 0.65068 0.53916 0.76935 1.4737 0.76935 1.0698 0 1.1094-0.0335 1.2436-1.0508 0.10112-0.76653 0.32603-1.1432 0.83154-1.3927 0.60039-0.29634 0.70405-0.55366 0.77602-1.9266 0.0997-1.9018 0.48988-2.2119 2.6277-2.0886l1.4469 0.0835 0.13859 1.5245 0.13858 1.5245 2.0138 0.17987c2.636 0.23543 2.8368 0.33049 2.8368 1.3428 0 0.64852 0.16244 0.90884 0.69294 1.1106 0.38113 0.14489 0.69296 0.41263 0.69296 0.59496 0 0.18232 0.18029 0.53073 0.40064 0.77422 0.29479 0.32573 0.41845 1.3428 0.46796 3.8489 0.037 1.8734 0.18249 3.4774 0.32328 3.5644 0.43257 0.26733 0.71623-0.51937 0.7051-1.9555-0.008-0.97464 0.11712-1.4413 0.4321-1.6176 0.30162-0.16881 0.44271-0.63921 0.44271-1.476 0-1.4218 0.34117-1.6102 2.6516-1.464 1.2903 0.0817 1.3729 0.13346 1.4618 0.91719 0.12062 1.0624 0.42005 1.2317 1.6662 0.94211 1.7946-0.41709 5.5737-0.29324 6.7389 0.22085 1.0359 0.45703 1.0632 0.50614 1.0632 1.9063 0 1.6868 0.35803 2.097 2.0256 2.3212 0.7844 0.10542 1.2367 0.33579 1.433 0.72995 0.15776 0.31676 0.50433 0.79341 0.77014 1.0592 0.26583 0.26582 0.4833 0.78622 0.4833 1.1564 0 1.0035 0.77387 0.83536 1.048-0.22768l0.23227-0.90083 2.201-0.13859 2.201-0.13859 0.0859-1.1912c0.069-0.95772 0.21498-1.2403 0.74469-1.4416 0.50721-0.19284 0.67882-0.49284 0.74567-1.3034l0.0868-1.053h2.0788 2.0788l0.0869 0.90082c0.0917 0.95094 0.27422 1.0284 2.1306 0.90377 1.0624-0.0714 1.5244-0.45753 1.5244-1.2744 0-0.36558 0.24226-0.77888 0.55442-0.94593 0.48195-0.25797 0.55434-0.58037 0.55434-2.4704 0-2.3928 0.106-2.5782 1.728-3.0208 0.56929-0.15536 1.3657-0.54252 1.7698-0.86037 0.40406-0.31783 1.0336-0.57789 1.3989-0.57789 0.36537 0 0.73607-0.1871 0.82385-0.41579 0.11648-0.30357 0.59422-0.41577 1.7703-0.41577 2.642 0 2.4876 0.31677 2.4876-5.102 0-3.337 0.0997-4.8652 0.33262-5.0982 0.18294-0.18294 0.98349-0.33262 1.779-0.33262 1.7969 0 2.3232-0.19288 2.3232-0.85144 0-0.93157 1.0242-1.1703 4.8234-1.1244 3.2295 0.039 3.6667 0.10311 4.2148 0.61799 0.56878 0.53433 0.81164 0.56068 3.4783 0.37754 2.9849-0.20498 3.5599-0.40826 3.5599-1.2585 0-0.59023 1.1964-0.90177 2.9225-0.761 0.89297 0.0728 1.113 0.20518 1.1851 0.71309 0.0774 0.54251 0.25731 0.62573 1.3859 0.63963 0.71346 0.009 1.7962 0.1043 2.406 0.21225l1.1087 0.19626 0.13859 5.5392 0.13858 5.5392h1.3814 1.3814l-0.0808-12.889c-0.0619-9.8398-0.16188-12.954-0.42418-13.166-0.94601-0.76307-1.4107-3.8099-0.88772-5.8208l0.36047-1.3859h1.1811c0.83124 0 1.2728-0.14601 1.4906-0.49295 0.36769-0.58568-0.12981-1.0205-1.1754-1.0273-0.44025-0.003-0.60548-0.12885-0.50671-0.38624 0.20848-0.54332-0.35006-1.0039-1.2175-1.0039-1.0998 0-1.4195-0.57626-1.2901-2.3254 0.11313-1.528 0.53-2.3866 1.1585-2.3866 0.45822 0 1.5389-1.1902 1.5389-1.6948 0-0.22648-0.13876-0.55057-0.30846-0.72024-0.43501-0.43505-0.0567-0.91111 0.72429-0.91111 0.36314 0 0.75722-0.15592 0.87578-0.34648 0.11864-0.19056 0.24071-2.2798 0.2714-4.6427 0.0309-2.363 0.0748-4.5458 0.0985-4.8506 0.0232-0.3049 0-0.79904-0.0473-1.0981-0.0585-0.35388 0.0921-0.58114 0.43123-0.65093 0.7616-0.15663 1.0558 0.51902 0.55725 1.2798-0.3517 0.53675-0.36133 0.7188-0.0576 1.0858 0.22542 0.27227 0.37423 1.246 0.38919 2.5454 0.0129 1.1574 0.0447 3.0675 0.0696 4.2446l0.0447 2.1402 0.90079 0.23343c0.49553 0.12838 0.8903 0.35024 0.87732 0.49299-0.0748 0.82659-0.49656 2.0612-0.704 2.0612-0.13343 0-0.24252 0.18709-0.24252 0.41577 0 0.61314 0.5827 0.50563 0.7512-0.1386 0.17383-0.6647 0.65767-0.70001 1.7626-0.12865l0.82325 0.42572-0.093 2.554-0.0931 2.554-0.81319 0.0812c-1.5114 0.15094-1.6476 0.28686-0.98952 0.98739 0.54015 0.57493 0.60618 0.98278 0.66515 4.1047 0.0636 3.3797 0.0464 3.4938-0.69678 4.5664l-0.76221 1.1001v13.204c0 7.2622 0.10566 13.269 0.2347 13.349 0.48237 0.29806 1.7491-1.4299 1.906-2.6 0.1759-1.3113 0.13807-1.2886 2.502-1.5038 1.4608-0.13302 1.7324-0.0891 1.7324 0.2803 0 0.24093 0.21622 0.80401 0.4804 1.2513l0.4804 0.81324 3.1922-0.0775 3.1922-0.0776v-24.624-24.624l0.65431-0.53006c0.35996-0.29154 0.94507-0.53006 1.3003-0.53006s0.72378-0.12609 0.81903-0.28018c0.0953-0.15411 0.508-0.284 0.91722-0.28864 0.40921-0.004 1.3053-0.0423 1.9913-0.0839 0.68604-0.0414 1.6476-0.0987 2.137-0.12713 0.78224-0.0454 0.92985-0.18561 1.2219-1.1604 0.41007-1.3687 0.73788-1.4198 0.85136-0.13281 0.13875 1.5736 0.81095 1.2672 1.1973-0.5457 0.13489-0.63305 0.23212-0.72668 0.43183-0.41576 0.14167 0.22074 0.18818 0.73245 0.10324 1.1372-0.17778 0.84771 0.2206 1.2394 0.68785 0.67633 0.47971-0.57801 0.71518-3.0952 0.31276-3.3439-0.55648-0.34393-2.588-0.34483-3.6578-0.002-0.652 0.20921-1.1757 0.23206-1.4752 0.0644-0.25551-0.14295-0.79849-0.16682-1.2067-0.053-0.40818 0.11379-1.1163 0.24429-1.5737 0.29002-0.45736 0.0457-1.2681 0.13399-1.8017 0.19612-0.79814 0.0929-1.1081-0.0339-1.7486-0.7157-0.42813-0.45575-0.72017-0.98064-0.6489-1.1664 0.37706-0.98247 5.6246-1.5393 13.208-1.4015 5.9212 0.10761 8.3458 0.39474 9.3145 1.1031 0.4883 0.35704 0.48693 0.40532-0.0387 1.3924-0.66145 1.2421-0.81207 1.3496-1.4396 1.028-0.96905-0.49645-2.5476-0.58817-2.9636-0.1722-0.50748 0.50755-0.83692 0.50295-1.2691-0.0178-0.18982-0.22868-0.59534-0.41578-0.90122-0.41578-0.51014 0-0.54049 0.12035-0.36675 1.4552 0.11133 0.85599 0.40913 1.678 0.72318 1.9964 0.52949 0.53677 0.54032 0.53649 1.3134-0.0352l0.77949-0.57633 0.76711 0.65985c0.54926 0.47239 0.96028 0.61137 1.447 0.48924 0.37388-0.0939 0.83416-0.0454 1.0227 0.10766 0.18862 0.15307 0.59233 0.32436 0.89727 0.38064 0.47163 0.087 0.59904 0.44776 0.85394 2.4175 0.18793 1.4526 0.20899 2.8923 0.0567 3.8641-0.1526 0.97273-0.1336 2.2538 0.0516 3.4436 0.19971 1.2873 0.20375 2.0632 0.0129 2.4203-0.18355 0.34287-0.28138 8.1486-0.28138 22.45 0 20.636 0.0284 21.933 0.48512 22.081 0.26677 0.0861 0.67212 0.22935 0.9008 0.31841 0.22868 0.0891 1.8411 0.17064 3.5833 0.18129l3.1675 0.0194 0.24828 0.97012c0.13652 0.53357 0.4338 1.1572 0.66059 1.3859 0.36641 0.36935 0.45925 0.35387 0.83219-0.13861 0.38979-0.51488 0.41652-2.8864 0.0559-4.9803-0.0774-0.45122 0.14065-0.59643 1.2635-0.84037 0.97232-0.21124 1.4194-0.46242 1.5758-0.88535 0.28464-0.76955 1.1499-1.0265 2.2682-0.67357 1.1333 0.3577 3.675 0.21161 4.2225-0.24269 0.22868-0.18984 0.41584-0.57199 0.41584-0.84922 0-0.27724 0.12474-0.58115 0.27725-0.67537 0.16171-0.0999 0.27717 0.18191 0.27717 0.67659 0 0.94852 0.16429 1.036 0.82419 0.43873 0.49097-0.44431 1.9238-0.52492 4.6607-0.2622 0.97258 0.0934 1.8913 0.05 2.0788-0.0981 0.18475-0.14599 0.97369-0.34646 1.7534-0.44547 1.0716-0.13609 1.4992-0.0815 1.7525 0.22367 0.26272 0.3166-0.32565 0.39807 2.3763 0.37769 2.8406-0.0214 2.1302 0.0545 2.5478 0.4324 0.27854 0.25213 0.74948 0.45839 1.0465 0.45839 0.74286 0 2.3267-1.5035 2.3267-2.2087 0-0.73783 0.97842-1.1188 2.8591-1.1132 1.6846 0.005 2.1928 0.25983 2.2901 1.1483 0.0387 0.357 0.0817 0.74433 0.0941 0.86071l0.19523 0.85223v22.959 7.8919 10.256h-249.79c0.53556-18.471-0.10508-17.002 0.53556-18.471zm163.86-64.891c-0.23616-0.38216-0.95074-0.28911-0.95074 0.12379 0 0.20327 0.0817 0.45165 0.18243 0.55196 0.2506 0.25066 0.95693-0.37055 0.76831-0.67575zm40.072-11.765c0-0.58708 0.11228-0.91712 0.27725-0.81518 0.15243 0.0942 0.27717 0.53815 0.27717 0.9865s-0.12474 0.81517-0.27717 0.81517c-0.15251 0-0.27725-0.44392-0.27725-0.98649zm-19.211 0.53112c-0.10531-0.10526-0.19146-0.42004-0.19146-0.69954 0-0.55289 0.68372-0.69452 0.98659-0.20439 0.2194 0.35498-0.51229 1.1868-0.79522 0.90393zm1.9029-0.35116c-0.23496-0.38022 0.13205-1.1337 0.55218-1.1337 0.49751 0 0.71854 0.40773 0.51229 0.94511-0.18414 0.48013-0.81516 0.59193-1.0645 0.18861z" fill="#020202"/>
   <circle id="path6912-9-8-8-2-2" opacity="0.976" cy="655.32" cx="-284.05" r="25"/>
   <g id="g5176-2-7-1" transform="matrix(0.5 0 0 0.5 -38.492 620.64)">
    <path id="rect4933-5-8-1-8-5-6-8-3-1-2-2-9" d="m-516.16 56.848a25.042 25.042 0 0 0 25.042 25.042h25.042a25.042 25.042 0 0 0 -25.042 -25.042h-25.042z" fill="#c83737"/>
    <path id="rect4933-31-1-8-4-7-6-6-0-9-2-8-0-8-9" d="m-491.12 81.89h-25.042a25.042 25.042 0 0 0 25.042 25.042 25.042 25.042 0 0 0 25.042 -25.042h-25.042z" fill="#fc0"/>
    <path id="rect4933-3-6-4-2-6-9-2-7-6-0-6-1-5" d="m-491.12 56.848v25.042 25.042a25.042 25.042 0 0 0 25.042 -25.042 25.042 25.042 0 0 0 -25.042 -25.042z" fill="#c83737"/>
    <path id="rect4933-8-7-4-1-21-4-3-0-1-31-5-8-02" d="m-491.12 31.806a25.042 25.042 0 0 0 -25.042 25.042h25.042v-25.042zm-25.042 25.042a25.042 25.042 0 0 0 25.042 25.042v-25.042h-25.042z" fill="#0a4"/>
    <path id="rect4933-31-1-8-4-6-8-5-5-8-2-2-8-9" d="m-491.12 31.806a25.042 25.042 0 0 0 -25.042 25.042h25.042 25.042a25.042 25.042 0 0 0 -25.042 -25.042v-0.000245z" fill="#fc0"/>
    <path id="rect4933-31-1-8-4-75-4-3-7-6-8-3-2" d="m-466.07 56.848a25.042 25.042 0 0 0 -25.042 -25.042v25.042h25.042z" fill="#fc0"/>
    <path id="rect4933-8-7-4-1-18-1-96-4-1-8-7-2" d="m-491.12 31.806a25.042 25.042 0 0 0 -25.042 25.042h25.042v-25.042z" fill="#0a4"/>
    <path id="rect4933-5-8-1-4-6-33-4-0-1-9-9" d="m-516.16 56.848a25.042 25.042 0 0 0 25.042 25.042v-25.042h-25.042z" fill="#06f"/>
    <path id="rect4933-3-6-4-2-9-4-8-0-5-6-0-2" d="m-466.07 81.89a25.042 25.042 0 0 0 -25.042 -25.042v25.042h25.042z" fill="#c83737"/>
    <path id="rect4933-8-7-4-1-1-3-8-8-5-1-1-8-2" d="m-491.12 106.93a25.042 25.042 0 0 0 25.042 -25.042h-25.042v25.042z" fill="#0a4"/>
   </g>
   <g id="g7631-2-3-6" transform="matrix(.24038 0 0 .24038 -242.56 612.58)">
    <g id="g7341-5-8-2" transform="translate(188.09 -185.26)">
     <g id="text7117-81-3-5-8-9">
      <path id="path7332-9-5-8" d="m317.74 345.69c-8.1581 2.4321-17.93 0.40087-24.77 6.4355-0.0333 8.6114 0.0661 18.972-0.0488 26.506-0.49156-5.9533-6.8323-8.4573-12.014-7.0176-2.2782 0.16914-7.8882 1.9021-6.4434-2.2676 1.1452-4.8322 1.175-13.071-5.4316-13.494-7.1311 1.9362-15.742 0.38115-21.533 5.9668 1.392 20.705-2.6383 42.113 2.4316 62.514 5.6177 12.853 21.922 16.223 34.385 12.809 2.966-0.67709 5.8574-1.6612 8.6543-2.8535 0.57259 5.6462 11.156 1.2814 16 2.6562 6.1854 0.16517 13.78 1.746 11.116-6.9882 0.24542-11.482-0.65994-23.95 0.44636-34.846 5.5538 0.6562 2.3754 7.7038 3.3535 11.227 0.16047 10.202-0.29882 20.407 0.0488 30.607h27.277c-2.2009-18.287 3.7373-38.029-4.6914-55.268-5.6056-8.5878-16.628-12.211-26.506-11.127 0.13848-8.4109-0.0234-16.823 0.0508-25.234l-2.3262 0.375zm-534.41 0c-8.1581 2.4321-17.93 0.40087-24.77 6.4355v44.727c-1.3509-12.539-10.601-24.453-23.607-26.041-13.124-2.9428-27.267 3.6157-33.602 15.443-9.5487 16.321-4.463 41.259 13.695 49.191 13.561 5.1494 29.032 3.2198 41.902-3.0293-2.2796-5.1638-2.128-12.089-3.0527-16.902 2.2028-0.25752 4.1241-1.9278 4.6641-4.082v22.387c16.18 4.5098 35.961 8.4056 50.322-2.8867 4.5761-4.0013 7.8412-9.3869 9.5996-15.184 3.3316 12.215 14.52 21.596 27.234 22.252 10.758 1.414 21.764-0.92175 31.484-5.584-2.3084-5.1728-2.0353-11.994-3.1055-16.895 2.2207-0.24007 4.1705-1.9116 4.7168-4.082v25.504h26.996c0.75269-13.867-0.9041-28.383 0.66016-41.826 5.4603 0.84638 2.2677 7.736 3.2578 11.283 0.15994 10.181-0.28755 20.364 0.05078 30.543h27.277c-1.3158-5.1551 1.9808 0.9295 4.4688 0.44141 16.81-0.91106 33.716-0.17252 50.568-0.49024-0.021374-0.935-2.6135-7.2221 0.00391-4.3613 11.015 7.7447 25.565 5.7416 38.109 4.0488 3.9833-0.67492 7.9404-1.4866 11.898-2.293-1.8788-16.966 3.2204-35.457-3.4961-51.953-7.1579-12.282-23.27-13.512-35.897-11.259-4.6033 0.54803-9.2954 1.9588-13.6 3.0679-4.4188-5.6294-12.56-1.4193-18.513-2.4412-11.589 0.12305-23.179-0.22211-34.768 0.002 2.5766 7.394-2.886 16.566 2.6348 22.943 3.9014 3.4108 9.7775 0.67288 13.855 1.6699-5.5031 6.9394-11.565 13.637-15.566 21.607 0.18509-12.479 1.6671-26.394-5.291-37.432-8.9263-11.561-25.149-11.06-38.135-8.8965-4.9142 0.75207-9.7586 1.9118-14.516 3.3496-0.0534 6.7633 0.10553 16.32-0.0762 21.396-1.4925-12.363-10.724-23.966-23.537-25.535-13.121-2.9379-27.258 3.6176-33.592 15.441-1.1767 2.0401-2.1534 4.1971-2.8926 6.4336-2.4811-12.518-14.028-22.079-26.777-22.213-2.6898-0.66335-7.7605 2.1858-6.2891-2.5879v-22.566l-2.3184 0.37305zm692.67 0.6c-14.475 0.17176-27.462 13.632-25.795 28.305-0.61496 14.788-0.1153 29.591-0.1149 44.385-7.773-21.789-16.27-43.345-26.293-64.207h-22.668c-13.062 26.471-22.937 54.346-32.641 82.178h29.316c1.4692-5.1014 3.1481-10.14 4.9434-15.135 6.3081 0.19403 12.649-0.61981 18.928 0.25976 1.7205 4.9311 3.4772 9.853 4.9199 14.875 10.39 0.0626 21.03-0.27159 31.229 0.43946 5.9518-1.8995 14.693 2.6251 18.713-4.0039 2.308-5.9916-0.65704-12.478 0.56055-18.67v-18.475c4.7114 1.4995 15.729-3.3076 15.633 3v37.709h27.02c0.63374-13.791-0.81372-27.973 0.57812-41.508 5.1737 0.0956 10.107 1.8223 15.125 2.877 0.00001 12.877 0.00001 25.754 0 38.631h27.088c0.0713-7.9386-0.1412-19.105 0.10351-25.072 1.9521 12.665 11.827 23.829 24.779 25.723 10.558 2.4862 21.748-0.67979 31.294-4.0689 12.286 7.0942 27.374 4.4851 40.668 2.3389 4.3094-0.71318 9.5751-0.69677 7.6074-6.2568-0.86792-15.535 2.9828-32.318-3.1934-47.271-7.161-12.289-23.283-13.512-35.914-11.257-5.0806 0.1972-10.178 3.1107-14.934 2.6674-15.018-6.8226-35.54-4.0702-44.889 10.6-2.8421 4.1537-4.6831 8.9582-5.5215 13.912v-26.443c-3.3506 0.44175 0.87842-2.6807 0.71093-4.4356 3.3773-9.4348-4.3409-20.951-14.684-20.049-12.254-0.67996-19.514 16.51-11.051 25.074-2.4248 1.9949-5.9835-1.4596-9.0176-1.1172-11.369-1.9455-22.967 0.36787-33.689 4.2168-0.57805-1.9243-4.0845-3.0064-1.1543-4.2832 3.4854-3.957 2.6749-9.6387 4.5547-14.307 1.3147-5.2101-3.6133-8.9312-8.4043-9.123-4.5054-1.2455-9.1546-1.5495-13.807-1.5078zm-379.12 6.85c-14.914-1-31.216 10.2-31.26 26.05-0.82014 13.718 11.065 24.761 23.697 27.617 3.1622 1.1549 8.4915 1.8502 9.5449 5.2539-5.8518 2.2348-12.794 0.30828-18.537-1.7188-3.2975-0.29294-8.3797-7.2008-9.4043-2.3457-2.5765 7.2599-5.1556 14.519-7.7305 21.779 16.288 10.02 38.65 12.4 55.305 2.0352 4.1929-3.3128 7.0778-8.122 8.3848-13.275 4.7531 12.676 18.04 21.16 31.549 19.926 14.455-0.64704 27.962-11.938 29.662-26.59 0.63102 9.3108 4.5448 19.336 13.738 23.17 13.977 6.2599 29.864 2.2631 43.979-1.3613v-62.006h-27.088c-0.28615 13.802 0.56663 28.774-0.42578 41.848-5.4323-0.7908-2.3942-7.5777-3.4141-11.148-0.2108-10.233 0.40172-20.469-0.0645-30.699h-26.982c0.20666 7.9599 0.35557 15.848-0.10937 23.766-2.6668-13.512-14.574-24.669-28.563-25.088-16.634-2.2051-32.433 11.357-34.638 27.605-5.8961-11.592-20.124-13.225-30.41-18.799 7.9841-2.1274 16.181 1.7851 22.93 5.8613 2.9044-7.9305 5.8067-15.862 8.709-23.793-8.591-5.3957-18.698-8.4033-28.871-8.0938zm384.4 17.91c3.4796 0.18361 2.932 0.7969-0.42968 0.83985-5.7218 0.73575-1.7118-1.0094 0.42968-0.83985zm-188.31 22.158c-0.95379-2.9596-0.2323-6.0795 0-9.0918v9.0918zm322.2-6.8027c0.19056 3.6251 1.4616 7.5043 3.7012 10.129-4.9215 3.0512-8.7424 8.332-9.3613 14.131-5.8167 2.2771-15.714 5.8093-19.342-1.4258-2.3457-5.6667 0.30071-15.524 7.8633-14.012 4.9259 0.35114 9.4138 2.5968 13.99 4.2402-0.22569-4.8765 1.6807-9.3986 3.0703-13.963l0.0781 0.90039zm-624.83 2.7422c0.35182 2.7075 1.7872 5.446 3.334 7.3887-5.5354 3.358-9.5116 9.6751-9.5625 16.105-4.2796-1.1393-8.7684 0.22901-13.125-0.0664 6.2656-8.0906 14.126-14.977 19.271-23.912l0.082031 0.48437zm422.17 5.1582c3.2002 2.5244-1.2136 4.0088-1.6934 2.6602 0.44322-0.45412 1.2756-5.2615 1.6934-2.6602zm-255.79 0.94727c6.6382 2.6489 5.8005 13.241 1.7168 17.672-5.2589 2.21-7.2778-4.5484-6.7461-8.5371-0.0643-3.3792 0.44859-9.2938 5.0293-9.1348zm-368.42 0.0781c6.1474 1.584 4.5806 10.04 3.4805 14.701-0.79432 2.3357-6.9337 5.6059-6.0469 1.3652 0.0737-5.2418-0.74423-10.948 0.35937-15.932 0.72891-0.11518 1.4697-0.15518 2.207-0.13477zm502.92 0.90235c3.9794 2.2725 0.67189 11.832 1.7559 17 0.24633 4.3513 0.13121 3.7752-1.6894 0.86914-4.1336-5.9388-11.613 1.8882-16.117-1.5664-1.143-5.393-0.40561-10.87-0.39649-16.303h16.447zm-275.48 17.941c-0.12503 1.8548-3.7206-0.16901-3.9004 0.041 1.0351 0.003 3.2903-0.6132 3.9004-0.041zm625.2-0.19335c0.17371 2.2013-4.2069 0.0323-3.6953 0.19921 1.2226-0.18288 2.4637-0.14686 3.6953-0.19921z"/>
     </g>
     <text id="text7117-81-30-5-1" style="word-spacing:0px;letter-spacing:0px" font-weight="bold" font-size="101.27px" line-height="125%" y="430.53238" x="-301.6553" font-family="sans-serif" xml:space="preserve" fill="#ffffff"><tspan id="tspan7119-1-2-2-7" font-weight="bold" y="430.53238" x="-301.6553" font-family="Ubuntu" fill="#ffffff">ebenza South Africa</tspan></text>
    </g>
   </g>
  </g>
 </g>
</svg>
