<?xml version="1.0" encoding="UTF-8" standalone="no"?>
<!-- Created with Inkscape (http://www.inkscape.org/) -->
<svg id="svg5121" xmlns:rdf="http://www.w3.org/1999/02/22-rdf-syntax-ns#" xmlns="http://www.w3.org/2000/svg" height="100" viewBox="0 0 275.0002034842919 100.0009818526528" width="275" version="1.1" xmlns:cc="http://creativecommons.org/ns#" xmlns:dc="http://purl.org/dc/elements/1.1/">
 <title id="title4236">SebenzaSA.co.za Logo</title>
 <metadata id="metadata5126">
  <rdf:RDF>
   <cc:Work rdf:about="">
    <dc:format>image/svg+xml</dc:format>
    <dc:type rdf:resource="http://purl.org/dc/dcmitype/StillImage"/>
    <dc:title>SebenzaSA.co.za Logo</dc:title>
   </cc:Work>
  </rdf:RDF>
 </metadata>
 <g id="g4163" transform="translate(.00000224166 -.0000182563)">
  <path id="rect4169" d="m210.145 0.00123537c-5.802 0.0286085-9.669 0.53562-9.984 1.35743-0.0682 0.177975 0.21166 0.682597 0.6211 1.11915 0.61245 0.653223 0.91066 0.774562 1.67384 0.685553 0.51026-0.059525 1.28341-0.143718 1.72072-0.187502 0.43742-0.043815 1.11555-0.17028 1.50587-0.279299 0.39038-0.109043 0.91004-0.086175 1.15431 0.050782 0.2864 0.160635 0.7867 0.137938 1.41018-0.062501 1.02301-0.328471 2.96596-0.327553 3.49807 0.00195 0.38482 0.238274 0.15989 2.64939-0.29883 3.20316-0.44679 0.539477-0.82625 0.165703-0.65626-0.64649 0.0812-0.387792 0.0359-0.878471-0.0996-1.08985-0.19097-0.297902-0.28508-0.208075-0.41406 0.398441-0.36947 1.73682-1.01183 2.03104-1.14454 0.523443-0.10851-1.23304-0.42231-1.18434-0.81446 0.126954-0.27926 0.933939-0.42196 1.06783-1.16993 1.11134-0.46796 0.027237-1.38693 0.08144-2.04299 0.121095-0.65599 0.039854-1.51095 0.076246-1.90237 0.080079-0.39131 0.00445-0.78581 0.129691-0.87696 0.277346-0.091 0.14763-0.44353 0.269534-0.78321 0.269534-0.33972 0-0.89999 0.2285-1.24415 0.507817l-0.62501 0.50606v23.592 23.5922l-3.05472 0.07617-3.05277 0.07422-0.45703-0.781258c-0.25264-0.428542-0.46094-0.966389-0.46093-1.19728 0-0.353922-0.25938-0.396983-1.65627-0.269533-2.26042 0.206194-2.22438 0.185062-2.3926 1.44142-0.15004 1.12103-1.36105 2.77595-1.82229 2.49026-0.12343-0.07664-0.22461-5.8296-0.22461-12.7872v-12.6507l0.72852-1.0547c0.71069-1.02763 0.72881-1.13699 0.66798-4.37504-0.0564-2.99105-0.12216-3.38085-0.63868-3.93168-0.62927-0.67118-0.49607-0.80265 0.94922-0.947275l0.7754-0.07813 0.0898-2.44729 0.0898-2.44729-0.78907-0.408207c-1.05662-0.547421-1.51733-0.511847-1.6836 0.125001-0.16115 0.61723-0.71876 0.720264-0.71876 0.132814 0-0.219101 0.1029-0.398441 0.23046-0.398441 0.19838 0 0.60427-1.18268 0.6758-1.97463 0.0124-0.136762-0.366-0.349671-0.83986-0.472661l-0.86329-0.222659-0.043-2.0508c-0.0238-1.12773-0.0541-2.9577-0.0664-4.06664-0.0144-1.24494-0.15358-2.18063-0.36914-2.44143-0.29046-0.351615-0.28341-0.524767 0.0527-1.03907 0.47674-0.728891 0.19509-1.37658-0.53321-1.22657-0.32429 0.066867-0.46612 0.285963-0.41016 0.625006 0.0452 0.286533 0.067 0.760701 0.0447 1.05274-0.0227 0.292029-0.0641 2.38056-0.0936 4.64458-0.0293 2.26388-0.14629 4.26696-0.25976 4.44946-0.11337 0.182576-0.49262 0.332034-0.83986 0.332034-0.74681 0-1.10741 0.456232-0.69141 0.873056 0.16226 0.162549 0.29296 0.472454 0.29297 0.689459 0 0.483456-1.0305 1.62502-1.46877 1.62502-0.60102 0-1.00118 0.821146-1.10938 2.28518-0.12375 1.67585 0.18272 2.22854 1.23438 2.22854 0.82952 0 1.36152 0.440404 1.16212 0.960946-0.0945 0.24661 0.0674 0.36823 0.4883 0.371098 0.99987 0.0065 1.47463 0.423246 1.12305 0.984384-0.20828 0.332404-0.63281 0.470708-1.42775 0.470708h-1.12696l-0.34571 1.32814c-0.50012 1.92658-0.055 4.845 0.84962 5.57622 0.25085 0.203104 0.34511 3.18694 0.4043 12.6136l0.0781 12.3497h-1.32032-5.31255l-0.13281-7.22272-0.13281-5.30669-1.06057-0.185548c-0.58303-0.103423-1.62044-0.196451-2.30276-0.20508-1.07923-0.01333-1.25023-0.09157-1.32422-0.611334-0.069-0.486633-0.27703-0.61385-1.13087-0.683601-1.65057-0.134863-2.79886 0.163034-2.79886 0.728523 0 0.814613-0.54617 1.01073-3.40042 1.20704-2.55002 0.175458-2.78223 0.148655-3.32621-0.363285-0.52413-0.493305-0.94312-0.554439-4.03128-0.591802-3.6331-0.04397-4.61334 0.183595-4.61334 1.07618 0 0.630961-0.50243 0.816414-2.22072 0.816414-0.76072 0-1.52822 0.145055-1.70314 0.320316-0.22272 0.223228-0.31836 1.68583-0.31836 4.88286-0.00003 5.19172 0.14771 0.886728-4.37504 0.886728-1.12463 0-3.57611 2.10955-3.68754 2.40041-0.0839 0.219103-0.43967 0.398442-0.78908 0.398442-0.34928 0-0.95146 0.24821-1.3379 0.55274-0.38641 0.304531-1.1489 0.675379-1.69338 0.824227-1.55098 0.424053-1.65234 0.602166-1.65235 2.89456 0 1.81079-0.0684 2.12011-0.52931 2.36721-0.74899 1.29655-1.00342 1.19166-2.2383 1.25197-1.77518 0.119401-1.69763-3.08116-1.78517-3.99223l-0.084-0.861337h-1.9883-1.9883l-0.082 1.00782c-0.0639 0.77659-0.22983 1.06325-0.71486 1.24806-0.50652 0.192856-0.64495 0.463226-0.71093 1.38087l-0.082 1.14259-2.10549 0.132814-2.1055 0.132813-0.22266 4.86157c-0.50701 1.33945-1.4629 1.11134-1.4629 1.11134-0.25419-0.254665-0.58356-0.710143-0.73438-1.01368-0.18774-0.377638-0.62105-0.598245-1.37111-0.699226-1.59462-0.214809-1.93752-0.608506-1.93752-2.22463 0-1.34143-0.0251-1.3884-1.01563-1.82638-1.11425-0.492546-2.73311-0.612501-4.44927-0.212893-1.19165 0.277444-1.47644 0.115524-1.59181-0.902352-0.085-0.75089-0.16462-0.800647-1.39845-0.878915-2.20937-0.140079-2.53713 0.04215-2.53713 1.40431 0 0.801735-0.13538 1.25241-0.42383 1.41427-0.3012 0.168897-0.41978 0.615085-0.41212 1.54884 0.0106 1.37595-4.25241 2.12911-4.66606 1.87306-0.134621-0.08335-0.273229-1.6191-0.308597-3.41409-0.0473-2.40106-0.167326-3.37575-0.449224-3.68773-0.210712-0.233298-0.382815-0.567521-0.382815-0.742196 0-0.174688-0.299597-0.431484-0.66407-0.570317-0.502008-0.193009-0.656256-0.441495-0.656256-1.06251 0-0.969894-0.190314-1.06162-2.71096-1.28712l-1.9258-0.171878-0.132814-1.46095-0.132813-1.46095-1.38673-0.08008c-2.04422-0.118139-2.41442 0.179767-2.50979 2.00197-0.06882 1.31534-0.170023 1.56184-0.744147 1.84572-0.483408 0.239043-0.698227 0.599569-0.79493 1.334-0.128325 0.974676-0.166446 1.00782-1.18946 1.00782-0.893667 0-1.11003-0.112929-1.40822-0.736335-0.335832-0.701944-0.418213-0.731438-1.72658-0.578131-1.88103 0.220432-1.98514 0.266281-2.084 0.953135-0.109395 0.759434 1.18481 0.965804-1.459 1.00001-2.66303 0.0345-2.67315-1.94526-2.85159 3.18773l-0.138673 3.96683c-3.37035 1.58034-2.52105-1.69586-5.24029 0.210939-0.462265 0.572998-1.40846 0.0094-2.13088-0.04492 0 0-0.574834-2.54301-0.488286-4.48637 0.09142-2.05342-0.0462-4.29331-1.33595-4.30688-1.34894-0.01428-1.51154-0.557455-1.94728-0.99415-0.17546-0.175821-0.808564-0.320316-1.40626-0.320316-1.39295 0-1.72463-0.355378-1.72463-1.85353 0-0.887064-0.140528-1.33811-0.527348-1.66994-0.398243-0.341659-0.531255-0.783046-0.531255-1.77541 0-1.5781-0.368049-1.87306-2.35549-1.87306h-1.33009l-0.162112 0.996104c-0.0892 0.547727-0.188118 1.17349-0.216798 1.39259-0.03699 0.281878-0.552946 0.460893-1.76955 0.611334-0.945644 0.11692-1.80724 0.303184-1.91408 0.41016-0.175417 0.175333-0.3845 11.3969-0.445318 17.1234l-0.01797 1.6842c-1.9513-12.1114-12.4021-21.0178-24.6698-21.0238-13.8072 0-25.0002 11.1929-25.0003 25.0001 0.0390319 8.08452-0.00000526 16.7545 0 25.0002h275.003l0.00001-40.0004c-9.24701 0.246615-15.2029 1.17802-26.1366 2.07912-0.19845-2.99532 0.0879-15.9636-2.34221-15.9449-2.58359 0.01951-2.02023-0.05799-2.27151-0.361332-0.24222-0.292394-0.65099-0.345234-1.6758-0.214846-0.74563 0.09486-1.49903 0.285931-1.67579 0.425785-0.17929 0.141899-1.05836 0.183235-1.9883 0.09375-4.8053-1.05283-0.0228 2.08011-4.2227 0.875009-1.06934-0.338149-1.89571-0.0908-2.16799 0.646491-0.14954 0.405203-0.57811 0.64724-1.50783 0.849617-1.07373 0.233731-1.28299 0.372378-1.20899 0.804696 0.34481 2.00601 0.31984 16.2782-0.0527 16.7718-0.35666 0.471848-0.44456 0.4867-0.79493 0.132814-0.21686-0.219104-0.50227-4.81712-0.63281-5.32837l-0.23829-0.93165c-2.14924-0.0145-2.32952 0.0218-4.45903-0.189455-0.21871-0.08532-0.6043-0.222202-0.85938-0.304691-0.43677-0.141786-0.46485 0.614271-0.46485-19.1564 0-13.7014 0.0921-21.1796 0.26758-21.5082 0.1825-0.342132 0.17916-1.085-0.0117-2.31838-0.17713-1.13994-0.1928-2.36891-0.0469-3.30081 0.14564-0.931087 0.12501-2.31147-0.0547-3.70316-0.24376-1.88715-0.36737-2.23328-0.81837-2.31662-0.29158-0.053921-0.67708-0.218573-0.85743-0.365238-0.1803-0.146651-0.62099-0.191526-0.97853-0.101563-0.46547 0.117014-0.85948-0.016169-1.38477-0.468754l-0.73243-0.632818-0.74416 0.55274c-0.73926 0.547728-0.74961 0.547475-1.25586 0.033203-0.30033-0.305062-0.58495-1.09198-0.69142-1.91213-0.16614-1.27884-0.1382-1.39454 0.34962-1.39454 0.29251 0 0.68178 0.181306 0.86329 0.400394 0.41327 0.498923 0.72759 0.501902 1.2129 0.015625 0.39778-0.398546 1.90727-0.311576 2.83401 0.164064 0.60005 0.308125 0.74241 0.207626 1.37501-0.982431 0.50264-0.945714 0.50404-0.99397 0.0371-1.33595-0.927-0.678605-3.243-0.951607-8.905-1.05463-0.907-0.0165006-1.782-0.0213674-2.614-0.0175763zm-4.097 3.87503c-0.40179 0-0.75204 0.719682-0.52736 1.08399 0.23845 0.386421 0.84149 0.28033 1.01759-0.179689 0.19725-0.514851-0.0145-0.904305-0.49023-0.904305zm16.2347 0.114454c-0.0179-0.000027-0.0349 0.00604-0.051 0.01836-0.0968 0.0739-0.15821 0.357433-0.15821 0.779304 0 0.519843 0.1198 0.945321 0.26563 0.945322 0.14578 0 0.26367-0.351709 0.26367-0.781257 0-0.429562-0.11789-0.853129-0.26367-0.943368-0.0197-0.012207-0.0385-0.018333-0.0564-0.01836zm-18.3439 0.156056c-0.22421 0.019562-0.41818 0.191749-0.41818 0.48145 0 0.267795 0.0828 0.569075 0.1836 0.669928 0.27052 0.271025 0.96956-0.527089 0.75977-0.867196-0.1086-0.176101-0.27039-0.266215-0.42773-0.283206-0.0328-0.00354-0.0654-0.00377-0.0975-0.00098zm-20.663 11.6815c0.17875-0.0016 0.36644 0.07165 0.46525 0.231838 0.18034 0.292421-0.49475 0.888594-0.73439 0.648443-0.0963-0.0961-0.17383-0.334544-0.17383-0.529301 0-0.197806 0.16813-0.319724 0.36719-0.345707 0.0249-0.0032 0.0503-0.005 0.0758-0.0053z"/>
  <path id="path4177-0" d="m58.8099 64.8877c-1.81146 0.292705-3.62293 0.584989-5.43425 0.877527v19.1729c3.27739 0.886266 6.98981 1.633 10.1847 0.07265 1.98346-1.07286 3.24984-3.20602 3.5386-5.40997 0.288011 2.52012 1.89215 4.98711 4.38519 5.77424 2.703 0.9629 5.7913 0.6565 8.3767-0.484 0.856284-0.80779-0.01925-1.95155 0.07893-2.90845-0.01431-0.46585-0.427652-1.06393-0.240354-1.43933 0.6216 0.2876 1.2477-0.2754 1.1951-0.9144 0.300106-2.75071-0.190083-5.98931-2.55974-7.74201-2.63008-1.89422-6.62302-1.719-8.9551 0.593478-1.2541 1.1781-2.1063 2.8047-2.2595 4.5269-0.2253-2.6171-1.8146-5.3426-4.4855-6.0468-1.1312-0.3381-2.3451-0.3704-3.5003-0.1387v-5.98623c-0.108156 0.01748-0.216316 0.03496-0.324467 0.05244zm124.677 0c-1.8109 0.292663-3.62181 0.585017-5.43271 0.877527-0.005 6.247 0.01 12.722-0.008 18.8261-0.28343-1.56434-0.56666-3.12869-0.85022-4.69303-1.20687 0.30087-2.5905 1.24359-3.77969 0.498165-0.4792-1.40913-0.0371-2.90089-0.20812-4.34582 0.69617 0.254265 1.45712-0.07405 2.18931 0.05271 0.66796-0.201839 2.23881 0.499145 2.05002-0.559343v-4.60773h-4.22842v-3.85779c-1.92277 0.310869-3.84555 0.621011-5.76833 0.93188 0.166 4.6566-0.288 9.3433 0.261 13.9806 0.54604 2.26059 2.76725 3.90436 5.07626 3.87527 1.80895 0.148269 3.63831-0.258877 5.26519-1.04713-0.35873 1.22542 1.07313 0.660263 1.81789 0.782214h3.9384c0.0215-3.23273-0.0367-6.46573 0.0262-9.69818 0.62012-0.158308 1.47502 0.135599 1.323 0.913576 0.29074 2.53131-0.0141 5.09115 0.0768 7.6205 0.088 0.818963 0.90886 1.35081 1.70351 1.16404h4.10886c-0.287-3.79039 0.48252-7.74033-0.5345-11.4791-0.81729-2.19654-3.15364-3.5482-5.45285-3.46639-0.41753-0.01054-0.83585 0.01077-1.25009 0.06418v-5.88541c-0.10815 0.01748-0.2163 0.03496-0.32447 0.05244zm37.4025 0.133828c-2.8197-0.104301-5.75546 1.95253-6.04339 4.87244-0.42029 2.76945 0.0219 5.57791-0.1554 8.35352v5.0264c-1.93829-5.52436-4.03713-11.0021-6.57463-16.2825h-4.93014c-2.95604 5.99658-5.19582 12.3084-7.39772 18.6108h6.23707c0.34109-1.19592 0.74687-2.37204 1.16485-3.54288h4.7854c0.40608 1.17666 0.83155 2.34742 1.18072 3.54288h11.2936v-9.49793h4.20801v9.49793h5.75741c0.0152-3.2242-0.0215-6.44839 0.0158-9.67245 1.26977-0.07439 2.48409 0.321371 3.70026 0.611502 0.16441-0.810433 0.32883-1.62084 0.49326-2.43133v11.4923h5.75909v-14.6142c-0.14068-0.158924-0.97711 0.08253-0.60551-0.186262 1.57625-1.48436 1.08399-4.48677-0.96603-5.28398-1.46579-0.629709-3.35668-0.109852-4.11208 1.34756-0.80135 1.28369-0.55603 3.12897 0.67297 4.06125-0.44357-0.08541-0.6408 0.564992-0.99526 0.341395-3.12678-1.08406-6.55156-0.525419-9.58214 0.601672 0.16742-1.0136-0.67649-0.950352-0.10916-2.02356 0.30694-1.25854 0.61398-2.51704 0.92087-3.77557-1.47417-0.68198-3.08847-1.07732-4.71758-1.04849zm-88.9762 1.58378c-2.80934-0.04695-5.96619 1.54491-6.67839 4.45182-0.829 2.75099 0.78504 5.93743 3.49596 6.89866 1.39282 0.662123 3.17222 0.779808 4.16927 2.03573-0.21237 0.762035-1.23712 0.490083-1.82447 0.568082-1.70211-0.0047-3.37402-0.597756-4.75449-1.58182-0.60216 1.69775-1.20404 3.39563-1.80616 5.09338 3.42086 2.12285 7.90883 2.50138 11.6066 0.895552 1.63556-0.893552 2.70797-2.67618 2.83396-4.52397 0.58548 2.54124 2.57863 4.76365 5.17835 5.303 3.24663 0.809944 7.15986-0.758469 8.36051-4.0186 1.41306-3.36431 0.64251-7.84004-2.5136-9.95128-2.72824-1.79703-6.69698-1.56267-9.03046 0.796953-1.50075 1.38527-2.26259 3.41703-2.26371 5.43864-0.5679-1.96497-2.27236-3.35466-4.15641-3.99273-1.16164-0.495019-2.58029-0.732446-3.46351-1.64307 0.32979-0.617375 1.27401-0.316924 1.85118-0.370341 1.33657 0.117829 2.53037 0.677728 3.65495 1.37569 0.61328-1.67607 1.22598-3.35242 1.83887-5.02864-1.92976-1.21808-4.22242-1.80738-6.4987-1.74711zm89.5524 3.61196c0.87135 0.04761 1.71708 0.309792 2.48955 0.713652-1.15036-0.01743-2.39949 0.06925-3.48253-0.03851 0.12627-0.419004 0.55825-0.707975 0.99307-0.675141zm26.3553 0.385373c-3.67453 0.1117-6.91332 3.4057-6.94087 7.08814-0.30489 2.9971 1.09032 6.42056 4.04272 7.5675 2.47389 1.03244 5.40056 0.882169 7.8129-0.220395 0.25283-0.195728 0.34352-0.592331 0.3944-0.833016 1.84182 1.7857 4.639 1.76389 7.03023 1.59049 1.56437-0.137151 3.10776-0.440455 4.64305-0.760539-0.25698-3.67209 0.43848-7.45521-0.44846-11.0768-0.85653-2.25094-3.36325-3.4622-5.68288-3.34082-1.97271-0.05135-3.93883 0.30543-5.81448 0.901018-0.0914 0.202791-0.7004-0.25162-1.03131-0.303709-1.28125-0.471849-2.64448-0.655229-4.00525-0.612062zm-201.912 0.0057c-3.6674-0.04878-6.81683 3.30027-6.89766 6.90216-0.34182 2.9957 0.984656 6.44112 3.90974 7.66063 2.76362 1.19323 6.02451 0.930469 8.74618-0.220409 0.973526-0.803609 0.200123-2.16382 0.141754-3.15749 0.03766-0.45862-0.572498-1.42227 0.247444-1.23089 0.673278 0.0003 0.891007-0.722797 0.800518-1.27655 0.284192-2.77295-0.393855-6.04468-2.91199-7.62847-1.1886-0.7723-2.6326-1.0803-4.0364-1.0492zm66.3057 0c-1.77006 0.04932-3.53049 0.361657-5.2133 0.911659 0.26862 1.70068 0.53687 3.40151 0.80515 5.10233 0.29347-0.07504 1.44719-0.506821 0.64048-0.137925-1.47459 0.737075-2.44423 2.30659-2.48073 3.95036-1.27484-0.00009-2.54966-0.0001-3.82457-0.0003 1.49711-1.93743 3.14286-3.76368 4.79295-5.58491v-3.91261h-12.1124v5.16708h4.05419c-1.59444 1.95658-3.19838 3.93414-4.38658 6.1725 0.249275 1.02986-0.409362 2.41441 0.651674 3.15036 1.91257 0.283768 3.93673 0.15035 5.89292 0.186344 2.00333-0.013 4.00679-0.04258 6.01012-0.0063 0.0397-0.535501-0.009-1.1624 0.0131-1.64335 1.63065 1.87995 4.36365 1.99588 6.67098 1.87436 1.75916-0.107309 3.49428-0.441125 5.21583-0.80379-0.25674-3.67125 0.43732-7.45325-0.44737-11.0746-0.85489-2.25429-3.36563-3.46262-5.68583-3.34599-0.19882-0.0051-0.39763-0.0073-0.59649-0.0052zm-24.5766 0.04335c-2.10219 0.02593-4.19305 0.379263-6.207 0.975033v13.9727h5.7591c0.02415-3.22909-0.04823-6.54572 0.03605-9.72027 0.610547-0.101236 1.45558 0.156085 1.31235 0.931055 0.290863 2.52516-0.01475 5.07968 0.07838 7.60246 0.0957 0.821173 0.909942 1.39096 1.71707 1.1867h4.09166c-0.288821-3.79654 0.485533-7.72551-0.53586-11.4573-0.83447-2.20507-3.18426-3.53379-5.49033-3.47758-0.25361-0.01219-0.507585-0.01534-0.761461-0.01284zm70.4416 0.2629c-1.52479 0.0478-3.05071 0.0021-4.57593 0.02294 0.27046 3.78256-0.48348 7.69321 0.53069 11.4106 0.79205 2.11586 2.98526 3.51002 5.22212 3.49016 2.26621 0.162238 4.60865-0.139136 6.72887-0.910834 1.00617-0.929993 0.27863-2.3705 0.50526-3.52946v-10.4636h-5.75882c-0.0273 3.233 0.0544 6.56655-0.0407 9.73691-0.64645 0.102313-1.45655-0.245552-1.30552-1.02091-0.30983-2.53522 0.0391-5.12359-0.0964-7.66804-0.109-0.5809-0.581-1.1047-1.209-1.0677zm95.536 5.38312c-0.27414 0.760959 1.54367-0.311568 0.78494 0.134919-1.45978 0.690902-2.46689 2.20297-2.57331 3.79011-0.98389-0.163971-1.85747 0.565078-2.85298 0.470576-1.00398 0.104176-2.17559-0.465667-2.21643-1.57721-0.26582-1.18488 0.004-2.96536 1.42467-3.20881 1.28339-0.238323 2.5115 0.362944 3.66124 0.809524 0.3813-1.46226 0.76236-2.92453 1.14356-4.38679 0.20949 1.32261 0.41897 2.64528 0.62846 3.96784zm-47.973-1.1872c0.20341 0.574697 0.50408 1.21845 0.64238 1.75774-0.48069 0.0011-0.96409 0.08881-1.44313 0.02076 0.25585-0.541807 0.52142-1.70208 0.78802-1.81171l0.0127 0.03313zm-159.43 0.62c0.9914 0.1892-0.06 0.1933-0.4796 0.1753-0.6796 0.0269 0.3182-0.2278 0.4796-0.1753zm28.0599 0.0016c0.986405 0.190234-0.07715 0.189646-0.486706 0.17425-0.669295 0.02318 0.319851-0.226716 0.486706-0.17425zm71.6278 0.1201c1.24974 0.0359 1.50886 1.63496 1.43335 2.62332 0.21648 1.20213-1.08435 2.98899-2.23713 1.83101-0.80225-1.12876-0.77613-2.75295-0.11908-3.94603 0.2-0.3121 0.546-0.5312 0.923-0.5082zm-85.7516 0.03113c1.18502 0.195071 1.24422 1.69789 1.20255 2.64947-0.0056 1.02845-0.732277 2.33987-1.91215 2.12075-0.567408 0.210818-0.183076-0.598455-0.293605-0.901283-0.0065-1.25768-0.119712-2.52488 0.06446-3.77557 0.306637-0.07381 0.62456-0.09047 0.93872-0.09341zm52.6606 4.356c0.27291 0.03469 0.55382-0.07584 0.47251 0.317357 0.26372 0.543347-0.51909 0.278372-0.83712 0.355058-0.35129 0.14487-1.08863-0.368272-0.49462-0.57246 0.27618-0.09188 0.57212-0.08799 0.85923-0.09996zm145.865 0.0008c0.2727 0.0382 0.52696-0.05706 0.46594 0.315721 0.27252 0.579243-0.63274 0.271114-0.96166 0.351506-0.46552 0.118187-0.8884-0.534131-0.25537-0.600861 0.24626-0.05595 0.50041-0.05396 0.75109-0.06637zm-212.162 0.3056c0.740597 0.0097 1.48131-0.001 2.22189-0.0055-0.835813 0.173913-1.71777 0.231638-2.54855-0.0006 0.108883 0.002 0.21777 0.004 0.326648 0.006zm28.0557 0c0.741324 0.0098 1.4827-0.0004 2.22399-0.0055-0.83324 0.171718-1.7119 0.227555-2.54002-0.0003 0.105333 0.0019 0.210667 0.0038 0.316007 0.0057z"/>
  <g id="g5176-2-7-1" transform="matrix(.499991 0 0 .499990 270.553 40.3171)">
   <path id="rect4933-5-8-1-8-5-6-8-3-1-2-2-9" fill="#c83737" d="m-516.16 56.848a25.042 25.042 0 0 0 25.042 25.042h25.042a25.042 25.042 0 0 0 -25.042 -25.042h-25.042z"/>
   <path id="rect4933-31-1-8-4-7-6-6-0-9-2-8-0-8-9" fill="#fc0" d="m-491.12 81.89h-25.042a25.042 25.042 0 0 0 25.042 25.042 25.042 25.042 0 0 0 25.042 -25.042h-25.042z"/>
   <path id="rect4933-3-6-4-2-6-9-2-7-6-0-6-1-5" fill="#c83737" d="m-491.12 56.848v25.042 25.042a25.042 25.042 0 0 0 25.04 -25.04 25.042 25.042 0 0 0 -25.04 -25.042z"/>
   <path id="rect4933-8-7-4-1-21-4-3-0-1-31-5-8-02" fill="#0a4" d="m-491.12 31.806a25.042 25.042 0 0 0 -25.042 25.042h25.042v-25.042zm-25.042 25.042a25.042 25.042 0 0 0 25.042 25.042v-25.042h-25.042z"/>
   <path id="rect4933-31-1-8-4-6-8-5-5-8-2-2-8-9" fill="#fc0" d="m-491.12 31.806a25.042 25.042 0 0 0 -25.042 25.042h25.042 25.042a25.042 25.042 0 0 0 -25.04 -25.042v-0.000245z"/>
   <path id="rect4933-31-1-8-4-75-4-3-7-6-8-3-2" fill="#fc0" d="m-466.07 56.848a25.042 25.042 0 0 0 -25.042 -25.042v25.042h25.042z"/>
   <path id="rect4933-8-7-4-1-18-1-96-4-1-8-7-2" fill="#0a4" d="m-491.12 31.806a25.042 25.042 0 0 0 -25.042 25.042h25.042v-25.042z"/>
   <path id="rect4933-5-8-1-4-6-33-4-0-1-9-9" fill="#06f" d="m-516.16 56.848a25.042 25.042 0 0 0 25.042 25.042v-25.042h-25.042z"/>
   <path id="rect4933-3-6-4-2-9-4-8-0-5-6-0-2" fill="#c83737" d="m-466.07 81.89a25.042 25.042 0 0 0 -25.042 -25.042v25.042h25.042z"/>
   <path id="rect4933-8-7-4-1-1-3-8-8-5-1-1-8-2" fill="#0a4" d="m-491.12 106.93a25.042 25.042 0 0 0 25.042 -25.042h-25.042v25.042z"/>
  </g>
  <path id="path4177" fill="#fff" d="m58.0227 66.0637-3.5216 0.5683v17.3634c0.314999 0.0945 0.678397 0.188695 1.0879 0.283196 0.409502 0.07875 0.834401 0.14989 1.27539 0.212886 0.456753 0.063 0.914346 0.11108 1.3711 0.142577 0.472513 0.04725 0.920456 0.07032 1.34572 0.07032 1.02376 0 1.93704-0.14996 2.74027-0.449208 0.8032-0.315 1.48-0.7552 2.0313-1.3222 0.551256-0.567006 0.970407-1.25142 1.25391-2.05461 0.299254-0.803259 0.447272-1.7011 0.447272-2.69338 0-0.976517-0.117268-1.85898-0.353525-2.64653-0.236256-0.803259-0.582313-1.48967-1.03907-2.05657-0.456754-0.567006-1.02394-0.99956-1.70113-1.29881-0.677265-0.315009-1.45781-0.472645-2.33991-0.472645-0.488259 0-0.943908 0.04808-1.36916 0.142577-0.425248 0.0945-0.834764 0.227135-1.22852 0.400391v-6.18941zm124.677 0-3.51958 0.568349v17.7661h3.51958v-9.45109c0.2205-0.063 0.46467-0.116807 0.73243-0.164055 0.28349-0.063 0.58344-0.0957 0.89845-0.0957 0.7875 0 1.32393 0.236476 1.60744 0.708982 0.29927 0.472505 0.44727 1.27611 0.44727 2.41007v6.59172h3.52155v-7.01752c0-0.85051-0.0865-1.6214-0.25978-2.31442-0.1575-0.693012-0.44207-1.29091-0.85156-1.79493-0.39376-0.504011-0.92824-0.890447-1.60549-1.15819-0.66149-0.283503-1.49584-0.425772-2.50394-0.425772-0.3465 0-0.7099 0.04041-1.0879 0.119138-0.36227 0.063-0.66219 0.132189-0.89844 0.210942v-5.95309zm38.5044 0c-1.77971 0-3.12551 0.472939-4.03906 1.41794-0.89775 0.94501-1.34767 2.22157-1.34767 3.82815v13.0878h3.52154v-9.49793h4.34575v-2.9297h-4.34575v-0.613278c0-0.330754 0.0307-0.638364 0.0937-0.921868 0.0788-0.283503 0.19799-0.527657 0.35549-0.732419 0.17324-0.204747 0.40009-0.362398 0.68358-0.472645 0.29926-0.126003 0.66266-0.189449 1.0879-0.189449 0.31502 0 0.65339 0.04041 1.01564 0.119143 0.37801 0.063 0.72409 0.16488 1.03907 0.306632l0.68556-2.81056c-0.29925-0.126003-0.72415-0.252907-1.2754-0.378899-0.55125-0.141751-1.15884-0.212886-1.82041-0.212886zm16.2968 0.236322c-0.567 0-1.065 0.190346-1.49025 0.568364-0.41 0.3622-0.614 0.8659-0.614 1.5117 0 0.645761 0.2038 1.15714 0.6133 1.53512 0.42524 0.362259 0.92323 0.542968 1.49025 0.542968 0.567 0 1.05341-0.180709 1.46285-0.542968 0.42525-0.378004 0.63869-0.889385 0.63869-1.53512 0-0.645763-0.21344-1.14945-0.63869-1.51177-0.4095-0.378004-0.8959-0.568364-1.46285-0.568364zm-105.304 1.3476c-0.92926 0-1.76364 0.117262-2.50394 0.353519-0.74026 0.220493-1.36894 0.543486-1.88865 0.968741-0.51976 0.425255-0.9216 0.944326-1.20511 1.55861-0.28348 0.598511-0.42577 1.27718-0.42577 2.03321 0 0.756009 0.13461 1.40199 0.40234 1.93743 0.26775 0.519755 0.6138 0.967692 1.03907 1.3457 0.42525 0.362259 0.90591 0.66987 1.44145 0.921869 0.53552 0.236252 1.06998 0.447711 1.60548 0.636714 1.22851 0.40951 2.09562 0.795946 2.5996 1.15819 0.50401 0.346499 0.75587 0.788702 0.75587 1.3242 0 0.251999-0.0404 0.478841-0.11914 0.683588-0.0788 0.204762-0.21909 0.387415-0.42384 0.544913-0.20475 0.141752-0.48163 0.259017-0.82814 0.353519-0.33074 0.07875-0.75564 0.117182-1.27541 0.117182-1.0395 0-1.92193-0.101883-2.64643-0.306631-0.708-0.2205-1.306-0.4647-1.795-0.7324l-1.03907 2.9297c0.22049 0.126003 0.48774 0.260598 0.80274 0.40235 0.33076 0.141751 0.71721 0.274386 1.15822 0.400378 0.45675 0.126003 0.97585 0.229834 1.55864 0.30859 0.58276 0.0945 1.23644 0.140618 1.96094 0.140618 2.15771 0 3.77284-0.417185 4.84386-1.25194 1.07102-0.85051 1.60549-2.03867 1.60549-3.56637 0-0.787514-0.10189-1.45849-0.30664-2.00972-0.20475-0.551261-0.52006-1.02993-0.94532-1.43947-0.40951-0.40951-0.92862-0.765196-1.55864-1.06445-0.63-0.315008-1.3702-0.630296-2.22077-0.945304-0.4095-0.141752-0.78827-0.274386-1.13478-0.400392-0.33077-0.141752-0.62874-0.291712-0.8965-0.449209-0.25199-0.173257-0.45003-0.361643-0.59179-0.566406-0.14175-0.204761-0.2129-0.456605-0.2129-0.755854 0-0.503996 0.19036-0.875065 0.56835-1.11132 0.39376-0.251998 1.03012-0.378899 1.91215-0.378899 0.78752 0 1.45656 0.09615 2.00779 0.285154 0.56701 0.173256 1.08037 0.377025 1.53711 0.613278l1.06252-2.90621c-0.51977-0.283504-1.18115-0.543039-1.98445-0.779292-0.80326-0.236253-1.75692-0.353519-2.85941-0.353519zm71.6978 0.376956c-0.55126 1.13401-1.0877 2.29904-1.60745 3.49604-0.50399 1.18126-1.0231 2.43482-1.55863 3.75781-0.51977 1.32302-1.05619 2.73225-1.60744 4.2285-0.55125 1.49624-1.1338 3.12659-1.74812 4.89062h3.82822c0.174-0.5671 0.362-1.1496 0.567-1.7481 0.22051-0.598497 0.43195-1.19639 0.63672-1.79493h6.379l0.61525 1.79493c0.2205 0.598511 0.41659 1.18103 0.58983 1.74809h3.9454c-0.61425-1.76403-1.1968-3.39438-1.74812-4.89062-0.55125-1.49624-1.09341-2.90551-1.62897-4.2285-0.51976-1.32302-1.0408-2.57648-1.56059-3.75781-0.51974-1.19702-1.04654-2.36211-1.582-3.49604h-3.51958zm-31.788 0.2832l-3.51958 0.568349v10.4413c0 0.803259 0.0711 1.53568 0.21289 2.19724 0.15751 0.661507 0.42474 1.22865 0.80274 1.7011 0.37801 0.45676 0.88174 0.820137 1.51165 1.08788 0.63002 0.252012 1.42593 0.376955 2.38676 0.376955 0.75602 0 1.39434-0.06345 1.91411-0.18945 0.51974-0.125999 0.99077-0.275965 1.41599-0.449209l-0.49609-2.74022c-0.33 0.126-0.7 0.2298-1.109 0.3086-0.39375 0.063-0.78019 0.09375-1.15822 0.09375-0.7875 0-1.31428-0.221108-1.58199-0.662108-0.25202-0.441001-0.37892-1.03121-0.37892-1.77144v-4.37099h4.22857v-2.9297h-4.22857v-3.66202zm-126.04 3.332c-0.756007 0-1.49627 0.14227-2.22077 0.425773-0.7087 0.2835-1.3374 0.7007-1.8886 1.2519-0.5513 0.5513-1.0012 1.2433-1.3477 2.0781-0.330746 0.819005-0.496104 1.78025-0.496104 2.88286 0 0.913506 0.12691 1.76319 0.378906 2.55075 0.267748 0.787513 0.669587 1.47387 1.20508 2.05657 0.551255 0.567007 1.23569 1.01494 2.05464 1.3457 0.834764 0.330754 1.81146 0.496081 2.92975 0.496081 0.441008 0 0.881274-0.02305 1.32228-0.07031 0.441008-0.04725 0.850524-0.110699 1.22852-0.18945 0.393757-0.063 0.749449-0.141822 1.06446-0.236323 0.315-0.0945 0.566862-0.188695 0.755868-0.283196l-0.472668-2.85936c-0.393756 0.173258-0.907116 0.323217-1.5371 0.449209-0.6142 0.1103-1.2429 0.166-1.8886 0.166-1.00801 0-1.8116-0.213417-2.41011-0.638658-0.598508-0.425255-0.936888-1.00009-1.01563-1.7246h7.98448c0.01573-0.189002 0.03113-0.400462 0.04686-0.636715 0.01573-0.251998 0.02542-0.480783 0.02542-0.685531 0-2.09474-0.513361-3.67698-1.5371-4.74799-1.02376-1.08676-2.41766-1.63091-4.18172-1.63091zm28.0543 0c-0.756007 0-1.49627 0.14227-2.22077 0.425773-0.708755 0.283503-1.33744 0.700689-1.88865 1.25194-0.551257 0.55126-1.00116 1.24334-1.34766 2.0781-0.33076 0.819005-0.496104 1.78025-0.496104 2.88286 0 0.913506 0.12691 1.76319 0.378906 2.55075 0.267762 0.787513 0.669587 1.47387 1.20508 2.05657 0.551256 0.567007 1.23569 1.01494 2.05464 1.3457 0.83475 0.330754 1.81146 0.496081 2.92975 0.496081 0.441008 0 0.881274-0.02305 1.32228-0.07031 0.441007-0.04725 0.850523-0.110699 1.22852-0.18945 0.393756-0.063 0.749463-0.141822 1.06446-0.236323 0.315-0.0945 0.566862-0.188695 0.755868-0.283196l-0.4726-2.8594c-0.3938 0.1733-0.9071 0.3232-1.5371 0.4492-0.6143 0.1103-1.2429 0.166-1.8887 0.166-1.00801 0-1.8116-0.213417-2.41011-0.638658-0.598507-0.425255-0.936873-1.00009-1.01563-1.7246h7.98448c0.01573-0.189002 0.03113-0.400462 0.04686-0.636715 0.01573-0.251998 0.02542-0.480783 0.02542-0.685531 0-2.09474-0.51336-3.67698-1.5371-4.74799-1.02376-1.08676-2.41766-1.63091-4.18172-1.63091zm38.2779 0c-0.4095 0-0.81902 0.02305-1.22851 0.07032-0.39376 0.03152-0.77058 0.07957-1.13284 0.142577-0.36226 0.04725-0.70063 0.1107-1.01563 0.189449-0.29927 0.06301-0.55112 0.124499-0.75587 0.187492l0.44726 2.83587c0.42525-0.157498 0.92898-0.276721 1.5118-0.355463 0.583-0.0945 1.175-0.1406 1.773-0.1406 0.89776 0 1.52648 0.180711 1.88866 0.542956 0.36225 0.362258 0.54492 0.842889 0.54492 1.44143v0.330068c-0.2205-0.063-0.51276-0.109125-0.87501-0.140618-0.34651-0.04725-0.74835-0.07227-1.20509-0.07227-0.67726 0-1.33094 0.07114-1.96094 0.212886-0.63002 0.126001-1.1895 0.33941-1.67779 0.638673-0.48826 0.299249-0.88044 0.701053-1.17969 1.20506-0.2835 0.504011-0.42578 1.11727-0.42578 1.84178 0 0.756009 0.12496 1.39429 0.37694 1.91407 0.252 0.519756 0.6154 0.94462 1.0879 1.27537 0.4725 0.315008 1.03201 0.543794 1.67778 0.685532 0.66152 0.141766 1.39207 0.212886 2.19532 0.212886 1.27576 0 2.36397-0.07882 3.26172-0.236323 0.89778-0.141751 1.59766-0.268652 2.10163-0.378899v-7.32223c0-0.771754-0.0865-1.47345-0.25977-2.10355-0.17326-0.630016-0.47125-1.16444-0.8965-1.60546-0.4095-0.441013-0.9613-0.781318-1.65428-1.01757-0.69301-0.236252-1.56017-0.353505-2.59959-0.353505zm33.5486 0c-0.88201 0-1.70099 0.157652-2.45709 0.47266-0.74027 0.314994-1.38625 0.75524-1.93746 1.32225-0.536 0.567-0.961 1.2534-1.276 2.0566-0.29925 0.80326-0.44922 1.69341-0.44922 2.66989 0 0.976515 0.14997 1.87436 0.44922 2.69338 0.29927 0.803259 0.71647 1.49541 1.25198 2.0781 0.5355 0.567007 1.17186 1.00725 1.91214 1.32226 0.75601 0.314994 1.59234 0.472645 2.5059 0.472645 0.92925 0 1.76364-0.157651 2.50395-0.472645 0.75602-0.315008 1.40201-0.755254 1.93759-1.32226 0.5355-0.582751 0.94504-1.27484 1.22852-2.0781 0.28351-0.819019 0.42384-1.71677 0.42384-2.69338 0-0.976517-0.14801-1.86667-0.44727-2.66989-0.29924-0.803259-0.71841-1.48967-1.25392-2.05657-0.5355-0.567006-1.17953-1.00725-1.9355-1.32225-0.74026-0.315008-1.55934-0.47266-2.4571-0.47266zm102.444 0c-1.008 0-1.90585 0.17302-2.69342 0.519533-0.789 0.3465-1.46 0.8195-2.011 1.418-0.551 0.5827-0.976 1.2748-1.275 2.0781-0.2835 0.787514-0.42383 1.63147-0.42383 2.52935 0 0.929265 0.11727 1.79437 0.35353 2.59759 0.252 0.787514 0.63846 1.47387 1.1582 2.05657 0.5355 0.582753 1.21226 1.04606 2.03128 1.39257 0.81901 0.330754 1.79567 0.496082 2.92975 0.496082 0.74027 0 1.41699-0.0615 2.0313-0.187492 0.61425-0.125998 1.12566-0.275952 1.53513-0.449209l-0.496-2.8829c-0.40949 0.173256-0.85745 0.2982-1.3457 0.376942-0.48827 0.07876-0.94587 0.119143-1.37112 0.119143-1.19701 0-2.03911-0.307611-2.52743-0.921867-0.47251-0.614257-0.70899-1.47932-0.70899-2.59759 0-1.05527 0.25186-1.90694 0.75587-2.5527 0.51976-0.645763 1.30034-0.968742 2.3399-0.968742 0.48825 0 0.92852 0.04808 1.32228 0.142577 0.39375 0.0945 0.75519 0.204076 1.08594 0.330069l0.73244-2.81056c-0.51976-0.220493-1.05422-0.385835-1.60548-0.496081-0.55126-0.126004-1.15687-0.18945-1.81846-0.18945zm9.86531 0c-0.4095 0-0.81902 0.02305-1.22852 0.07032-0.39376 0.03152-0.77253 0.07957-1.13479 0.142577-0.36224 0.04725-0.70062 0.1107-1.01561 0.189449-0.29926 0.06301-0.55112 0.124499-0.75587 0.187492l0.44921 2.83587c0.42524-0.157498 0.92897-0.276721 1.51179-0.355463 0.583-0.0945 1.173-0.1406 1.771-0.1406 0.89777 0 1.52843 0.180711 1.89061 0.542956 0.36227 0.362258 0.54297 0.842889 0.54297 1.44143v0.330068c-0.2205-0.063-0.51079-0.109125-0.87304-0.140618-0.34651-0.04725-0.74834-0.07227-1.20509-0.07227-0.67726 0-1.33096 0.07114-1.96096 0.212886-0.63001 0.126001-1.18949 0.33941-1.67777 0.638673-0.48826 0.299249-0.8824 0.701053-1.18165 1.20506-0.28351 0.504011-0.4258 1.11727-0.4258 1.84178 0 0.756009 0.12691 1.39429 0.37892 1.91407 0.25201 0.519756 0.61345 0.94462 1.08595 1.27537 0.47251 0.315008 1.03198 0.543794 1.67777 0.685532 0.66151 0.141766 1.39404 0.212886 2.19728 0.212886 1.27574 0 2.36201-0.07882 3.25977-0.236323 0.89776-0.141751 1.59946-0.268652 2.10358-0.378899v-7.32223c0-0.771754-0.0865-1.47345-0.25978-2.10355-0.17324-0.630016-0.4732-1.16444-0.89842-1.60546-0.40952-0.441013-0.96132-0.781318-1.65429-1.01757-0.693-0.236252-1.55822-0.353505-2.59763-0.353505zm-170.407 0.04686c-1.0395 0-2.03157 0.07883-2.9766 0.236322-0.945012 0.141752-1.71791 0.299404-2.31642 0.47266v12.0018h3.52155v-9.59176c0.220497-0.03152 0.47236-0.05457 0.755867-0.07031 0.283508-0.03152 0.55074-0.04882 0.802742-0.04882 0.819004 0 1.3785 0.236476 1.67778 0.708982 0.299 0.4725 0.449 1.2761 0.449 2.41v6.59172h3.51959v-7.01752c0-0.85051-0.08651-1.6214-0.259763-2.31442-0.17326-0.693013-0.465508-1.29091-0.87501-1.79493-0.409502-0.504011-0.967036-0.890448-1.67582-1.15819-0.69301-0.283503-1.56787-0.425773-2.62308-0.425773zm143.04 0.02345c-1.05526 0-2.01661 0.101885-2.8829 0.306632-0.85051 0.189003-1.59066 0.394729-2.22078 0.615235v11.7655h3.52155v-9.49793c0.1575-0.04725 0.38632-0.08569 0.68556-0.117189 0.315-0.04725 0.58224-0.07226 0.80274-0.07226 0.48826 0 0.9439 0.04808 1.36916 0.142577 0.42524 0.07875 0.79633 0.15758 1.11133 0.236322l0.58985-2.90621c-0.189-0.07875-0.41779-0.142199-0.68556-0.18945-0.26775-0.063-0.53499-0.109121-0.80274-0.140618-0.26774-0.04725-0.53497-0.07994-0.80273-0.0957-0.26775-0.03151-0.49654-0.04686-0.68556-0.04686zm-25.3163 0.02345c0.0945 0.236252 0.22142 0.559245 0.37891 0.96874 0.1575 0.40951 0.33823 0.882449 0.54298 1.41794 0.22049 0.535515 0.4493 1.12571 0.68554 1.77144 0.23626 0.645761 0.48045 1.32443 0.73245 2.03321h-4.65438c0.252-0.708758 0.49618-1.38742 0.73242-2.03321 0.25202-0.645762 0.48081-1.23595 0.68556-1.77144 0.20476-0.535516 0.38548-1.00846 0.54298-1.41794 0.1575-0.409509 0.27478-0.732488 0.35351-0.96874zm-109.622 0.236322v2.9297h5.29105c-0.42525 0.503997-0.88858 1.07114-1.39257 1.7011-0.504005 0.614257-1.01542 1.25254-1.53514 1.91407-0.504005 0.661507-0.992362 1.32285-1.4648 1.98441-0.456753 0.645762-0.850901 1.25134-1.18165 1.81829v2.08006h10.2774v-2.9297h-6.00199c0.456748-0.661507 0.960458-1.34591 1.51179-2.05461 0.567-0.708759 1.1265-1.38742 1.67778-2.03321 0.55126-0.645762 1.06265-1.23597 1.53514-1.77144 0.48825-0.535502 0.8747-0.960379 1.15821-1.27537v-2.36323h-9.87509zm58.7041 0v6.92383c0 0.85051 0.0865 1.62909 0.25978 2.33792 0.17324 0.708759 0.46549 1.32398 0.87501 1.84374 0.40949 0.50401 0.95935 0.89618 1.65232 1.17968 0.70877 0.283503 1.59122 0.425772 2.64658 0.425772 1.0395 0 2.03157-0.07882 2.9766-0.236323 0.94501-0.141751 1.71791-0.299402 2.31641-0.472645v-12.0018h-3.52154v9.59176c-0.2205 0.03152-0.47236 0.0642-0.75587 0.0957-0.28349 0.01573-0.55073 0.02345-0.80272 0.02345-0.81901 0-1.37849-0.251844-1.67778-0.755855-0.29926-0.503995-0.44922-1.32299-0.44922-2.45706v-6.49803h-3.51959zm81.0978 0v12.4276h3.52154v-12.4276h-3.52154zm-189.621 2.57298c0.409502 0 0.747882 0.07114 1.01563 0.212887 0.283508 0.141751 0.510354 0.322461 0.683599 0.542954 0.189006 0.220508 0.323601 0.472352 0.402343 0.755855 0.0945 0.283504 0.150256 0.575733 0.166016 0.874995h-4.65438c0.04725-0.299262 0.118392-0.591491 0.21289-0.874995 0.110252-0.299249 0.260225-0.558784 0.449216-0.779292 0.1894-0.2205 0.4239-0.3936 0.7074-0.5196 0.283507-0.141752 0.623831-0.212887 1.01759-0.212887zm28.0543 0c0.409502 0 0.747882 0.07114 1.01563 0.212887 0.283494 0.141751 0.51034 0.322461 0.683599 0.542954 0.189006 0.220508 0.323599 0.472352 0.402343 0.755855 0.0945 0.283504 0.15027 0.575733 0.166016 0.874995h-4.65438c0.04725-0.299262 0.118392-0.591491 0.212889-0.874995 0.11025-0.299249 0.260226-0.558784 0.449217-0.779292 0.189005-0.220492 0.423528-0.393526 0.707035-0.519517 0.283495-0.141752 0.623833-0.212887 1.01759-0.212887zm71.7777 0.1172c0.80325 0 1.41656 0.315288 1.84181 0.945305 0.44101 0.614257 0.66211 1.4659 0.66211 2.5527 0 1.08676-0.2211 1.95183-0.66211 2.59759-0.42526 0.630002-1.03856 0.945304-1.84181 0.945304s-1.4262-0.315302-1.86725-0.945304c-0.44101-0.645762-0.66213-1.51093-0.66213-2.59759 0-1.08676 0.22112-1.93841 0.66213-2.5527 0.441-0.630003 1.06394-0.945305 1.86725-0.945305zm-85.9893 0.02345c1.66953 0 2.50394 1.13429 2.50394 3.40235 0 1.08676-0.244172 1.96148-0.73243 2.62304-0.48826 0.661507-1.21308 0.992177-2.17379 0.992177-0.314999 0-0.607261-0.0077-0.875009-0.02345-0.267749-0.03152-0.486917-0.0642-0.660163-0.0957v-6.40225c0.2208-0.1419 0.5034-0.2591 0.8499-0.3536 0.36225-0.0945 0.725648-0.142577 1.0879-0.142577zm53.0553 4.3475c0.23626 0 0.49581 0.01539 0.77931 0.04686 0.28351 0.03152 0.49694 0.06421 0.63867 0.0957v2.66989c-0.18901 0.03152-0.44282 0.05456-0.75782 0.07031-0.31498 0.01573-0.64569 0.02345-0.99219 0.02345-0.64576 0-1.15717-0.10189-1.53514-0.306632-0.363-0.2205-0.544-0.6069-0.544-1.1582 0-0.283504 0.0635-0.519966 0.18945-0.708968 0.126-0.189002 0.29903-0.338963 0.51953-0.449223 0.221-0.1102 0.473-0.1814 0.756-0.2129 0.29927-0.04725 0.61456-0.07032 0.94532-0.07032zm145.851 0c0.23624 0 0.49775 0.01539 0.78125 0.04686 0.28352 0.03152 0.49498 0.06421 0.63673 0.0957v2.66989c-0.189 0.03152-0.44086 0.05456-0.75587 0.07031-0.315 0.01573-0.64569 0.02345-0.99218 0.02345-0.64576 0-1.15717-0.10189-1.53514-0.306632-0.36226-0.220508-0.54298-0.60693-0.54298-1.15819 0-0.283504 0.0615-0.519966 0.1875-0.708968 0.12599-0.189002 0.30097-0.338963 0.52148-0.449223 0.2205-0.110249 0.47236-0.181395 0.75586-0.212886 0.29927-0.04725 0.61262-0.07032 0.94337-0.07032z"/>
  <path id="path4149" d="m116.551 87.9364-1.44545 0.234335v7.28527h1.44545v-3.87697c0.0904281-0.0258364 0.189494-0.0479071 0.2993-0.0672844 0.116265-0.0258364 0.239721-0.0371224 0.368904-0.0371224 0.322958 7e-14 0.542658 0.0962456 0.658923 0.290019 0.122724 0.193773 0.183292 0.523329 0.183292 0.988384v2.70298h1.44313v-2.87699c0-0.348792-0.0356763-0.667061-0.106727-0.951262-0.0645915-0.284201-0.180085-0.528796-0.348023-0.735488-0.161479-0.206692-0.381179-0.365826-0.658923-0.475631-0.271284-0.116264-0.614441-0.174011-1.02783-0.174011-0.142101 9.9e-14 -0.290449 0.0164276-0.445469 0.0487232-0.148561 0.0258364-0.269697 0.0558702-0.366584 0.0881657v-2.44312zm22.3848 0-1.44313 0.234335v7.12054c0.129183 0.0387547 0.277531 0.0772529 0.445469 0.116008 0.167938 0.0322955 0.343498 0.0623293 0.524354 0.0881657 0.187315 0.0258364 0.374161 0.0450856 0.561477 0.0580038 0.193775 0.0193773 0.377799 0.0278418 0.552196 0.0278418 0.419845 6e-14 0.793536-0.0605689 1.12295-0.183292 0.329417-0.129182 0.606864-0.310387 0.832934-0.542915s0.398809-0.5128 0.515074-0.842215c0.122724-0.329415 0.183292-0.697468 0.183292-1.10439 0-0.400465-0.0492823-0.762875-0.14617-1.08583-0.0968873-0.329415-0.237272-0.609687-0.424588-0.842215-0.187315-0.232528-0.420622-0.410912-0.698366-0.533635-0.277744-0.129182-0.59883-0.194893-0.960543-0.194893-0.200234-4e-14 -0.38708 0.0192491-0.561477 0.0580038s-0.341994 0.0936805-0.503473 0.164731v-2.53825zm53.0851 0-1.44313 0.234335v2.30391c-0.161479-0.0710502-0.323433-0.125976-0.484912-0.164731-0.15502-0.0387547-0.333401-0.0580038-0.533635-0.0580038-0.361713 0-0.6833 0.062889-0.967503 0.185612-0.277744 0.122723-0.513872 0.298787-0.707646 0.531315-0.193775 0.232528-0.342123 0.517942-0.445469 0.853816-0.103346 0.329415-0.15545 0.70029-0.15545 1.11367 0 0.406924 0.0577466 0.774977 0.174011 1.10439 0.122724 0.322955 0.298284 0.600406 0.524354 0.832934 0.22607 0.226069 0.503518 0.401631 0.832934 0.524354 0.329417 0.122723 0.703108 0.183292 1.12295 0.183292 0.174397 0 0.3556-0.00846449 0.542915-0.0278418 0.193775-0.0129182 0.38062-0.0321673 0.561477-0.0580038 0.187315-0.0258364 0.365697-0.0558702 0.533635-0.0881657 0.167938-0.0387547 0.316286-0.0772529 0.445469-0.116008v-7.35488zm-62.4979 0.0974464c-0.232529 0-0.435803 0.0769965-0.6102 0.232015-0.167938 0.14856-0.250576 0.356977-0.250576 0.621801 0 0.264823 0.0826384 0.473742 0.250576 0.628761 0.174397 0.14856 0.37767 0.222735 0.6102 0.222735 0.232529-3e-14 0.432981-0.074175 0.600919-0.222735 0.174397-0.155019 0.262177-0.363937 0.262177-0.628761 0-0.264823-0.08778-0.473241-0.262177-0.621801-0.167938-0.155019-0.36839-0.232015-0.600919-0.232015zm49.2963 0c-0.232529 0-0.435803 0.0769965-0.6102 0.232015-0.167938 0.14856-0.252896 0.356977-0.252896 0.621801 0 0.264823 0.0849585 0.473742 0.252896 0.628761 0.174397 0.14856 0.37767 0.222735 0.6102 0.222735 0.232529-3e-14 0.432981-0.074175 0.600919-0.222735 0.174397-0.155019 0.259857-0.363937 0.259857-0.628761 0-0.264823-0.0854598-0.473241-0.259857-0.621801-0.167938-0.155019-0.36839-0.232015-0.600919-0.232015zm-83.9152 0.552196c-0.465059-6e-14 -0.90446 0.0769965-1.31785 0.232015-0.406927 0.155019-0.761369 0.385507-1.06495 0.689085-0.30358 0.297119-0.54253 0.662351-0.716927 1.09511-0.174397 0.43276-0.262177 0.929915-0.262177 1.49186 0 0.555483 0.0769955 1.04982 0.232015 1.48258 0.161479 0.43276 0.389142 0.797992 0.679804 1.09511 0.290662 0.297119 0.639462 0.522466 1.04639 0.677484 0.413386 0.155019 0.872036 0.232015 1.37585 0.232015 0.587783 0 1.07979-0.0413197 1.48026-0.125288 0.400467-0.0775093 0.691521-0.151684 0.872377-0.222735v-3.32478h-1.51042v2.33639c-0.0904281 0.0193773-0.197457 0.0329835-0.320181 0.0394426-0.116265 0.00645911-0.25897 0.0092806-0.426908 0.0092806-0.310039 3e-14 -0.579523-0.0521044-0.812053-0.15545-0.232529-0.109805-0.427338-0.260976-0.582358-0.45475-0.15502-0.193773-0.270513-0.424261-0.348023-0.689085-0.0775098-0.271283-0.116008-0.570804-0.116008-0.900219 0-0.678207 0.153991-1.21104 0.46403-1.59858 0.316498-0.394006 0.827252-0.591639 1.5313-0.591639 0.316498-3e-14 0.607552 0.0413197 0.872377 0.125288 0.271284 0.0775093 0.510234 0.170933 0.716927 0.280738l0.436188-1.21112c-0.0516732-0.0322955-0.139453-0.0764368-0.262177-0.134569-0.116265-0.058132-0.267434-0.113058-0.45475-0.164731-0.180856-0.058132-0.400557-0.107415-0.658923-0.14617-0.251907-0.0452138-0.537317-0.0672844-0.853816-0.0672844zm115.669 0.15545v1.73315c0 0.523188 0.0192489 1.01188 0.0580038 1.46402 0.0452141 0.452138 0.100139 0.910794 0.164731 1.37585h1.10439c0.0645915-0.465056 0.116695-0.923712 0.15545-1.37585 0.0387549-0.452138 0.0580038-0.940828 0.0580038-1.46402v-1.73315h-1.54058zm-104.989 0.116008-1.44545 0.232015v4.283c0 0.329415 0.0300334 0.628936 0.0881658 0.900219 0.0645915 0.271283 0.174442 0.504592 0.329461 0.698366 0.15502 0.187314 0.361114 0.335664 0.61948 0.445469 0.258366 0.103346 0.585096 0.15545 0.979104 0.15545 0.310039-9.9e-14 0.571059-0.0248921 0.784211-0.076565s0.407961-0.114562 0.582358-0.185612l-0.204173-1.12295c-0.135642 0.0516729-0.286812 0.0929926-0.45475 0.125288-0.161479 0.0258364-0.320611 0.0394426-0.475631 0.0394426-0.322958 0-0.539837-0.0906026-0.649642-0.271458-0.103346-0.180855-0.15313-0.422629-0.15313-0.726207v-1.79348h1.73315v-1.20184h-1.73315v-1.50114zm6.62171 0-1.44313 0.232015v4.283c0 0.329415 0.0300334 0.628936 0.0881658 0.900219 0.0645915 0.271283 0.174442 0.504592 0.329461 0.698366 0.15502 0.187314 0.361114 0.335664 0.61948 0.445469 0.258366 0.103346 0.585096 0.15545 0.979104 0.15545 0.310039-9.9e-14 0.571059-0.0248921 0.784211-0.076565s0.405641-0.114562 0.580038-0.185612l-0.201853-1.12295c-0.135642 0.0516729-0.289132 0.0929926-0.45707 0.125288-0.161479 0.0258364-0.318291 0.0394426-0.473311 0.0394426-0.322958 0-0.539837-0.0906026-0.649642-0.271458-0.103346-0.180855-0.15545-0.422629-0.15545-0.726207v-1.79348h1.73547v-1.20184h-1.73547v-1.50114zm60.6696 0-1.44545 0.232015v4.283c0 0.329415 0.0300334 0.628936 0.0881658 0.900219 0.0645915 0.271283 0.174442 0.504592 0.329461 0.698366 0.15502 0.187314 0.361114 0.335664 0.61948 0.445469 0.258366 0.103346 0.585096 0.15545 0.979104 0.15545 0.310039-9.9e-14 0.571059-0.0248921 0.784211-0.076565s0.407961-0.114562 0.582358-0.185612l-0.204173-1.12295c-0.135642 0.0516729-0.286812 0.0929926-0.45475 0.125288-0.161479 0.0258364-0.320611 0.0394426-0.475631 0.0394426-0.322958 0-0.539837-0.0906026-0.649642-0.271458-0.103346-0.180855-0.15313-0.422629-0.15313-0.726207v-1.79348h1.73315v-1.20184h-1.73315v-1.50114zm9.42213 0-1.44313 0.232015v4.283c0 0.329415 0.0300334 0.628936 0.0881658 0.900219 0.0645915 0.271283 0.174442 0.504592 0.329461 0.698366 0.15502 0.187314 0.361114 0.335664 0.61948 0.445469 0.258366 0.103346 0.585096 0.15545 0.979104 0.15545 0.310039-9.9e-14 0.571059-0.0248921 0.784211-0.076565s0.405641-0.114562 0.580038-0.185612l-0.201853-1.12295c-0.135642 0.0516729-0.289132 0.0929926-0.45707 0.125288-0.161479 0.0258364-0.318291 0.0394426-0.473311 0.0394426-0.322958 0-0.539837-0.0906026-0.649642-0.271458-0.103346-0.180855-0.15545-0.422629-0.15545-0.726207v-1.79348h1.73547v-1.20184h-1.73547v-1.50114zm-81.5672 1.36657c-0.310039 3e-14 -0.614698 0.0577474-0.911819 0.174011-0.290662 0.116264-0.54886 0.286685-0.774931 0.512753-0.22607 0.226069-0.410095 0.511483-0.552196 0.853816-0.135642 0.335874-0.204173 0.728819-0.204173 1.18096 0 0.374628 0.0521037 0.723433 0.15545 1.04639 0.109806 0.322955 0.274581 0.605548 0.494192 0.844535 0.22607 0.232528 0.506339 0.416555 0.842215 0.552196 0.342335 0.135641 0.743239 0.201853 1.20184 0.201853 0.180856 6e-14 0.362059-0.00846449 0.542915-0.0278418s0.348453-0.0465896 0.503473-0.0788851c0.161479-0.0258364 0.307005-0.0563715 0.436188-0.0951262s0.23339-0.0772529 0.3109-0.116008l-0.194893-1.174c-0.161479 0.0710502-0.370395 0.133939-0.628761 0.185612-0.251907 0.0452138-0.510105 0.0672844-0.774931 0.0672844-0.413386-4e-14 -0.742937-0.0877811-0.988384-0.262177-0.245448-0.174396-0.385331-0.410527-0.417627-0.707646h3.27605c0.00645915-0.0775093 0.0121021-0.16529 0.0185612-0.262177 0.00645915-0.103346 0.00928061-0.19677 0.00928061-0.280738 0-0.859062-0.208916-1.50739-0.628761-1.94661-0.419845-0.445679-0.991167-0.668204-1.71459-0.668204zm22.2897 0c-0.310039 3e-14 -0.612378 0.0577474-0.909499 0.174011-0.290662 0.116264-0.54886 0.286685-0.774931 0.512753-0.22607 0.226069-0.410095 0.511483-0.552196 0.853816-0.135642 0.335874-0.204173 0.728819-0.204173 1.18096 0 0.374628 0.0521037 0.723433 0.15545 1.04639 0.109806 0.322955 0.274581 0.605548 0.494192 0.844535 0.22607 0.232528 0.506339 0.416555 0.842215 0.552196 0.342335 0.135641 0.743239 0.201853 1.20184 0.201853 0.180856 6e-14 0.362059-0.00846449 0.542915-0.0278418s0.348453-0.0465896 0.503473-0.0788851c0.161479-0.0258364 0.307005-0.0563715 0.436188-0.0951262s0.23107-0.0772529 0.30858-0.116008l-0.192573-1.174c-0.161479 0.0710502-0.370395 0.133939-0.628761 0.185612-0.251907 0.0452138-0.512425 0.0672844-0.777251 0.0672844-0.413386-4e-14 -0.740617-0.0877811-0.986064-0.262177-0.245448-0.174396-0.385331-0.410527-0.417627-0.707646h3.27373c0.00645915-0.0775093 0.0144222-0.16529 0.0208814-0.262177 0.00645915-0.103346 0.00928061-0.19677 0.00928061-0.280738 0-0.859062-0.211236-1.50739-0.631081-1.94661-0.419845-0.445679-0.991167-0.668204-1.71459-0.668204zm10.856 0c-0.361713 6e-14 -0.699227 0.0633904-1.00927 0.192573-0.30358 0.129182-0.567421 0.310387-0.793492 0.542915-0.219611 0.232528-0.395171 0.51512-0.524354 0.844535-0.122724 0.329415-0.183292 0.692326-0.183292 1.09279 0 0.400465 0.0605681 0.768518 0.183292 1.10439 0.122724 0.329415 0.295462 0.614829 0.515074 0.853816 0.219611 0.232528 0.480631 0.413733 0.784211 0.542915 0.310039 0.129182 0.653196 0.192573 1.02783 0.192573 0.38109-3e-14 0.721927-0.0633904 1.02551-0.192573 0.310039-0.129182 0.576201-0.310387 0.795812-0.542915 0.219611-0.238987 0.387208-0.524401 0.503473-0.853816 0.116265-0.335874 0.174011-0.703927 0.174011-1.10439 0-0.400465-0.0605681-0.763377-0.183292-1.09279-0.122724-0.329415-0.295462-0.612007-0.515074-0.844535-0.219611-0.232528-0.483452-0.413733-0.793492-0.542915-0.30358-0.129182-0.638774-0.192573-1.00695-0.192573zm16.1599 0c-0.361713 6e-14 -0.696906 0.0633904-1.00695 0.192573-0.30358 0.129182-0.569742 0.310387-0.795812 0.542915-0.219611 0.232528-0.392851 0.51512-0.522034 0.844535-0.122724 0.329415-0.185612 0.692326-0.185612 1.09279 0 0.400465 0.0628882 0.768518 0.185612 1.10439 0.122724 0.329415 0.293142 0.614829 0.512753 0.853816 0.219611 0.232528 0.480631 0.413733 0.784211 0.542915 0.310039 0.129182 0.653196 0.192573 1.02783 0.192573 0.38109-3e-14 0.721927-0.0633904 1.02551-0.192573 0.310039-0.129182 0.576201-0.310387 0.795812-0.542915 0.219611-0.238987 0.387208-0.524401 0.503473-0.853816 0.116265-0.335874 0.174011-0.703927 0.174011-1.10439 0-0.400465-0.0605681-0.763377-0.183292-1.09279-0.122724-0.329415-0.293142-0.612007-0.512753-0.844535s-0.485773-0.413733-0.795812-0.542915c-0.30358-0.129182-0.638774-0.192573-1.00695-0.192573zm17.9835 0c-0.310039 3e-14 -0.612378 0.0577474-0.909499 0.174011-0.290662 0.116264-0.54886 0.286685-0.774931 0.512753-0.22607 0.226069-0.410095 0.511483-0.552196 0.853816-0.135642 0.335874-0.204173 0.728819-0.204173 1.18096 0 0.374628 0.0521037 0.723433 0.15545 1.04639 0.109806 0.322955 0.274581 0.605548 0.494192 0.844535 0.22607 0.232528 0.506339 0.416555 0.842215 0.552196 0.342335 0.135641 0.743239 0.201853 1.20184 0.201853 0.180856 6e-14 0.362059-0.00846449 0.542915-0.0278418s0.348453-0.0465896 0.503473-0.0788851c0.161479-0.0258364 0.307005-0.0563715 0.436188-0.0951262s0.23339-0.0772529 0.3109-0.116008l-0.194893-1.174c-0.161479 0.0710502-0.370395 0.133939-0.628761 0.185612-0.251907 0.0452138-0.510105 0.0672844-0.774931 0.0672844-0.413386-4e-14 -0.742937-0.0877811-0.988384-0.262177-0.245448-0.174396-0.385331-0.410527-0.417627-0.707646h3.27605c0.00645915-0.0775093 0.0121021-0.16529 0.0185612-0.262177 0.00645915-0.103346 0.00928061-0.19677 0.00928061-0.280738 0-0.859062-0.208916-1.50739-0.628761-1.94661-0.419845-0.445679-0.993487-0.668204-1.71691-0.668204zm27.6214 0c-0.361713 6e-14 -0.696906 0.0633904-1.00695 0.192573-0.30358 0.129182-0.569742 0.310387-0.795812 0.542915-0.219611 0.232528-0.392851 0.51512-0.522034 0.844535-0.122724 0.329415-0.185612 0.692326-0.185612 1.09279 0 0.400465 0.0628882 0.768518 0.185612 1.10439 0.122724 0.329415 0.293142 0.614829 0.512753 0.853816 0.219611 0.232528 0.480631 0.413733 0.784211 0.542915 0.310039 0.129182 0.653196 0.192573 1.02783 0.192573 0.38109-3e-14 0.724247-0.0633904 1.02783-0.192573 0.310039-0.129182 0.573881-0.310387 0.793492-0.542915 0.219611-0.238987 0.387208-0.524401 0.503473-0.853816 0.116265-0.335874 0.174011-0.703927 0.174011-1.10439 0-0.400465-0.0605681-0.763377-0.183292-1.09279-0.122724-0.329415-0.293142-0.612007-0.512753-0.844535s-0.485773-0.413733-0.795812-0.542915c-0.30358-0.129182-0.638774-0.192573-1.00695-0.192573zm11.5312 0c-0.310039 3e-14 -0.612378 0.0577474-0.909499 0.174011-0.290662 0.116264-0.54886 0.286685-0.774931 0.512753-0.22607 0.226069-0.410095 0.511483-0.552196 0.853816-0.135642 0.335874-0.204173 0.728819-0.204173 1.18096-1e-13 0.374628 0.0521037 0.723433 0.15545 1.04639 0.109806 0.322955 0.274581 0.605548 0.494192 0.844535 0.22607 0.232528 0.506339 0.416555 0.842215 0.552196 0.342335 0.135641 0.743239 0.201853 1.20184 0.201853 0.180856 6e-14 0.362059-0.00846449 0.542915-0.0278418s0.348453-0.0465896 0.503473-0.0788851c0.161479-0.0258364 0.307005-0.0563715 0.436188-0.0951262s0.23107-0.0772529 0.30858-0.116008l-0.192573-1.174c-0.161479 0.0710502-0.370395 0.133939-0.628761 0.185612-0.251907 0.0452138-0.512425 0.0672844-0.777251 0.0672844-0.413386-4e-14 -0.740617-0.0877811-0.986064-0.262177-0.245448-0.174396-0.385331-0.410527-0.417627-0.707646h3.27373c0.00645915-0.0775093 0.0144222-0.16529 0.0208814-0.262177 0.00645915-0.103346 0.00928061-0.19677 0.00928061-0.280738 0-0.859062-0.211236-1.50739-0.631081-1.94661-0.419845-0.445679-0.991167-0.668204-1.71459-0.668204zm-44.7488 0.0185612c-0.406927-4e-14 -0.772154 0.062889-1.09511 0.185612-0.322958 0.116264-0.597583 0.283863-0.823654 0.503473-0.219611 0.21961-0.387208 0.483454-0.503473 0.793492-0.116265 0.303578-0.174011 0.643918-0.174011 1.01855 0 0.749257 0.186846 1.33187 0.561477 1.75171 0.374631 0.413383 0.913098 0.621801 1.61715 0.621801 0.193775 6e-14 0.372156-0.0164276 0.533635-0.0487232 0.167938-0.0387547 0.329892-0.0936805 0.484912-0.164731v0.183292c0 0.284201-0.08778 0.51751-0.262177 0.698366-0.167938 0.180855-0.458991 0.271458-0.872377 0.271458-0.316498 0-0.599589-0.0272123-0.851496-0.0788851-0.245448-0.0516729-0.481576-0.123026-0.707646-0.213454l-0.252896 1.21112c0.264825 0.0904275 0.553057 0.161781 0.863096 0.213454 0.310039 0.058132 0.620341 0.0881657 0.930381 0.0881657 0.884904 0 1.53604-0.203276 1.95589-0.6102 0.426304-0.400465 0.640362-1.01826 0.640362-1.85148v-4.283c-0.129183-0.0387547-0.277531-0.0721113-0.445469-0.104407-0.161479-0.0387547-0.331897-0.0716099-0.512753-0.0974464-0.180856-0.0258364-0.364881-0.0450856-0.552196-0.0580038-0.180856-0.0193773-0.359238-0.030162-0.533635-0.030162zm39.0064 0c-0.426304 0-0.83285 0.0328553-1.2204 0.0974464-0.387549 0.058132-0.705814 0.121522-0.951262 0.192573v4.92336h1.44545v-3.93498c0.0904281-0.0129182 0.192315-0.0213827 0.30858-0.0278418 0.116265-0.0129182 0.226115-0.0185612 0.329461-0.0185612 0.335876 0 0.566361 0.0962456 0.689085 0.290019s0.183292 0.523329 0.183292 0.988384v2.70298h1.44313v-2.87699c0-0.348792-0.0356763-0.667061-0.106727-0.951262s-0.189365-0.528796-0.357303-0.735488-0.398423-0.365826-0.689085-0.475631c-0.284203-0.116264-0.641467-0.174011-1.07423-0.174011zm-45.6838 0.0092806c-0.432763 0-0.825704 0.0436399-1.18096 0.127608-0.348794 0.0775093-0.653453 0.160149-0.911819 0.250576v4.82591h1.44313v-3.89553c0.0645915-0.0193773 0.160335-0.035805 0.283058-0.0487232 0.129183-0.0193773 0.236713-0.0278418 0.327141-0.0278418 0.200234-7e-14 0.3894 0.0192491 0.563797 0.0580038 0.174397 0.0322955 0.325567 0.0651508 0.45475 0.0974464l0.241296-1.19256c-0.0775098-0.0322955-0.170933-0.0571877-0.280738-0.076565-0.109806-0.0258364-0.219656-0.0474057-0.329461-0.0603239-0.109806-0.0193773-0.219656-0.0306633-0.329461-0.0371224-0.109806-0.0129182-0.203228-0.0208814-0.280738-0.0208814zm-26.9393 0.106727v4.87464c0 0.258364-0.0441406 0.455997-0.134569 0.591639-0.0904281 0.135641-0.249561 0.201853-0.475631 0.201853-0.122724-4e-14 -0.22179-0.00564299-0.2993-0.0185612-0.083969-0.0129182-0.17457-0.0349888-0.271458-0.0672844l-0.194893 1.17168c0.15502 0.0516729 0.322617 0.0873496 0.503473 0.106727 0.174397 0.0193773 0.308638 0.0278418 0.399066 0.0278418 0.620079-3e-14 1.09516-0.159636 1.42457-0.482591 0.329417-0.322955 0.491872-0.82011 0.491872-1.49186v-4.91408h-1.44313zm49.2963 0v5.09737h1.44313v-5.09737h-1.44313zm-15.6703 1.04639c0.129183 0 0.241855 0.00796314 0.338742 0.0208814 0.0968873 0.00645911 0.181846 0.0149236 0.252896 0.0278418v2.30623c-0.0904281 0.0516729-0.200278 0.0981343-0.329461 0.136889s-0.269067 0.0580038-0.417627 0.0580038c-0.652374-6e-14 -0.979104-0.40373-0.979104-1.21112 0-0.387547 0.095743-0.708637 0.283058-0.960543 0.187315-0.251905 0.470406-0.378185 0.851496-0.378185zm-61.6835 0.0116008c0.167938 0 0.305502 0.0277136 0.415307 0.0858456 0.116265 0.058132 0.212008 0.132307 0.283058 0.222735 0.0775098 0.0904275 0.132435 0.194636 0.164731 0.3109 0.0387549 0.116264 0.0608252 0.23458 0.0672844 0.357303h-1.90948c0.0193775-0.122723 0.0494108-0.241039 0.0881658-0.357303 0.0452141-0.122723 0.105782-0.229753 0.183292-0.320181 0.0775098-0.0904275 0.173754-0.161781 0.290019-0.213454 0.116265-0.058132 0.256148-0.0858456 0.417627-0.0858456zm22.292 0c0.167938 0 0.305502 0.0277136 0.415307 0.0858456 0.116265 0.058132 0.209688 0.132307 0.280738 0.222735 0.0775098 0.0904275 0.132435 0.194636 0.164731 0.3109 0.0387549 0.116264 0.0631454 0.23458 0.0696045 0.357303h-1.90948c0.0193775-0.122723 0.0494108-0.241039 0.0881658-0.357303 0.0452141-0.122723 0.105782-0.229753 0.183292-0.320181 0.0775098-0.0904275 0.173754-0.161781 0.290019-0.213454 0.116265-0.058132 0.256148-0.0858456 0.417627-0.0858456zm44.9993 0c0.167938 0 0.305502 0.0277136 0.415307 0.0858456 0.116265 0.058132 0.209688 0.132307 0.280738 0.222735 0.0775098 0.0904275 0.132435 0.194636 0.164731 0.3109 0.0387549 0.116264 0.0631454 0.23458 0.0696045 0.357303h-1.90948c0.0193775-0.122723 0.0494108-0.241039 0.0881658-0.357303 0.0452141-0.122723 0.105782-0.229753 0.183292-0.320181 0.0775098-0.0904275 0.173754-0.161781 0.290019-0.213454 0.116265-0.058132 0.256148-0.0858456 0.417627-0.0858456zm39.1526 0c0.167938 0 0.305502 0.0277136 0.415307 0.0858456 0.116265 0.058132 0.209688 0.132307 0.280738 0.222735 0.0775098 0.0904275 0.132435 0.194636 0.164731 0.3109 0.0387549 0.116264 0.0631454 0.23458 0.0696045 0.357303h-1.90948c0.0193775-0.122723 0.0494108-0.241039 0.0881658-0.357303 0.0452141-0.122723 0.105782-0.229753 0.183292-0.320181 0.0775098-0.0904275 0.173754-0.161781 0.290019-0.213454 0.116265-0.058132 0.256148-0.0858456 0.417627-0.0858456zm-73.3168 0.046403c0.329417-6e-14 0.579652 0.129101 0.754049 0.387465 0.180856 0.251905 0.271458 0.60071 0.271458 1.04639 0 0.445679-0.0906014 0.802446-0.271458 1.06727-0.174397 0.258364-0.424632 0.387465-0.754049 0.387465-0.329417-3e-14 -0.584794-0.129101-0.76565-0.387465-0.180856-0.264823-0.271458-0.621591-0.271458-1.06727s0.0906014-0.794483 0.271458-1.04639c0.180856-0.258364 0.436233-0.387465 0.76565-0.387465zm16.1599 0c0.329417-6e-14 0.581972 0.129101 0.756369 0.387465 0.180856 0.251905 0.269138 0.60071 0.269138 1.04639 0 0.445679-0.0882813 0.802446-0.269138 1.06727-0.174397 0.258364-0.426953 0.387465-0.756369 0.387465-0.329417-3e-14 -0.584794-0.129101-0.76565-0.387465-0.180856-0.264823-0.271458-0.621591-0.271458-1.06727s0.0906014-0.794483 0.271458-1.04639c0.180856-0.258364 0.436233-0.387465 0.76565-0.387465zm45.6049 0c0.329417-6e-14 0.581972 0.129101 0.756369 0.387465 0.180856 0.251905 0.271458 0.60071 0.271458 1.04639-3e-13 0.445679-0.0906014 0.802446-0.271458 1.06727-0.174397 0.258364-0.426953 0.387465-0.756369 0.387465-0.329417-3e-14 -0.584794-0.129101-0.76565-0.387465-0.180856-0.264823-0.271458-0.621591-0.271458-1.06727s0.0906014-0.794483 0.271458-1.04639c0.180856-0.258364 0.436233-0.387465 0.76565-0.387465zm-55.9087 0.0116008c0.68467 0 1.02551 0.464299 1.02551 1.39441 0 0.445679-0.0990658 0.802947-0.2993 1.07423s-0.49693 0.408347-0.890938 0.408347c-0.129183 0-0.249818-0.0028215-0.359623-0.0092806-0.109806-0.0129182-0.200407-0.0265244-0.271458-0.0394426v-2.62641c0.0904281-0.058132 0.205921-0.105095 0.348023-0.143849 0.148561-0.0387547 0.299229-0.0580038 0.447789-0.0580038zm50.0526 0c0.148561 0 0.291767 0.0192491 0.433868 0.0580038 0.148561 0.0387547 0.269195 0.0857174 0.359623 0.143849v2.62641c-0.0710507 0.0129182-0.161652 0.0265244-0.271458 0.0394426-0.109806 0.00645911-0.22812 0.0092806-0.357303 0.0092806-0.394008 0-0.693025-0.137064-0.893258-0.408347-0.200234-0.271283-0.2993-0.628551-0.2993-1.07423 0-0.930112 0.343157-1.39441 1.02783-1.39441zm21.5542 2.32479c-0.232529-4e-14 -0.443766 0.0769965-0.631081 0.232015-0.180856 0.155019-0.269138 0.374722-0.269138 0.658923s0.0882813 0.503904 0.269138 0.658923c0.187315 0.155019 0.398552 0.232015 0.631081 0.232015 0.232529 3e-14 0.438624-0.0769965 0.61948-0.232015 0.187315-0.155019 0.280738-0.374722 0.280738-0.658923s-0.0934229-0.503904-0.280738-0.658923c-0.180856-0.155019-0.386951-0.232015-0.61948-0.232015zm-68.4282 0.183292v0.116008c0.00645915 0.058132 0.00928061 0.121021 0.00928061 0.185612 0.00645915 0.0645911 0.0116008 0.127981 0.0116008 0.192573 0.00645915 0.058132 0.00928061 0.107415 0.00928061 0.14617 0 0.245446-0.0300334 0.555752-0.0881658 0.930381-0.0581324 0.374628-0.16234 0.773217-0.3109 1.19952l1.13455 0.283058c0.122724-0.200232 0.232574-0.411471 0.329461-0.631081 0.0968873-0.21961 0.176704-0.439313 0.241296-0.658923 0.0645915-0.21961 0.113874-0.436492 0.14617-0.649642 0.0387549-0.21961 0.0580038-0.425707 0.0580038-0.61948 0-0.0452138-0.00282145-0.10014-0.00928061-0.164731 0-0.0645911-0.00564291-0.174443-0.0185612-0.329461h-1.51274z" fill="#fff"/>
 </g>
</svg>
