<?xml version="1.0" encoding="UTF-8" standalone="no"?>
<!-- Created with Inkscape (http://www.inkscape.org/) -->
<svg id="svg4153" xmlns:rdf="http://www.w3.org/1999/02/22-rdf-syntax-ns#" xmlns="http://www.w3.org/2000/svg" height="20" width="20" version="1.1" xmlns:cc="http://creativecommons.org/ns#" xmlns:dc="http://purl.org/dc/elements/1.1/" viewBox="0 0 20.00000007511998 20.00000007462857">
 <metadata id="metadata4158">
  <rdf:RDF>
   <cc:Work rdf:about="">
    <dc:format>image/svg+xml</dc:format>
    <dc:type rdf:resource="http://purl.org/dc/dcmitype/StillImage"/>
    <dc:title/>
   </cc:Work>
  </rdf:RDF>
 </metadata>
 <g id="layer1" transform="translate(513.756 -902.339)">
  <g id="g5404" transform="translate(-626.897 708.903)">
   <path id="rect4990" d="m115.105 193.436h16.0714c1.08821 0 1.96429 0.876071 1.96429 1.96429 0 1.08821-0.876071 1.96429-1.96429 1.96429h-16.0714c-1.08821 0-1.96429-0.876071-1.96429-1.96429 0-1.08821 0.876071-1.96429 1.96429-1.96429z"/>
   <path id="rect4990-0-9" d="m115.105 201.471h16.0714c1.08821 0 1.96429 0.876071 1.96429 1.96429 0 1.08821-0.876071 1.96429-1.96429 1.96429h-16.0714c-1.08821 0-1.96429-0.876071-1.96429-1.96429 0-1.08821 0.876071-1.96429 1.96429-1.96429z"/>
   <path id="rect4990-0-9-6" d="m115.105 209.507h16.0714c1.08821 0 1.96429 0.876071 1.96429 1.96429 0 1.08821-0.876071 1.96429-1.96429 1.96429h-16.0714c-1.08821 0-1.96429-0.876071-1.96429-1.96429 0-1.08821 0.876071-1.96429 1.96429-1.96429z"/>
  </g>
 </g>
</svg>
