<?xml version="1.0" encoding="UTF-8" standalone="no"?>
<!-- Created with Inkscape (http://www.inkscape.org/) -->
<svg id="svg4154" xmlns:rdf="http://www.w3.org/1999/02/22-rdf-syntax-ns#" xmlns="http://www.w3.org/2000/svg" height="5.64444mm" width="5.64444mm" version="1.1" xmlns:cc="http://creativecommons.org/ns#" xmlns:dc="http://purl.org/dc/elements/1.1/" viewBox="0 0 20.00000007511998 20.00000007462857">
 <metadata id="metadata4159">
  <rdf:RDF>
   <cc:Work rdf:about="">
    <dc:format>image/svg+xml</dc:format>
    <dc:type rdf:resource="http://purl.org/dc/dcmitype/StillImage"/>
    <dc:title/>
   </cc:Work>
  </rdf:RDF>
 </metadata>
 <g id="layer1" transform="translate(-72.9731 -693.675)">
  <path id="path4149-2" d="m82.973 693.675a10 10 0 0 0 -9.99996 9.99996 10 10 0 0 0 9.99996 10 10 10 0 0 0 10 -10 10 10 0 0 0 -10 -9.99996zm-1.43465 3.58943h2.8875v3.25063c0 0.980652-0.0363509 1.89472-0.108992 2.7422-0.0726409 0.847477-0.169457 1.70709-0.290526 2.57878h-2.07027c-0.121068-0.871691-0.223967-1.7313-0.308715-2.57878-0.0726409-0.847477-0.108992-1.76155-0.108992-2.7422v-3.25063zm1.43465 9.47964c0.435845 0 0.823254 0.145261 1.16225 0.435824 0.351098 0.290564 0.526698 0.70223 0.526698 1.23493s-0.175601 0.944295-0.526698 1.23486c-0.338991 0.290564-0.7264 0.435824-1.16225 0.435824-0.435845 0-0.829337-0.145261-1.18043-0.435824-0.338991-0.290564-0.508438-0.702159-0.508438-1.23486 0-0.5327 0.169447-0.944367 0.508438-1.23493 0.351098-0.290564 0.744589-0.435824 1.18043-0.435824z" fill="#101010"/>
 </g>
</svg>
