<?xml version="1.0" encoding="UTF-8" standalone="no"?>
<!-- Created with Inkscape (http://www.inkscape.org/) -->

<svg
   xmlns:dc="http://purl.org/dc/elements/1.1/"
   xmlns:cc="http://creativecommons.org/ns#"
   xmlns:rdf="http://www.w3.org/1999/02/22-rdf-syntax-ns#"
   xmlns:svg="http://www.w3.org/2000/svg"
   xmlns="http://www.w3.org/2000/svg"
   xmlns:sodipodi="http://sodipodi.sourceforge.net/DTD/sodipodi-0.dtd"
   xmlns:inkscape="http://www.inkscape.org/namespaces/inkscape"
   id="svg4153"
   height="20"
   width="20"
   version="1.1"
   viewBox="0 0 20.00000007511998 20.00000007462857"
   inkscape:version="0.48.5 r10040"
   sodipodi:docname="addition-icon.svg">
  <defs
     id="defs11" />
  <sodipodi:namedview
     pagecolor="#ffffff"
     bordercolor="#666666"
     borderopacity="1"
     objecttolerance="10"
     gridtolerance="10"
     guidetolerance="10"
     inkscape:pageopacity="0"
     inkscape:pageshadow="2"
     inkscape:window-width="1366"
     inkscape:window-height="705"
     id="namedview9"
     showgrid="false"
     inkscape:zoom="11.8"
     inkscape:cx="13.305085"
     inkscape:cy="9.2613953"
     inkscape:window-x="-8"
     inkscape:window-y="-8"
     inkscape:window-maximized="1"
     inkscape:current-layer="svg4153" />
  <metadata
     id="metadata4158">
    <rdf:RDF>
      <cc:Work
         rdf:about="">
        <dc:format>image/svg+xml</dc:format>
        <dc:type
           rdf:resource="http://purl.org/dc/dcmitype/StillImage" />
        <dc:title></dc:title>
      </cc:Work>
    </rdf:RDF>
  </metadata>
  <path
     id="rect4990-0-9"
     d="m 1.964,8.035 h 16.0714 c 1.08821,0 1.96429,0.87607 1.96429,1.96429 0,1.08821 -0.87607,1.96429 -1.96429,1.96429 H 1.964 c -1.08821,0 -1.96429,-0.87607 -1.96429,-1.96429 C -2.9e-4,8.91108 0.87578,8.035 1.964,8.035 z"
     inkscape:connector-curvature="0"
     style="fill:#ff120d;fill-opacity:1" />
  <path
     d="M 9.999928,-7.52625e-4 A 10.000167,10.000167 0 0 0 -3.43e-4,9.9995183 10.000167,10.000167 0 0 0 9.999928,19.999333 10.000167,10.000167 0 0 0 19.999743,9.9995183 10.000167,10.000167 0 0 0 9.999928,-7.52625e-4 z m 0,2.367337925 A 7.6327671,7.6327671 0 0 1 17.632675,9.9995079 7.6327671,7.6327671 0 0 1 9.999928,17.631933 7.6327671,7.6327671 0 0 1 2.367005,9.9995079 7.6327671,7.6327671 0 0 1 9.999928,2.3665853 z"
     id="path7253-2-6-7-1"
     inkscape:connector-curvature="0"
     style="fill:#ff120d;fill-opacity:1" />
</svg>
